<svg width="61" height="60" viewBox="0 0 61 60" fill="none" xmlns="http://www.w3.org/2000/svg">
<g clip-path="url(#clip0)">
<circle cx="30.5001" cy="29.9999" r="18.943" fill="#E31E22"/>
<path d="M30.5001 9.68408C19.2978 9.68408 10.1841 18.7978 10.1841 30.0001C10.1841 41.2024 19.2978 50.316 30.5001 50.316C41.7024 50.316 50.816 41.2024 50.816 30.0001C50.816 18.7978 41.7024 9.68408 30.5001 9.68408ZM30.5001 47.9723C20.5901 47.9723 12.5278 39.91 12.5278 30.0001C12.5278 20.0901 20.5901 12.0278 30.5001 12.0278C40.41 12.0278 48.4723 20.0901 48.4723 30.0001C48.4723 39.91 40.4099 47.9723 30.5001 47.9723Z" fill="#E31E22"/>
<path d="M58.8989 34.0287C59.6493 32.8619 60.5 31.5396 60.5 30C60.5 28.4604 59.6493 27.138 58.8989 25.9713C58.3965 25.1904 57.922 24.4528 57.7698 23.784C57.6073 23.0707 57.716 22.1739 57.8309 21.2245C58.0028 19.8043 58.1807 18.3359 57.5341 16.9976C56.8761 15.6357 55.5453 14.8198 54.3711 14.0998C53.5665 13.6065 52.8065 13.1405 52.3645 12.5876C51.9178 12.0289 51.6293 11.1816 51.3239 10.2845C50.8818 8.98616 50.381 7.51476 49.2055 6.57749C48.0361 5.64515 46.4925 5.48343 45.1304 5.3407C44.1826 5.24144 43.2873 5.14769 42.6355 4.83363C42.0059 4.53034 41.3864 3.89905 40.7305 3.23073C39.7619 2.24378 38.6641 1.12511 37.175 0.787023C35.7414 0.461711 34.357 0.958352 33.0181 1.43894C32.1077 1.76554 31.2477 2.07421 30.5 2.07421C29.7523 2.07421 28.8923 1.76554 27.9819 1.43882C26.6431 0.958352 25.2588 0.461594 23.825 0.786906C22.3359 1.12488 21.2381 2.24355 20.2695 3.23062C19.6136 3.89894 18.9942 4.53023 18.3646 4.83351C17.7129 5.14745 16.8177 5.2412 15.8697 5.34058C14.5077 5.48331 12.9639 5.64503 11.7946 6.57737C10.6191 7.51464 10.1182 8.98605 9.67625 10.2843C9.37086 11.1814 9.08234 12.0288 8.63563 12.5875C8.19359 13.1403 7.43352 13.6063 6.62891 14.0996C5.4548 14.8196 4.12402 15.6356 3.46602 16.9975C2.81938 18.3358 2.99715 19.8043 3.16906 21.2245C3.28402 22.174 3.39266 23.0707 3.23023 23.784C3.07801 24.4528 2.60352 25.1904 2.10113 25.9713C1.35066 27.138 0.5 28.4604 0.5 30C0.5 31.5396 1.35066 32.8619 2.10113 34.0285C2.60352 34.8096 3.07801 35.5472 3.23023 36.216C3.39266 36.9293 3.28402 37.826 3.16906 38.7755C2.99715 40.1957 2.81926 41.6641 3.4659 43.0024C4.12391 44.3643 5.45469 45.1803 6.62891 45.9002C7.43352 46.3936 8.19348 46.8595 8.63551 47.4124C9.08223 47.971 9.37074 48.8184 9.67613 49.7155C10.118 51.0138 10.619 52.4852 11.7945 53.4225C12.9639 54.3548 14.5077 54.5166 15.8696 54.6593C16.8174 54.7585 17.7127 54.8523 18.3645 55.1664C18.9941 55.4696 19.6136 56.1009 20.2695 56.7692C21.2381 57.7562 22.3359 58.8749 23.825 59.213C25.2589 59.5384 26.6431 59.0418 27.9819 58.561C28.8924 58.2343 29.7523 57.9257 30.5 57.9257C31.2477 57.9257 32.1077 58.2343 33.0181 58.561C34.058 58.9343 35.1252 59.3173 36.2218 59.3173C36.537 59.3173 36.8548 59.2856 37.175 59.213C38.6641 58.875 39.7619 57.7563 40.7305 56.7694C41.3864 56.1009 42.0058 55.4698 42.6353 55.1665C43.2871 54.8524 44.1825 54.7587 45.1303 54.6594C46.4923 54.5167 48.0359 54.3549 49.2053 53.4226C50.3809 52.4853 50.8817 51.0139 51.3238 49.7157C51.6291 48.8185 51.9177 47.9712 52.3644 47.4125C52.8064 46.8596 53.5665 46.3937 54.3711 45.9003C55.5452 45.1803 56.876 44.3644 57.534 43.0025C58.1806 41.6641 58.0028 40.1957 57.8309 38.7755C57.716 37.826 57.6073 36.9293 57.7698 36.216C57.9219 35.5472 58.3965 34.8096 58.8989 34.0287ZM56.9278 32.7606C56.338 33.6775 55.7281 34.6255 55.4845 35.6957C55.2316 36.8064 55.3701 37.9507 55.5042 39.0572C55.6415 40.1918 55.7713 41.2635 55.4237 41.9829C55.0647 42.7256 54.1327 43.2971 53.1459 43.9022C52.205 44.4791 51.232 45.0757 50.5339 45.9486C49.831 46.8275 49.462 47.9116 49.105 48.9602C48.7339 50.0505 48.3832 51.0804 47.7441 51.5899C47.1105 52.0952 46.0299 52.2083 44.8861 52.3282C43.7805 52.444 42.6373 52.5637 41.6182 53.0548C40.6197 53.5357 39.8255 54.345 39.0575 55.1276C38.2429 55.9576 37.4735 56.7416 36.6561 56.9272C35.8892 57.101 34.8791 56.7388 33.8096 56.355C32.7505 55.9748 31.6552 55.5818 30.4998 55.5818C29.3443 55.5818 28.2491 55.9748 27.1899 56.355C26.1205 56.7388 25.1103 57.1012 24.3434 56.9272C23.5261 56.7416 22.7566 55.9576 21.942 55.1276C21.174 54.345 20.3798 53.5357 19.3814 53.0548C18.3622 52.5637 17.219 52.4441 16.1135 52.3282C14.9695 52.2084 13.889 52.0951 13.2554 51.5899C12.6164 51.0804 12.2657 50.0505 11.8946 48.9602C11.5377 47.9118 11.1685 46.8275 10.4657 45.9486C9.76766 45.0757 8.79477 44.4792 7.85375 43.9022C6.86691 43.2971 5.9348 42.7257 5.57598 41.9829C5.2284 41.2635 5.35812 40.1918 5.49547 39.0572C5.62953 37.9507 5.76805 36.8065 5.51516 35.6957C5.27152 34.6255 4.66168 33.6773 4.07187 32.7605C3.44047 31.7785 2.84375 30.8508 2.84375 30C2.84375 29.1491 3.44047 28.2214 4.07223 27.2393C4.66203 26.3224 5.27187 25.3744 5.51551 24.3042C5.7684 23.1934 5.62988 22.0492 5.49582 20.9427C5.35848 19.8081 5.22875 18.7364 5.57633 18.017C5.93527 17.2742 6.86727 16.7027 7.8541 16.0977C8.795 15.5208 9.76801 14.9242 10.4661 14.0512C11.1689 13.1725 11.538 12.0881 11.895 11.0396C12.2662 9.94933 12.6168 8.91948 13.2559 8.40995C13.8896 7.90464 14.9701 7.79155 16.1141 7.67167C17.2196 7.55589 18.3627 7.43612 19.382 6.94523C20.3804 6.46429 21.1745 5.65499 21.9425 4.87241C22.7571 4.04238 23.5265 3.25839 24.3439 3.07277C25.1105 2.89886 26.1209 3.2612 27.1904 3.64499C28.2493 4.02491 29.3445 4.41796 30.5 4.41796C31.6555 4.41796 32.7507 4.02491 33.8098 3.64476C34.8793 3.26109 35.8892 2.89862 36.6563 3.07253C37.4737 3.25804 38.2432 4.04214 39.0577 4.87218C39.8258 5.65476 40.62 6.46405 41.6184 6.94499C42.6376 7.43589 43.7807 7.55566 44.8863 7.67155C46.0303 7.79144 47.1107 7.90464 47.7445 8.40984C48.3835 8.91937 48.7341 9.94921 49.1053 11.0396C49.4622 12.0881 49.8314 13.1723 50.5341 14.0512C51.2322 14.9242 52.2051 15.5208 53.1461 16.0977C54.133 16.7027 55.0651 17.2741 55.4239 18.017C55.7715 18.7364 55.6418 19.8081 55.5044 20.9427C55.3704 22.0492 55.2318 23.1935 55.4847 24.3042C55.7284 25.3744 56.3382 26.3224 56.928 27.2393C57.5595 28.2214 58.1562 29.1491 58.1562 30C58.1562 30.8508 57.5595 31.7785 56.9278 32.7606Z" fill="#193982"/>
<path d="M18.7318 28.3796C18.5958 28.5033 18.4473 28.6002 18.2865 28.6702C18.1257 28.7403 17.9361 28.7754 17.7175 28.7754C17.5938 28.7754 17.4784 28.7527 17.3712 28.7074C17.2681 28.6579 17.1794 28.594 17.1052 28.5156C17.031 28.4332 16.9712 28.3404 16.9259 28.2373C16.8846 28.1342 16.864 28.025 16.864 27.9095C16.864 27.7941 16.8826 27.6951 16.9197 27.6126C16.9568 27.526 17.0083 27.4518 17.0743 27.39C17.1403 27.3281 17.2166 27.2725 17.3031 27.223C17.3897 27.1735 17.4825 27.122 17.5815 27.0684C17.7876 26.9323 17.9711 26.7942 18.1319 26.654C18.2968 26.5138 18.4432 26.3839 18.571 26.2643C18.6989 26.1406 18.8102 26.0355 18.905 25.9489C18.9999 25.8623 19.0823 25.8025 19.1524 25.7695C19.1937 25.7489 19.2308 25.7324 19.2637 25.7201C19.3009 25.7036 19.338 25.6933 19.3751 25.6891C19.4122 25.6809 19.4534 25.6768 19.4988 25.6768C19.5441 25.6726 19.6019 25.6706 19.672 25.6706C19.8864 25.6706 20.0554 25.7139 20.1791 25.8005C20.3069 25.887 20.4018 26.0004 20.4636 26.1406C20.5296 26.2767 20.5708 26.4313 20.5873 26.6045C20.6038 26.7777 20.6121 26.9529 20.6121 27.1302V32.8698C20.6121 33.0512 20.6038 33.2306 20.5873 33.4079C20.5708 33.5811 20.5296 33.7357 20.4636 33.8717C20.4018 34.0078 20.3069 34.1191 20.1791 34.2057C20.0554 34.2882 19.8864 34.3294 19.672 34.3294C19.4534 34.3294 19.2823 34.2882 19.1586 34.2057C19.0349 34.1191 18.9401 34.0078 18.8741 33.8717C18.8123 33.7357 18.7731 33.5811 18.7566 33.4079C18.7401 33.2306 18.7318 33.0512 18.7318 32.8698V28.3796ZM22.1241 28.1445C22.1241 27.7446 22.1798 27.4044 22.2911 27.124C22.4066 26.8395 22.553 26.6045 22.7303 26.4189C22.9076 26.2334 23.1034 26.087 23.3178 25.9798C23.5322 25.8726 23.7405 25.7922 23.9425 25.7386C24.1487 25.685 24.3321 25.652 24.493 25.6396C24.6579 25.6273 24.7795 25.6211 24.8579 25.6211H25.0681C25.1465 25.6211 25.2681 25.6273 25.4331 25.6396C25.598 25.652 25.7794 25.685 25.9773 25.7386C26.1794 25.7922 26.3855 25.8726 26.5958 25.9798C26.8103 26.087 27.0041 26.2334 27.1772 26.4189C27.3545 26.6045 27.4989 26.8395 27.6102 27.124C27.7215 27.4044 27.7772 27.7446 27.7772 28.1445V31.7936C27.7772 32.2059 27.7215 32.5564 27.6102 32.8451C27.4989 33.1337 27.3545 33.3749 27.1772 33.5687C27.0041 33.7584 26.8103 33.9068 26.5958 34.014C26.3855 34.1212 26.1794 34.2037 25.9773 34.2614C25.7794 34.315 25.598 34.348 25.4331 34.3604C25.2681 34.3727 25.1465 34.3789 25.0681 34.3789H24.8579C24.7795 34.3789 24.6579 34.3727 24.493 34.3604C24.3321 34.348 24.1487 34.315 23.9425 34.2614C23.7405 34.2037 23.5322 34.1212 23.3178 34.014C23.1034 33.9068 22.9076 33.7584 22.7303 33.5687C22.553 33.3749 22.4066 33.1337 22.2911 32.8451C22.1798 32.5564 22.1241 32.2059 22.1241 31.7936V28.1445ZM24.1528 32.1152C24.1652 32.2595 24.2043 32.3874 24.2703 32.4987C24.3239 32.5935 24.4043 32.6822 24.5115 32.7646C24.6228 32.843 24.7754 32.8822 24.9692 32.8822C25.1589 32.8822 25.3073 32.843 25.4145 32.7646C25.5217 32.6822 25.6021 32.5935 25.6557 32.4987C25.7176 32.3874 25.7567 32.2595 25.7732 32.1152V27.9342C25.7567 27.7899 25.7176 27.6621 25.6557 27.5508C25.6021 27.4559 25.5217 27.3694 25.4145 27.291C25.3073 27.2086 25.1589 27.1673 24.9692 27.1673C24.7754 27.1673 24.6228 27.2086 24.5115 27.291C24.4043 27.3694 24.3239 27.4559 24.2703 27.5508C24.2043 27.6621 24.1652 27.7899 24.1528 27.9342V32.1152ZM29.1656 28.1445C29.1656 27.7446 29.2212 27.4044 29.3326 27.124C29.448 26.8395 29.5944 26.6045 29.7717 26.4189C29.949 26.2334 30.1448 26.087 30.3592 25.9798C30.5737 25.8726 30.7819 25.7922 30.9839 25.7386C31.1901 25.685 31.3736 25.652 31.5344 25.6396C31.6993 25.6273 31.8209 25.6211 31.8993 25.6211H32.1096C32.1879 25.6211 32.3096 25.6273 32.4745 25.6396C32.6394 25.652 32.8208 25.685 33.0188 25.7386C33.2208 25.7922 33.427 25.8726 33.6372 25.9798C33.8517 26.087 34.0454 26.2334 34.2186 26.4189C34.3959 26.6045 34.5402 26.8395 34.6516 27.124C34.7629 27.4044 34.8186 27.7446 34.8186 28.1445V31.7936C34.8186 32.2059 34.7629 32.5564 34.6516 32.8451C34.5402 33.1337 34.3959 33.3749 34.2186 33.5687C34.0454 33.7584 33.8517 33.9068 33.6372 34.014C33.427 34.1212 33.2208 34.2037 33.0188 34.2614C32.8208 34.315 32.6394 34.348 32.4745 34.3604C32.3096 34.3727 32.1879 34.3789 32.1096 34.3789H31.8993C31.8209 34.3789 31.6993 34.3727 31.5344 34.3604C31.3736 34.348 31.1901 34.315 30.9839 34.2614C30.7819 34.2037 30.5737 34.1212 30.3592 34.014C30.1448 33.9068 29.949 33.7584 29.7717 33.5687C29.5944 33.3749 29.448 33.1337 29.3326 32.8451C29.2212 32.5564 29.1656 32.2059 29.1656 31.7936V28.1445ZM31.1942 32.1152C31.2066 32.2595 31.2458 32.3874 31.3117 32.4987C31.3653 32.5935 31.4457 32.6822 31.5529 32.7646C31.6643 32.843 31.8168 32.8822 32.0106 32.8822C32.2003 32.8822 32.3487 32.843 32.4559 32.7646C32.5631 32.6822 32.6435 32.5935 32.6971 32.4987C32.759 32.3874 32.7982 32.2595 32.8147 32.1152V27.9342C32.7982 27.7899 32.759 27.6621 32.6971 27.5508C32.6435 27.4559 32.5631 27.3694 32.4559 27.291C32.3487 27.2086 32.2003 27.1673 32.0106 27.1673C31.8168 27.1673 31.6643 27.2086 31.5529 27.291C31.4457 27.3694 31.3653 27.4559 31.3117 27.5508C31.2458 27.6621 31.2066 27.7899 31.1942 27.9342V32.1152ZM39.0396 33.7604C39.0025 33.8223 38.9613 33.8882 38.9159 33.9583C38.8706 34.0243 38.817 34.0862 38.7551 34.1439C38.6974 34.1975 38.6294 34.2428 38.551 34.2799C38.4768 34.3129 38.3882 34.3294 38.2851 34.3294C38.2356 34.3294 38.182 34.3191 38.1243 34.2985C38.0707 34.2779 38.0129 34.2511 37.9511 34.2181C37.7903 34.1315 37.6748 34.0408 37.6047 33.946C37.5388 33.847 37.5017 33.748 37.4934 33.6491C37.5017 33.5254 37.5223 33.4202 37.5553 33.3337C37.5882 33.2429 37.6295 33.1543 37.679 33.0677L41.2415 26.2272C41.2744 26.1612 41.3115 26.0953 41.3528 26.0293C41.394 25.9633 41.4394 25.9035 41.4888 25.8499C41.5383 25.7963 41.594 25.753 41.6558 25.7201C41.7177 25.6871 41.7898 25.6706 41.8723 25.6706C41.9589 25.6706 42.0372 25.6809 42.1073 25.7015C42.1816 25.718 42.2558 25.7448 42.33 25.7819C42.4867 25.8644 42.598 25.953 42.664 26.0479C42.7299 26.1427 42.7629 26.2396 42.7629 26.3385C42.7629 26.4622 42.7423 26.5715 42.7011 26.6663C42.664 26.7612 42.6227 26.8457 42.5774 26.9199L39.0396 33.7604ZM39.6829 27.4023C39.6829 28.0043 39.5324 28.4476 39.2314 28.7321C38.9304 29.0166 38.5036 29.1589 37.9511 29.1589C37.3862 29.1589 36.9491 29.0166 36.6399 28.7321C36.3348 28.4476 36.1822 28.0043 36.1822 27.4023C36.1822 26.8045 36.3348 26.3674 36.6399 26.0911C36.9491 25.8108 37.3862 25.6706 37.9511 25.6706C38.5407 25.6706 38.9757 25.8087 39.2561 26.085C39.5406 26.3612 39.6829 26.8003 39.6829 27.4023ZM44.136 32.61C44.136 33.212 43.9855 33.6553 43.6845 33.9398C43.3835 34.2243 42.9567 34.3665 42.4042 34.3665C41.8393 34.3665 41.4023 34.2243 41.093 33.9398C40.7879 33.6553 40.6353 33.212 40.6353 32.61C40.6353 32.0122 40.7879 31.5751 41.093 31.2988C41.4023 31.0184 41.8393 30.8783 42.4042 30.8783C42.9938 30.8783 43.4288 31.0164 43.7092 31.2926C43.9937 31.5689 44.136 32.008 44.136 32.61ZM38.5572 27.4023C38.5572 26.99 38.3552 26.7839 37.9511 26.7839C37.7532 26.7839 37.6006 26.8354 37.4934 26.9385C37.3862 27.0374 37.3326 27.1921 37.3326 27.4023C37.3326 27.6085 37.3862 27.7631 37.4934 27.8662C37.6006 27.9693 37.7532 28.0208 37.9511 28.0208C38.3552 28.0208 38.5572 27.8147 38.5572 27.4023ZM43.0103 32.61C43.0103 32.1977 42.8083 31.9915 42.4042 31.9915C42.2063 31.9915 42.0537 32.0431 41.9465 32.1462C41.8393 32.2451 41.7857 32.3997 41.7857 32.61C41.7857 32.8162 41.8393 32.9708 41.9465 33.0739C42.0537 33.177 42.2063 33.2285 42.4042 33.2285C42.8083 33.2285 43.0103 33.0224 43.0103 32.61Z" fill="white"/>
</g>
<defs>
<clipPath id="clip0">
<rect width="60" height="60" fill="white" transform="translate(0.5)"/>
</clipPath>
</defs>
</svg>
