<svg width="61" height="60" viewBox="0 0 61 60" fill="none" xmlns="http://www.w3.org/2000/svg">
<g clip-path="url(#clip0)">
<path d="M30.4998 48.6376C40.793 48.6376 49.1373 40.2933 49.1373 30C49.1373 19.7068 40.793 11.3625 30.4998 11.3625C20.2066 11.3625 11.8623 19.7068 11.8623 30C11.8623 40.2933 20.2066 48.6376 30.4998 48.6376Z" fill="#E31E22"/>
<path d="M57.1736 33.9779C56.537 33.8551 55.9234 34.2715 55.8011 34.9069C53.4716 46.9961 42.8309 55.7704 30.5 55.7704C18.4288 55.7704 7.97757 47.3618 5.35714 35.6665L5.663 35.9724C5.89187 36.2012 6.19175 36.3157 6.49164 36.3157C6.79152 36.3157 7.0914 36.2012 7.32015 35.9725C7.77789 35.5149 7.77789 34.7729 7.32027 34.3152L4.91031 31.9051C4.69058 31.6853 4.39246 31.5618 4.08167 31.5618C3.77089 31.5618 3.47277 31.6853 3.25304 31.9051L0.843198 34.3152C0.385581 34.7728 0.385581 35.5147 0.843315 35.9725C1.30082 36.4302 2.04296 36.4301 2.50058 35.9724L2.93441 35.5385C5.54968 48.6314 17.1116 58.1141 30.5 58.1141C43.9523 58.1141 55.5609 48.5406 58.1025 35.3504C58.225 34.7149 57.8091 34.1004 57.1736 33.9779Z" fill="#193982"/>
<path d="M60.1566 24.0276C59.6991 23.5699 58.957 23.57 58.4993 24.0277L58.0655 24.4616C55.4502 11.3687 43.8883 1.88599 30.5 1.88599C17.0476 1.88599 5.43904 11.4595 2.89736 24.6497C2.7749 25.2853 3.1908 25.8997 3.82631 26.0222C4.46264 26.1444 5.07635 25.7285 5.19881 25.0932C7.52838 13.004 18.1691 4.22974 30.5 4.22974C42.5711 4.22974 53.0224 12.6383 55.6428 24.3336L55.3369 24.0277C54.8794 23.5701 54.1375 23.57 53.6797 24.0276C53.2219 24.4852 53.2219 25.2272 53.6795 25.6849L56.0894 28.095C56.3091 28.3148 56.6072 28.4383 56.918 28.4383C57.2288 28.4383 57.5269 28.3148 57.7466 28.095L60.1565 25.6849C60.6145 25.2273 60.6145 24.4852 60.1566 24.0276Z" fill="#193982"/>
<path d="M31.7365 35.1659C31.8785 35.2225 32.025 35.2493 32.1691 35.2493C32.6351 35.2493 33.0757 34.9694 33.2584 34.51L36.5015 26.3562C36.7407 25.7548 36.4471 25.0734 35.8458 24.8342C35.2446 24.5951 34.5629 24.8886 34.3237 25.4901L31.0806 33.6439C30.8414 34.2453 31.1351 34.9268 31.7365 35.1659Z" fill="white"/>
<path d="M38.3588 27.095H41.0494L38.1873 33.6054C37.9268 34.1979 38.196 34.8894 38.7885 35.1499C38.942 35.2174 39.102 35.2494 39.2596 35.2494C39.7103 35.2492 40.14 34.9878 40.3329 34.5488L43.9175 26.3949C44.0767 26.0324 44.0424 25.6142 43.826 25.2828C43.6096 24.9513 43.2406 24.7515 42.8447 24.7515H38.3589C37.7118 24.7515 37.187 25.2762 37.187 25.9233C37.1869 26.5702 37.7115 27.095 38.3588 27.095Z" fill="white"/>
<path d="M23.3583 32.266C23.5691 32.6231 23.9528 32.8421 24.3674 32.8421H27.2652C27.262 33.2741 27.2586 33.6879 27.2553 34.0667C27.2498 34.714 27.77 35.2431 28.4171 35.2487H28.4274C29.0698 35.2487 29.5934 34.7306 29.599 34.0869C29.6017 33.7802 29.6052 33.345 29.6092 32.8359C30.1994 32.7751 30.6598 32.2765 30.6598 31.6703C30.6598 31.0693 30.2076 30.5741 29.6248 30.5062C29.6354 28.5988 29.6393 26.6784 29.6154 26.3908C29.5527 25.6372 29.0924 25.0205 28.4427 24.8191C27.794 24.6185 27.1118 24.8606 26.6177 25.4669C26.1536 26.0361 24.172 29.5988 23.3414 31.1041C23.1411 31.4673 23.1475 31.909 23.3583 32.266ZM27.288 28.862C27.2862 29.3681 27.2838 29.9251 27.2806 30.4984H26.3607C26.6863 29.9182 27.0029 29.3591 27.288 28.862Z" fill="white"/>
<path d="M22.6494 35.3098C23.2965 35.3017 23.8145 34.7704 23.8064 34.1233C23.7985 33.4812 23.2753 32.9662 22.635 32.9662C22.63 32.9662 22.6249 32.9662 22.6199 32.9663C21.9783 32.9742 21.3042 32.9802 20.6952 32.9832C21.1169 32.4123 21.6581 31.6643 22.3419 30.6873C22.8813 29.9167 23.234 29.184 23.3903 28.5099C23.4287 28.3603 23.4606 28.1488 23.461 27.9298C23.4635 26.1331 21.9993 24.6714 20.2026 24.6714C18.6491 24.6714 17.3046 25.7767 17.0053 27.2994C16.8806 27.9345 17.2942 28.5504 17.9294 28.6752C18.5649 28.8003 19.1805 28.3864 19.3051 27.7512C19.3889 27.3246 19.7664 27.0151 20.2026 27.0151C20.6869 27.0151 21.0844 27.3937 21.1152 27.8703L21.0947 28.0307C21.0247 28.298 20.8503 28.7311 20.4218 29.3433C19.1331 31.1846 18.3644 32.1911 17.9514 32.7318C17.4218 33.4252 17.1301 33.8071 17.325 34.4413C17.4398 34.8141 17.7325 35.1115 18.109 35.2371C18.2655 35.2893 18.3907 35.331 19.9912 35.331C20.6195 35.3309 21.4752 35.3246 22.6494 35.3098Z" fill="white"/>
</g>
<defs>
<clipPath id="clip0">
<rect width="60" height="60" fill="white" transform="translate(0.5)"/>
</clipPath>
</defs>
</svg>
