<svg width="60" height="60" viewBox="0 0 60 60" fill="none" xmlns="http://www.w3.org/2000/svg">
<g clip-path="url(#clip0)">
<path d="M57.8248 6.18438H25.6381C24.4367 6.18438 23.4629 7.15879 23.4629 8.36079V20.0992H35.534C36.7353 20.0992 37.7091 21.0736 37.7091 22.2756V35.4229H44.0864L47.3909 38.7292L50.6955 35.4229H57.8247C59.026 35.4229 60 34.4485 60 33.2465V8.36067C60.0001 7.15868 59.0262 6.18438 57.8248 6.18438Z" fill="#E31E22"/>
<path d="M35.5339 18.9274H3.34711C1.50152 18.9274 0 20.4294 0 22.2755V47.1612C0 49.0074 1.50152 50.5094 3.34711 50.5094H9.99082L12.9521 53.4722C13.1719 53.6921 13.4701 53.8157 13.781 53.8157C14.0919 53.8157 14.39 53.6921 14.6099 53.4722L17.5711 50.5094H35.5339C37.3795 50.5094 38.8811 49.0074 38.8811 47.1612V22.2755C38.8809 20.4294 37.3795 18.9274 35.5339 18.9274ZM36.5372 47.1612C36.5372 47.7152 36.0871 48.1656 35.5338 48.1656H17.0855C16.7746 48.1656 16.4764 48.2893 16.2566 48.5091L13.7809 50.9862L11.3051 48.5091C11.0854 48.2893 10.7872 48.1656 10.4762 48.1656H3.34711C2.79387 48.1656 2.34375 47.7151 2.34375 47.1612V22.2755C2.34375 21.7216 2.79387 21.2711 3.34711 21.2711H35.5339C36.0872 21.2711 36.5373 21.7217 36.5373 22.2755V47.1612H36.5372Z" fill="#193982"/>
<path d="M7.12734 35.4851H8.83535L8.04043 32.6062H7.92227L7.12734 35.4851ZM10.5004 36.0115C10.5076 36.255 10.5165 36.5038 10.5272 36.7581C10.538 37.0123 10.5434 37.2576 10.5434 37.4939V37.655C10.5434 37.7911 10.538 37.9236 10.5272 38.0525C10.5201 38.1778 10.4932 38.2924 10.4467 38.3962C10.4001 38.4965 10.3267 38.5771 10.2265 38.6379C10.1262 38.6988 9.98477 38.7292 9.80215 38.7292C9.61595 38.7292 9.47272 38.6988 9.37246 38.6379C9.2722 38.5771 9.19701 38.4965 9.14688 38.3962C9.10033 38.296 9.07168 38.1814 9.06094 38.0525C9.05378 37.9236 9.0502 37.7911 9.0502 37.655V36.9031H6.90176V37.655C6.90176 37.7911 6.89639 37.9236 6.88564 38.0525C6.87848 38.1814 6.84984 38.296 6.79971 38.3962C6.75316 38.4965 6.67975 38.5771 6.57949 38.6379C6.47923 38.6988 6.336 38.7292 6.14981 38.7292C5.96361 38.7292 5.82038 38.6988 5.72012 38.6379C5.61986 38.5771 5.54645 38.4965 5.4999 38.3962C5.45335 38.2924 5.4265 38.1778 5.41934 38.0525C5.41217 37.9236 5.40859 37.7911 5.40859 37.655V37.4939C5.40859 37.3829 5.40859 37.2647 5.40859 37.1394C5.41217 37.0141 5.41576 36.887 5.41934 36.7581C5.42292 36.6292 5.4265 36.502 5.43008 36.3767C5.43366 36.2478 5.43724 36.1261 5.44082 36.0115C5.61986 35.3884 5.80785 34.7582 6.00479 34.1208C6.20173 33.4799 6.38971 32.8461 6.56875 32.2195C6.60456 32.087 6.64753 31.9599 6.69766 31.8381C6.74779 31.7128 6.81403 31.6054 6.89639 31.5159C6.97874 31.4228 7.08438 31.3494 7.21328 31.2957C7.34219 31.2384 7.5069 31.2097 7.70742 31.2097H8.24453C8.44147 31.2097 8.60439 31.2384 8.7333 31.2957C8.86579 31.3494 8.97321 31.4228 9.05557 31.5159C9.13792 31.6054 9.20238 31.7128 9.24893 31.8381C9.29906 31.9599 9.34382 32.087 9.3832 32.2195L10.5004 36.0115ZM14.8039 31.2097C14.9471 31.2097 15.0922 31.2169 15.239 31.2312C15.3858 31.2455 15.5183 31.2795 15.6364 31.3333C15.7546 31.387 15.8513 31.4675 15.9265 31.575C16.0017 31.6788 16.0393 31.822 16.0393 32.0046C16.0393 32.1873 16.0017 32.3323 15.9265 32.4397C15.8513 32.5435 15.7546 32.6223 15.6364 32.676C15.5183 32.7297 15.3858 32.7638 15.239 32.7781C15.0922 32.7924 14.9471 32.7996 14.8039 32.7996H13.5256V34.196H14.2023C14.342 34.196 14.4852 34.2014 14.632 34.2122C14.7788 34.2229 14.9113 34.2533 15.0295 34.3035C15.1477 34.3536 15.2443 34.4324 15.3195 34.5398C15.3983 34.6472 15.4377 34.7976 15.4377 34.991C15.4377 35.1843 15.4001 35.3347 15.3249 35.4421C15.2497 35.5496 15.153 35.6283 15.0349 35.6785C14.9167 35.7286 14.7842 35.759 14.6374 35.7698C14.4906 35.7805 14.3456 35.7859 14.2023 35.7859H13.5256V37.4939C13.5256 37.6514 13.5202 37.8036 13.5095 37.9504C13.5023 38.0972 13.4719 38.2297 13.4182 38.3479C13.368 38.4625 13.2875 38.5556 13.1765 38.6272C13.0655 38.6952 12.9097 38.7292 12.7092 38.7292C12.5051 38.7292 12.3475 38.6952 12.2365 38.6272C12.1255 38.5556 12.045 38.4625 11.9948 38.3479C11.9447 38.2297 11.9143 38.0972 11.9035 37.9504C11.8964 37.8036 11.8928 37.6514 11.8928 37.4939V32.4451C11.8928 32.2911 11.8964 32.1407 11.9035 31.9939C11.9143 31.8471 11.9447 31.7164 11.9948 31.6018C12.045 31.4836 12.1255 31.3888 12.2365 31.3171C12.3475 31.2455 12.5051 31.2097 12.7092 31.2097H14.8039ZM17.335 32.4451C17.335 32.2911 17.3421 32.1407 17.3564 31.9939C17.3708 31.8471 17.4048 31.7164 17.4585 31.6018C17.5158 31.4836 17.5981 31.3888 17.7056 31.3171C17.813 31.2455 17.9616 31.2097 18.1514 31.2097C18.3555 31.2097 18.5148 31.2455 18.6294 31.3171C18.744 31.3888 18.8281 31.4836 18.8818 31.6018C18.9355 31.7164 18.9678 31.8471 18.9785 31.9939C18.9928 32.1407 19 32.2911 19 32.4451V37.1501H20.0527C20.1995 37.1501 20.3446 37.1573 20.4878 37.1716C20.631 37.186 20.7581 37.22 20.8691 37.2737C20.9837 37.3274 21.075 37.4062 21.1431 37.51C21.2111 37.6139 21.2451 37.7553 21.2451 37.9343C21.2451 38.1169 21.2111 38.262 21.1431 38.3694C21.075 38.4732 20.9837 38.552 20.8691 38.6057C20.7581 38.6594 20.631 38.6934 20.4878 38.7078C20.3446 38.7221 20.1995 38.7292 20.0527 38.7292H18.5273C18.3376 38.7292 18.1693 38.7221 18.0225 38.7078C17.8757 38.6934 17.7503 38.6594 17.6465 38.6057C17.5462 38.552 17.4692 38.4732 17.4155 38.3694C17.3618 38.262 17.335 38.1169 17.335 37.9343V32.4451ZM23.8943 35.4851H25.6023L24.8074 32.6062H24.6893L23.8943 35.4851ZM27.2674 36.0115C27.2745 36.255 27.2835 36.5038 27.2942 36.7581C27.305 37.0123 27.3104 37.2576 27.3104 37.4939V37.655C27.3104 37.7911 27.305 37.9236 27.2942 38.0525C27.2871 38.1778 27.2602 38.2924 27.2137 38.3962C27.1671 38.4965 27.0937 38.5771 26.9935 38.6379C26.8932 38.6988 26.7518 38.7292 26.5691 38.7292C26.3829 38.7292 26.2397 38.6988 26.1395 38.6379C26.0392 38.5771 25.964 38.4965 25.9139 38.3962C25.8673 38.296 25.8387 38.1814 25.8279 38.0525C25.8208 37.9236 25.8172 37.7911 25.8172 37.655V36.9031H23.6688V37.655C23.6688 37.7911 23.6634 37.9236 23.6526 38.0525C23.6455 38.1814 23.6168 38.296 23.5667 38.3962C23.5202 38.4965 23.4467 38.5771 23.3465 38.6379C23.2462 38.6988 23.103 38.7292 22.9168 38.7292C22.7306 38.7292 22.5874 38.6988 22.4871 38.6379C22.3868 38.5771 22.3134 38.4965 22.2669 38.3962C22.2203 38.2924 22.1935 38.1778 22.1863 38.0525C22.1792 37.9236 22.1756 37.7911 22.1756 37.655V37.4939C22.1756 37.3829 22.1756 37.2647 22.1756 37.1394C22.1792 37.0141 22.1827 36.887 22.1863 36.7581C22.1899 36.6292 22.1935 36.502 22.1971 36.3767C22.2007 36.2478 22.2042 36.1261 22.2078 36.0115C22.3868 35.3884 22.5748 34.7582 22.7718 34.1208C22.9687 33.4799 23.1567 32.8461 23.3357 32.2195C23.3716 32.087 23.4145 31.9599 23.4646 31.8381C23.5148 31.7128 23.581 31.6054 23.6634 31.5159C23.7457 31.4228 23.8514 31.3494 23.9803 31.2957C24.1092 31.2384 24.2739 31.2097 24.4744 31.2097H25.0115C25.2085 31.2097 25.3714 31.2384 25.5003 31.2957C25.6328 31.3494 25.7402 31.4228 25.8226 31.5159C25.9049 31.6054 25.9694 31.7128 26.0159 31.8381C26.066 31.9599 26.1108 32.087 26.1502 32.2195L27.2674 36.0115ZM30.8941 31.1667C31.288 31.1667 31.6264 31.2115 31.9093 31.301C32.1957 31.3905 32.4356 31.5069 32.629 31.6501C32.8259 31.7934 32.9835 31.9563 33.1017 32.1389C33.2198 32.318 33.3093 32.5006 33.3702 32.6868C33.4347 32.873 33.4758 33.052 33.4937 33.2239C33.5152 33.3958 33.526 33.5444 33.526 33.6697C33.526 33.7234 33.5206 33.7896 33.5099 33.8684C33.5027 33.9436 33.4723 34.017 33.4186 34.0886C33.3648 34.1602 33.2789 34.2211 33.1607 34.2712C33.0462 34.3214 32.8814 34.3464 32.6666 34.3464C32.595 34.3464 32.5055 34.3429 32.398 34.3357C32.2906 34.325 32.1868 34.3017 32.0865 34.2659C31.9863 34.2265 31.9003 34.1728 31.8287 34.1047C31.7571 34.0331 31.7213 33.9347 31.7213 33.8093C31.7213 33.616 31.7088 33.4423 31.6837 33.2883C31.6622 33.1344 31.621 33.0037 31.5602 32.8962C31.4993 32.7888 31.4151 32.7065 31.3077 32.6492C31.2003 32.5919 31.0624 32.5632 30.8941 32.5632C30.7187 32.5632 30.5826 32.6008 30.4859 32.676C30.3928 32.7476 30.3248 32.8264 30.2818 32.9124C30.2317 33.0162 30.2031 33.1326 30.1959 33.2615V36.6667C30.2031 36.8243 30.2317 36.9622 30.2818 37.0803C30.3248 37.1842 30.3928 37.2791 30.4859 37.365C30.5826 37.4509 30.7187 37.4939 30.8941 37.4939C31.0624 37.4939 31.2003 37.4599 31.3077 37.3918C31.4151 37.3202 31.4993 37.2253 31.5602 37.1072C31.621 36.989 31.6622 36.8529 31.6837 36.699C31.7088 36.545 31.7213 36.3839 31.7213 36.2156C31.7213 36.1619 31.7302 36.1064 31.7481 36.0491C31.766 35.9918 31.8072 35.9399 31.8717 35.8933C31.9361 35.8432 32.031 35.802 32.1563 35.7698C32.2817 35.7375 32.4518 35.7214 32.6666 35.7214C32.8814 35.7214 33.0462 35.7465 33.1607 35.7966C33.2789 35.8432 33.3648 35.8987 33.4186 35.9631C33.4723 36.024 33.5027 36.0849 33.5099 36.1458C33.5206 36.203 33.526 36.2406 33.526 36.2585C33.526 36.6524 33.4597 37.0051 33.3272 37.3167C33.1948 37.6246 33.0068 37.886 32.7633 38.1008C32.5234 38.3157 32.2351 38.4804 31.8985 38.595C31.5655 38.706 31.1985 38.7615 30.7975 38.7615C30.733 38.7615 30.6274 38.7561 30.4806 38.7454C30.3373 38.7346 30.1762 38.706 29.9972 38.6594C29.8181 38.6129 29.6337 38.5431 29.4439 38.45C29.2542 38.3569 29.0805 38.2279 28.9229 38.0632C28.769 37.8949 28.6419 37.6873 28.5416 37.4402C28.4413 37.1895 28.3912 36.8852 28.3912 36.5271V33.53C28.3912 33.2364 28.427 32.9768 28.4986 32.7512C28.5702 32.5256 28.6633 32.3305 28.7779 32.1658C28.8961 31.9975 29.0304 31.8578 29.1808 31.7468C29.3312 31.6322 29.4851 31.5374 29.6427 31.4622C30.0079 31.2903 30.4251 31.1918 30.8941 31.1667Z" fill="#193982"/>
</g>
<defs>
<clipPath id="clip0">
<rect width="60" height="60" fill="white"/>
</clipPath>
</defs>
</svg>
