<svg width="61" height="60" viewBox="0 0 61 60" fill="none" xmlns="http://www.w3.org/2000/svg">
<g clip-path="url(#clip0)">
<path d="M59.0889 30.3391C59.7502 29.3091 60.5 28.1418 60.5 26.7609C60.5 25.3801 59.7504 24.2127 59.0889 23.1826C58.6613 22.5168 58.2575 21.8879 58.1318 21.3341C57.997 20.7411 58.0896 19.976 58.1874 19.1659C58.3319 17.9702 58.4957 16.6151 57.9162 15.4136C57.3267 14.1909 56.1534 13.4702 55.1183 12.8344C54.4334 12.4138 53.7868 12.0164 53.4209 11.5581C53.051 11.0946 52.8054 10.3718 52.5452 9.60656C52.1557 8.46023 51.7141 7.16085 50.6606 6.31933C49.6119 5.48167 48.2505 5.33871 47.0493 5.21273C46.2426 5.12812 45.4807 5.04808 44.9411 4.78781C44.4207 4.53656 43.8935 3.99843 43.3352 3.42855C42.4813 2.55679 41.5134 1.56867 40.1784 1.26527C38.8916 0.972534 37.6155 1.43132 36.4897 1.83621C35.7146 2.11488 34.9825 2.37808 34.3627 2.37808C33.7428 2.37808 33.0107 2.11488 32.2355 1.83609C31.1097 1.43132 29.8337 0.972769 28.5468 1.26515C27.212 1.56867 26.2441 2.55679 25.39 3.42843C24.8319 3.9982 24.3048 4.53644 23.7843 4.78757C23.2333 5.05347 22.5583 5.15296 21.8436 5.2582C20.7611 5.41769 19.5342 5.59839 18.4964 6.42738C18.029 6.80062 17.5489 7.54382 17.1928 10.3825C16.8056 10.7612 16.4307 11.0868 16.0592 11.266C15.5196 11.5264 14.7576 11.6065 13.9509 11.6911C12.7497 11.8172 11.3884 11.9599 10.3398 12.7977C9.28613 13.6392 8.84457 14.9387 8.45492 16.0852C8.19488 16.8503 7.94938 17.5731 7.57941 18.0364C7.21355 18.4948 6.5668 18.892 5.88195 19.3127C4.84684 19.9486 3.67355 20.6693 3.08398 21.8918C2.50449 23.0934 2.6682 24.4486 2.81281 25.6443C2.91066 26.4544 3.00312 27.2195 2.86848 27.8125C2.74262 28.3663 2.33879 28.9952 1.91129 29.661C1.24965 30.6909 0.5 31.8585 0.5 33.2393C0.5 34.6201 1.24965 35.7875 1.91105 36.8175C2.33855 37.4834 2.74238 38.1122 2.86824 38.666C3.00301 39.259 2.91043 40.0241 2.81258 40.8342C2.66809 42.0299 2.50426 43.385 3.08375 44.5867C3.67344 45.8092 4.84672 46.5299 5.88184 47.1657C6.56656 47.5863 7.21332 47.9836 7.57918 48.4419C7.94914 48.9054 8.19465 49.6282 8.4548 50.3933C8.84434 51.5398 9.2859 52.8391 10.3395 53.6807C11.3882 54.5183 12.7496 54.6612 13.9508 54.7873C14.7575 54.8719 15.5195 54.9519 16.0591 55.2123C16.5795 55.4634 17.1068 56.0017 17.6649 56.5714C18.5189 57.4432 19.4867 58.4313 20.8216 58.7347C21.1059 58.7994 21.3895 58.8273 21.6712 58.8273C22.6648 58.8273 23.6333 58.4791 24.5104 58.1638C25.2855 57.8851 26.0177 57.6218 26.6376 57.6218C27.2575 57.6218 27.9896 57.885 28.7647 58.1637C29.8906 58.5686 31.1663 59.0272 32.4535 58.7346C33.7883 58.4311 34.7561 57.443 35.6102 56.5713C36.1684 56.0016 36.6956 55.4633 37.2159 55.2122C37.7555 54.9518 38.5175 54.8718 39.3242 54.7871C40.5254 54.6612 41.8868 54.5183 42.9355 53.6805C43.989 52.839 44.4305 51.5396 44.8201 50.3933C45.0802 49.6281 45.3257 48.9053 45.6958 48.4418C45.837 48.2648 46.0201 48.0971 46.2311 47.9335C46.4877 47.9143 46.8223 47.9116 47.174 47.9089C48.4658 47.8987 49.8017 47.8882 50.6605 47.2023C51.714 46.3608 52.1557 45.0613 52.5452 43.915C52.8052 43.1498 53.0507 42.427 53.4208 41.9636C53.7867 41.5052 54.4336 41.108 55.1182 40.6873C56.1534 40.0514 57.3267 39.3307 57.9164 38.1082C58.4957 36.9066 58.332 35.5514 58.1875 34.3557C58.0897 33.5456 57.9971 32.7805 58.1318 32.1877C58.2575 31.6338 58.6613 31.005 59.0889 30.3391ZM43.8641 46.9798C43.2385 47.7635 42.9144 48.7171 42.601 49.6393C42.2871 50.5632 41.9906 51.4359 41.4727 51.8495C40.9599 52.2592 40.0466 52.3549 39.0795 52.4564C38.1087 52.5584 37.1047 52.6637 36.1972 53.1016C35.3078 53.5309 34.6104 54.2428 33.9358 54.9314C33.247 55.6346 32.5962 56.2987 31.9338 56.4494C31.314 56.5902 30.4611 56.2832 29.5576 55.9584C28.6276 55.6241 27.6658 55.2783 26.6375 55.2783C25.6092 55.2783 24.6474 55.624 23.7174 55.9584C22.8138 56.2834 21.9601 56.5903 21.3413 56.4494C20.6787 56.2987 20.0281 55.6345 19.3393 54.9314C18.6648 54.2428 17.9673 53.5308 17.0778 53.1016C16.1703 52.6637 15.1664 52.5582 14.1955 52.4564C13.2284 52.3549 12.3152 52.2591 11.8024 51.8495C11.2845 51.4359 10.9879 50.5632 10.6741 49.6393C10.3607 48.7171 10.0367 47.7635 9.41117 46.9799C8.78961 46.2012 7.93508 45.6763 7.10879 45.1687C6.2743 44.6562 5.48609 44.1721 5.19512 43.5687C4.91363 42.9851 5.02344 42.077 5.13957 41.1156C5.25723 40.1426 5.37887 39.1364 5.15387 38.1469C4.93695 37.192 4.40129 36.3579 3.88332 35.5513C3.34883 34.7188 2.84387 33.9326 2.84387 33.2394C2.84387 32.5464 3.34883 31.76 3.88332 30.9275C4.40129 30.1209 4.93684 29.2868 5.15387 28.3319C5.37875 27.3423 5.25711 26.3361 5.13957 25.3631C5.02332 24.4017 4.91363 23.4936 5.19512 22.91C5.48609 22.3066 6.2743 21.8225 7.10879 21.31C7.93508 20.8023 8.78961 20.2774 9.41117 19.4987C10.0367 18.7151 10.3607 17.7615 10.6741 16.8394C10.988 15.9155 11.2846 15.0428 11.8025 14.6291C12.3152 14.2195 13.2286 14.1237 14.1955 14.0222C15.1664 13.9203 16.1704 13.8149 17.0778 13.3769C17.9673 12.9477 18.6646 12.2357 19.3393 11.5471C20.0281 10.8439 20.6787 10.1797 21.3413 10.029C21.4474 10.0049 21.5602 9.99398 21.6791 9.99398C22.2541 9.99398 22.9686 10.2509 23.7175 10.5202C24.6477 10.8546 25.6093 11.2003 26.6376 11.2003C27.6659 11.2003 28.6277 10.8546 29.5577 10.5202C30.4612 10.1953 31.3141 9.88816 31.9339 10.0291C32.5965 10.1798 33.2471 10.8441 33.9359 11.5472C34.6106 12.2358 35.308 12.9478 36.1975 13.3771C37.1049 13.815 38.109 13.9203 39.0798 14.0222C40.0468 14.1237 40.9602 14.2195 41.4729 14.6291C41.9908 15.0428 42.2873 15.9155 42.6014 16.8394C42.9147 17.7615 43.2386 18.7151 43.8642 19.4987C44.4857 20.2774 45.3403 20.8023 46.1666 21.31C47.0011 21.8225 47.7893 22.3066 48.0802 22.91C48.3616 23.4935 48.2519 24.4017 48.1358 25.3631C48.0181 26.3361 47.8965 27.3423 48.1215 28.3319C48.3384 29.2868 48.8741 30.1209 49.392 30.9275C49.9266 31.76 50.4315 32.5464 50.4315 33.2394C50.4315 33.9325 49.9265 34.7188 49.392 35.5513C48.8741 36.3579 48.3384 37.192 48.1215 38.1469C47.8965 39.1365 48.0181 40.1427 48.1357 41.1157C48.2519 42.0771 48.3617 42.9852 48.0802 43.5687C47.7893 44.1721 47.0011 44.6562 46.1666 45.1687C45.3402 45.6763 44.4856 46.2012 43.8641 46.9798ZM57.1168 29.0727C56.5988 29.8793 56.0632 30.7136 55.8461 31.6684C55.6214 32.658 55.7429 33.6641 55.8605 34.6371C55.9768 35.5985 56.0866 36.5067 55.8051 37.0902C55.5141 37.6936 54.7258 38.1777 53.8914 38.6903C53.0649 39.1979 52.2105 39.7228 51.5889 40.5014C51.1384 41.0659 50.8442 41.7185 50.5978 42.384C50.5857 41.8548 50.5224 41.3307 50.4624 40.8342C50.3645 40.0241 50.272 39.2589 50.4066 38.6659C50.5325 38.1121 50.9364 37.4831 51.3639 36.8174C52.0254 35.7873 52.775 34.6199 52.775 33.2392C52.775 31.8584 52.0254 30.6909 51.3639 29.6609C50.9364 28.995 50.5325 28.3662 50.4066 27.8122C50.272 27.2193 50.3645 26.4541 50.4624 25.6441C50.6069 24.4485 50.7707 23.0933 50.1911 21.8918C49.6016 20.6692 48.4283 19.9485 47.393 19.3127C46.7082 18.8921 46.0616 18.4948 45.6957 18.0366C45.3259 17.5731 45.0802 16.8504 44.8202 16.0853C44.4305 14.9388 43.989 13.6393 42.9353 12.7978C41.8868 11.96 40.5254 11.8172 39.3242 11.6911C38.5175 11.6065 37.7555 11.5264 37.216 11.2662C36.6956 11.0149 36.1684 10.4768 35.6101 9.90691C34.7561 9.03515 33.7883 8.04703 32.4533 7.74351C31.1666 7.45089 29.8904 7.90968 28.7646 8.31445C27.9895 8.59312 27.2573 8.85632 26.6375 8.85632C26.0177 8.85632 25.2854 8.59312 24.5103 8.31445C23.6408 8.00191 22.6816 7.65714 21.697 7.65105C21.855 7.6255 22.0177 7.6016 22.1848 7.57699C23.0025 7.45664 23.9289 7.32011 24.8026 6.89847C25.6919 6.46921 26.3895 5.7573 27.0639 5.06871C27.7528 4.36558 28.4034 3.70136 29.066 3.55066C29.685 3.41027 30.5386 3.71683 31.4422 4.04167C32.3721 4.37613 33.3339 4.72183 34.3623 4.72183C35.3906 4.72183 36.3522 4.37613 37.2822 4.04167C38.186 3.71671 39.04 3.40968 39.6583 3.55066C40.321 3.70136 40.9716 4.36558 41.6605 5.06871C42.3351 5.7573 43.0325 6.46933 43.9221 6.89859C44.8295 7.33652 45.8335 7.44187 46.8043 7.54371C47.7713 7.64519 48.6847 7.74105 49.1975 8.15062C49.7154 8.56418 50.0118 9.43675 50.3258 10.3608C50.6393 11.283 50.9633 12.2366 51.5888 13.0203C52.2104 13.7991 53.0649 14.3239 53.8912 14.8315C54.7256 15.3441 55.5139 15.8282 55.8049 16.4317C56.0863 17.0153 55.9766 17.9234 55.8603 18.8848C55.7427 19.8578 55.6211 20.8638 55.8459 21.8535C56.0629 22.8083 56.5986 23.6425 57.1166 24.4491C57.6511 25.2816 58.156 26.0678 58.156 26.7609C58.1562 27.454 57.6513 28.2402 57.1168 29.0727Z" fill="#E31E22"/>
<path d="M27.1811 49.3876C35.9176 49.3876 42.9999 42.3053 42.9999 33.5688C42.9999 24.8323 35.9176 17.75 27.1811 17.75C18.4446 17.75 11.3623 24.8323 11.3623 33.5688C11.3623 42.3053 18.4446 49.3876 27.1811 49.3876Z" fill="#193982"/>
<path d="M33.4415 34.2117H33.3305C33.3425 32.1285 33.3487 29.9021 33.323 29.5926C33.265 28.8942 32.8456 28.3249 32.2543 28.1425C31.668 27.9615 31.0456 28.1891 30.5892 28.7514C30.0963 29.3588 27.8214 33.4772 27.136 34.7249C26.9675 35.0316 26.9734 35.4044 27.1516 35.7056C27.3298 36.0067 27.6537 36.1914 28.0035 36.1914H31.3374C31.3334 36.7466 31.3291 37.2789 31.325 37.7597C31.3204 38.3064 31.7597 38.7533 32.3064 38.758C32.3093 38.7581 32.3122 38.7581 32.3151 38.7581C32.8577 38.7581 33.3001 38.3205 33.3047 37.7768C33.3072 37.4799 33.312 36.905 33.3173 36.1914H33.4414C33.9881 36.1914 34.4312 35.7482 34.4312 35.2015C34.4313 34.6548 33.9881 34.2117 33.4415 34.2117ZM31.3504 34.2117H29.6822C30.3009 33.1004 30.9042 32.0342 31.3615 31.2478C31.3611 32.06 31.3567 33.1164 31.3504 34.2117Z" fill="white"/>
<path d="M25.6658 37.0545C24.7953 37.0655 23.8718 37.0727 23.1059 37.0742C23.5867 36.4285 24.2555 35.5109 25.1599 34.2133C25.7135 33.4189 26.0745 32.6682 26.2329 31.982C26.27 31.8252 26.301 31.5267 26.3011 31.4231C26.3029 29.6502 24.863 28.208 23.0954 28.208C21.5667 28.208 20.2437 29.2988 19.9497 30.8018C19.8448 31.3383 20.1946 31.8583 20.7312 31.9632C21.2676 32.0681 21.7877 31.7182 21.8926 31.1817C22.0053 30.6057 22.5111 30.1877 23.0954 30.1877C23.7536 30.1877 24.2922 30.713 24.3202 31.3694L24.2932 31.5808C24.1853 32.0102 23.9306 32.5149 23.5356 33.0815C22.164 35.0496 21.3454 36.1259 20.9058 36.7042C20.3625 37.4185 20.1146 37.7446 20.2832 38.292C20.3823 38.6136 20.6258 38.8606 20.9513 38.9694C21.0836 39.0138 21.2105 39.0563 22.8942 39.0563C23.555 39.0563 24.4559 39.0497 25.6906 39.0341C26.2372 39.0273 26.6748 38.5784 26.6679 38.0318C26.6612 37.4852 26.2107 37.0489 25.6658 37.0545Z" fill="white"/>
</g>
<defs>
<clipPath id="clip0">
<rect width="60" height="60" fill="white" transform="translate(0.5)"/>
</clipPath>
</defs>
</svg>
