<svg width="60" height="60" viewBox="0 0 60 60" fill="none" xmlns="http://www.w3.org/2000/svg">
<g clip-path="url(#clip0)">
<path d="M29.9998 60C29.6014 60 29.2304 59.7975 29.0146 59.4626L23.577 51.0193C18.1735 49.6391 13.287 46.4885 9.77573 42.1104C6.10835 37.5376 4.08862 31.7845 4.08862 25.9111C4.08862 18.99 6.78394 12.4832 11.6779 7.58918C16.5717 2.6952 23.0786 0 29.9998 0C36.921 0 43.4279 2.6952 48.322 7.58918C53.216 12.4832 55.9113 18.99 55.9113 25.9111C55.9113 31.7845 53.8915 37.5376 50.2242 42.1104C46.7128 46.4885 41.8263 49.6391 36.4228 51.0193L30.9853 59.4626C30.7693 59.7975 30.3982 60 29.9998 60ZM29.9998 2.34375C17.0046 2.34375 6.43226 12.9161 6.43226 25.911C6.43226 36.9034 13.8941 46.337 24.578 48.8517C24.8735 48.9213 25.1305 49.1029 25.2948 49.358L29.9998 56.6638L34.7048 49.358C34.8691 49.1027 35.1261 48.9212 35.4215 48.8517C46.1055 46.337 53.5674 36.9034 53.5674 25.911C53.5674 12.9161 42.995 2.34375 29.9998 2.34375Z" fill="#193982"/>
<path d="M29.9998 42.8231C39.3402 42.8231 46.9122 35.2513 46.9122 25.9109C46.9122 16.5706 39.3402 8.99879 29.9998 8.99879C20.6593 8.99879 13.0874 16.5706 13.0874 25.9109C13.0874 35.2513 20.6593 42.8231 29.9998 42.8231Z" fill="#E31E22"/>
<path d="M22.5922 19.2351C22.7836 19.2351 22.934 19.2625 23.0434 19.3171C23.1527 19.3679 23.2348 19.4382 23.2895 19.5281C23.348 19.6179 23.3852 19.7234 23.4008 19.8445C23.4164 19.9617 23.4242 20.0867 23.4242 20.2195V23.6882C23.4242 23.825 23.4164 23.9519 23.4008 24.0691C23.3852 24.1863 23.35 24.2898 23.2953 24.3796C23.2406 24.4656 23.1586 24.5339 23.0492 24.5847C22.9398 24.6355 22.7914 24.6609 22.6039 24.6609C22.4203 24.6609 22.2738 24.6375 22.1645 24.5906C22.0551 24.5398 21.9711 24.4734 21.9125 24.3914C21.8539 24.3093 21.8148 24.2117 21.7953 24.0984C21.7797 23.9851 21.7719 23.864 21.7719 23.7351V22.6921H19.768C19.5258 22.6921 19.3266 22.6726 19.1703 22.6335C19.0141 22.5945 18.8891 22.5437 18.7953 22.4812C18.7055 22.4148 18.641 22.3386 18.602 22.2527C18.5668 22.1667 18.5492 22.0789 18.5492 21.989C18.5492 21.9421 18.5531 21.8953 18.5609 21.8484C18.5727 21.8015 18.5844 21.7546 18.5961 21.7078L19.7797 17.5945C19.8188 17.45 19.8559 17.3093 19.891 17.1726C19.9301 17.0359 19.9809 16.9148 20.0434 16.8093C20.1098 16.7039 20.1996 16.6199 20.3129 16.5574C20.4262 16.491 20.5805 16.4578 20.7758 16.4578C20.9164 16.4578 21.0316 16.4773 21.1215 16.5164C21.2152 16.5554 21.2895 16.6082 21.3441 16.6746C21.3988 16.7371 21.4359 16.8113 21.4555 16.8972C21.4789 16.9792 21.4906 17.0671 21.4906 17.1609C21.4906 17.2546 21.4828 17.3503 21.4672 17.448C21.4516 17.5417 21.432 17.6296 21.4086 17.7117C21.3891 17.7937 21.3676 17.8679 21.3441 17.9343C21.3246 17.9968 21.3109 18.0437 21.3031 18.075C21.3031 18.075 21.2914 18.1179 21.268 18.2039C21.2445 18.2859 21.2133 18.3953 21.1742 18.532C21.1352 18.6648 21.0922 18.8191 21.0453 18.9949C20.9984 19.1667 20.9496 19.3425 20.8988 19.5222C20.7777 19.9441 20.643 20.4226 20.4945 20.9578L20.5414 21.0046H21.7719V20.2078C21.7719 20.075 21.7797 19.95 21.7953 19.8328C21.8109 19.7156 21.8461 19.614 21.9008 19.5281C21.9555 19.4382 22.0375 19.3679 22.1469 19.3171C22.2563 19.2625 22.4047 19.2351 22.5922 19.2351ZM24.7844 18.8015C24.7844 18.4226 24.8371 18.1003 24.9426 17.8347C25.052 17.5652 25.1906 17.3425 25.3586 17.1667C25.5266 16.991 25.7121 16.8523 25.9152 16.7507C26.1184 16.6492 26.3156 16.573 26.507 16.5222C26.7023 16.4714 26.8762 16.4402 27.0285 16.4285C27.1848 16.4167 27.3 16.4109 27.3742 16.4109H27.5734C27.6477 16.4109 27.7629 16.4167 27.9191 16.4285C28.0754 16.4402 28.2473 16.4714 28.4348 16.5222C28.6262 16.573 28.8215 16.6492 29.0207 16.7507C29.2238 16.8523 29.4074 16.991 29.5715 17.1667C29.7395 17.3425 29.8762 17.5652 29.9816 17.8347C30.0871 18.1003 30.1398 18.4226 30.1398 18.8015V22.2585C30.1398 22.6492 30.0871 22.9812 29.9816 23.2546C29.8762 23.5281 29.7395 23.7566 29.5715 23.9402C29.4074 24.1199 29.2238 24.2605 29.0207 24.3621C28.8215 24.4636 28.6262 24.5417 28.4348 24.5964C28.2473 24.6472 28.0754 24.6785 27.9191 24.6902C27.7629 24.7019 27.6477 24.7078 27.5734 24.7078H27.3742C27.3 24.7078 27.1848 24.7019 27.0285 24.6902C26.8762 24.6785 26.7023 24.6472 26.507 24.5964C26.3156 24.5417 26.1184 24.4636 25.9152 24.3621C25.7121 24.2605 25.5266 24.1199 25.3586 23.9402C25.1906 23.7566 25.052 23.5281 24.9426 23.2546C24.8371 22.9812 24.7844 22.6492 24.7844 22.2585V18.8015ZM26.7063 22.5632C26.718 22.7 26.7551 22.821 26.8176 22.9265C26.8684 23.0164 26.9445 23.1003 27.0461 23.1785C27.1516 23.2527 27.2961 23.2898 27.4797 23.2898C27.6594 23.2898 27.8 23.2527 27.9016 23.1785C28.0031 23.1003 28.0793 23.0164 28.1301 22.9265C28.1887 22.821 28.2258 22.7 28.2414 22.5632V18.6023C28.2258 18.4656 28.1887 18.3445 28.1301 18.239C28.0793 18.1492 28.0031 18.0671 27.9016 17.9929C27.8 17.9148 27.6594 17.8757 27.4797 17.8757C27.2961 17.8757 27.1516 17.9148 27.0461 17.9929C26.9445 18.0671 26.8684 18.1492 26.8176 18.239C26.7551 18.3445 26.718 18.4656 26.7063 18.6023V22.5632ZM33.0469 19.0242C32.918 19.1414 32.7773 19.2332 32.625 19.2996C32.4727 19.366 32.293 19.3992 32.0859 19.3992C31.9688 19.3992 31.8594 19.3777 31.7578 19.3347C31.6602 19.2878 31.5762 19.2273 31.5059 19.1531C31.4355 19.075 31.3789 18.9871 31.3359 18.8894C31.2969 18.7917 31.2773 18.6882 31.2773 18.5789C31.2773 18.4695 31.2949 18.3757 31.3301 18.2976C31.3652 18.2156 31.4141 18.1453 31.4766 18.0867C31.5391 18.0281 31.6113 17.9753 31.6934 17.9285C31.7754 17.8816 31.8633 17.8328 31.957 17.782C32.1523 17.6531 32.3262 17.5222 32.4785 17.3894C32.6348 17.2566 32.7734 17.1335 32.8945 17.0203C33.0156 16.9031 33.1211 16.8035 33.2109 16.7214C33.3008 16.6394 33.3789 16.5828 33.4453 16.5515C33.4844 16.532 33.5195 16.5164 33.5508 16.5046C33.5859 16.489 33.6211 16.4792 33.6562 16.4753C33.6914 16.4675 33.7305 16.4636 33.7734 16.4636C33.8164 16.4597 33.8711 16.4578 33.9375 16.4578C34.1406 16.4578 34.3008 16.4988 34.418 16.5808C34.5391 16.6628 34.6289 16.7703 34.6875 16.9031C34.75 17.032 34.7891 17.1785 34.8047 17.3425C34.8203 17.5066 34.8281 17.6726 34.8281 17.8406V23.2781C34.8281 23.45 34.8203 23.6199 34.8047 23.7878C34.7891 23.9519 34.75 24.0984 34.6875 24.2273C34.6289 24.3562 34.5391 24.4617 34.418 24.5437C34.3008 24.6218 34.1406 24.6609 33.9375 24.6609C33.7305 24.6609 33.5684 24.6218 33.4512 24.5437C33.334 24.4617 33.2441 24.3562 33.1816 24.2273C33.123 24.0984 33.0859 23.9519 33.0703 23.7878C33.0547 23.6199 33.0469 23.45 33.0469 23.2781V19.0242ZM36.6219 17.7585C36.6219 17.5945 36.6277 17.4343 36.6395 17.2781C36.6512 17.1218 36.6844 16.9832 36.7391 16.8621C36.7938 16.741 36.8758 16.6433 36.9852 16.5691C37.0984 16.4949 37.2547 16.4578 37.4539 16.4578C37.657 16.4578 37.8133 16.4949 37.9227 16.5691C38.0359 16.6433 38.118 16.741 38.1688 16.8621C38.2234 16.9832 38.2566 17.1218 38.2684 17.2781C38.2801 17.4343 38.2859 17.5945 38.2859 17.7585V20.0671H38.3797L39.5867 18.6492C39.657 18.5671 39.7391 18.5085 39.8328 18.4734C39.9266 18.4343 40.0242 18.4148 40.1258 18.4148C40.2234 18.4148 40.3211 18.4343 40.4188 18.4734C40.5203 18.5085 40.6082 18.5613 40.6824 18.6316C40.7605 18.698 40.823 18.78 40.8699 18.8777C40.9207 18.9714 40.9461 19.0789 40.9461 19.2C40.9461 19.3562 40.8914 19.5007 40.782 19.6335L39.7273 20.8757L40.8758 23.0671C40.9461 23.2078 41.0066 23.3503 41.0574 23.4949C41.1082 23.6355 41.1336 23.7703 41.1336 23.8992C41.1336 24.0242 41.1063 24.1355 41.0516 24.2332C40.9969 24.3308 40.9246 24.4128 40.8348 24.4792C40.7488 24.5417 40.6512 24.5906 40.5418 24.6257C40.4363 24.657 40.3328 24.6726 40.2313 24.6726C40.1023 24.6726 39.9871 24.6414 39.8855 24.5789C39.784 24.5164 39.6941 24.4402 39.616 24.3503C39.5418 24.2566 39.4754 24.157 39.4168 24.0515C39.3582 23.946 39.3094 23.8484 39.2703 23.7585L38.6141 22.364H38.2859V23.3484C38.2859 23.5125 38.2801 23.6746 38.2684 23.8347C38.2566 23.991 38.2234 24.1316 38.1688 24.2566C38.118 24.3777 38.0359 24.4753 37.9227 24.5496C37.8133 24.6238 37.657 24.6609 37.4539 24.6609C37.2547 24.6609 37.0984 24.6238 36.9852 24.5496C36.8758 24.4753 36.7938 24.3777 36.7391 24.2566C36.6844 24.1316 36.6512 23.991 36.6395 23.8347C36.6277 23.6746 36.6219 23.5125 36.6219 23.3484V17.7585ZM21.2684 33.4265V35.325C21.2684 35.4929 21.2625 35.657 21.2508 35.8171C21.243 35.9773 21.2098 36.1199 21.1512 36.2449C21.0965 36.3699 21.0086 36.4714 20.8875 36.5496C20.7664 36.6238 20.5926 36.6609 20.366 36.6609C20.1473 36.6609 19.9773 36.6238 19.8562 36.5496C19.7391 36.4714 19.6531 36.3699 19.5984 36.2449C19.5437 36.1199 19.5105 35.9773 19.4988 35.8171C19.491 35.657 19.4871 35.4929 19.4871 35.325V29.7937C19.4871 29.6257 19.491 29.4617 19.4988 29.3015C19.5105 29.1414 19.5437 28.9988 19.5984 28.8738C19.6531 28.7488 19.7391 28.6492 19.8562 28.575C19.9773 28.4968 20.1473 28.4578 20.366 28.4578H22.2996C22.784 28.4812 23.2176 28.5828 23.6004 28.7625C23.7645 28.8406 23.9227 28.9382 24.075 29.0554C24.2312 29.1726 24.3699 29.3171 24.491 29.489C24.616 29.657 24.7156 29.8582 24.7898 30.0925C24.8641 30.323 24.9012 30.5906 24.9012 30.8953C24.9012 31.3132 24.8348 31.6804 24.702 31.9968C24.573 32.3093 24.3836 32.573 24.1336 32.7878C23.8875 32.9988 23.5848 33.1589 23.2254 33.2683C22.8699 33.3738 22.4676 33.4265 22.0184 33.4265H21.2684ZM22.0652 32.032C22.2605 32.0203 22.4363 31.9734 22.5926 31.8914C22.659 31.8562 22.7234 31.8113 22.7859 31.7566C22.8484 31.7019 22.9051 31.6355 22.9559 31.5574C23.0066 31.4753 23.0457 31.3796 23.073 31.2703C23.1043 31.1609 23.1199 31.0359 23.1199 30.8953C23.1199 30.7625 23.1043 30.6472 23.073 30.5496C23.0457 30.448 23.0086 30.3621 22.9617 30.2917C22.9148 30.2175 22.8621 30.155 22.8035 30.1042C22.7449 30.0535 22.6844 30.0105 22.6219 29.9753C22.4734 29.9011 22.3074 29.8562 22.1238 29.8406H21.2684V32.032H22.0652ZM26.0152 29.7585C26.0152 29.5945 26.023 29.4343 26.0387 29.2781C26.0582 29.1218 26.0992 28.9832 26.1617 28.8621C26.2242 28.741 26.3141 28.6433 26.4312 28.5691C26.5484 28.4949 26.7066 28.4578 26.9059 28.4578C27.109 28.4578 27.2691 28.4949 27.3863 28.5691C27.5035 28.6433 27.5914 28.741 27.65 28.8621C27.7125 28.9832 27.7516 29.1218 27.7672 29.2781C27.7867 29.4343 27.7965 29.5945 27.7965 29.7585V35.3484C27.7965 35.5125 27.7867 35.6746 27.7672 35.8347C27.7516 35.991 27.7125 36.1316 27.65 36.2566C27.5914 36.3777 27.5035 36.4753 27.3863 36.5496C27.2691 36.6238 27.109 36.6609 26.9059 36.6609C26.7066 36.6609 26.5484 36.6238 26.4312 36.5496C26.3141 36.4753 26.2242 36.3777 26.1617 36.2566C26.0992 36.1316 26.0582 35.991 26.0387 35.8347C26.023 35.6746 26.0152 35.5125 26.0152 35.3484V29.7585ZM34.1723 35.3367C34.1723 35.5007 34.1664 35.6628 34.1547 35.823C34.143 35.9792 34.1078 36.1199 34.0492 36.2449C33.9906 36.3699 33.9027 36.4714 33.7855 36.5496C33.6684 36.6238 33.5043 36.6609 33.2934 36.6609C33.0785 36.6609 32.9105 36.6257 32.7895 36.5554C32.6684 36.4812 32.5785 36.3933 32.5199 36.2917C32.4613 36.1863 32.4242 36.0769 32.4086 35.9636C32.3969 35.8503 32.391 35.7546 32.391 35.6765C32.3559 35.7898 32.3051 35.905 32.2387 36.0222C32.1762 36.1394 32.0941 36.2449 31.9926 36.3386C31.891 36.4324 31.768 36.5105 31.6234 36.573C31.4828 36.6316 31.3168 36.6609 31.1254 36.6609C30.9105 36.6609 30.6957 36.6257 30.4809 36.5554C30.266 36.4851 30.0727 36.3679 29.9008 36.2039C29.7289 36.0398 29.5883 35.8269 29.4789 35.5652C29.3734 35.2996 29.3207 34.9734 29.3207 34.5867V32.8875C29.3207 32.4968 29.3734 32.1707 29.4789 31.9089C29.5883 31.6433 29.7289 31.4304 29.9008 31.2703C30.0727 31.1062 30.266 30.989 30.4809 30.9187C30.6957 30.8484 30.9105 30.8132 31.1254 30.8132C31.3168 30.8132 31.4828 30.8425 31.6234 30.9011C31.768 30.9597 31.891 31.0359 31.9926 31.1296C32.0941 31.2234 32.1762 31.3289 32.2387 31.446C32.3051 31.5632 32.3559 31.6804 32.391 31.7976C32.391 31.6023 32.4184 31.4402 32.473 31.3113C32.5277 31.1824 32.598 31.0808 32.684 31.0066C32.7699 30.9285 32.8656 30.8757 32.9711 30.8484C33.0805 30.8171 33.1879 30.8015 33.2934 30.8015C33.4887 30.8015 33.6449 30.8406 33.7621 30.9187C33.8793 30.9929 33.9672 31.0925 34.0258 31.2175C34.0883 31.3386 34.1273 31.4812 34.143 31.6453C34.1625 31.8054 34.1723 31.9695 34.1723 32.1375V35.3367ZM31.1254 34.4343C31.1254 34.5398 31.1293 34.6433 31.1371 34.7449C31.1449 34.8464 31.1664 34.9382 31.2016 35.0203C31.2367 35.1023 31.2875 35.1687 31.3539 35.2195C31.4242 35.2664 31.5199 35.2898 31.641 35.2898C31.7934 35.2898 31.9164 35.2566 32.0102 35.1902C32.1078 35.1199 32.184 35.0144 32.2387 34.8738C32.2934 34.7292 32.3305 34.5496 32.35 34.3347C32.3734 34.116 32.3871 33.8562 32.391 33.5554C32.391 33.4343 32.3793 33.2957 32.3559 33.1394C32.3363 32.9792 32.2992 32.8289 32.2445 32.6882C32.1898 32.5476 32.1137 32.4285 32.016 32.3308C31.9184 32.2332 31.7934 32.1843 31.641 32.1843C31.5199 32.1843 31.4242 32.2097 31.3539 32.2605C31.2875 32.3074 31.2367 32.3699 31.2016 32.448C31.1664 32.5261 31.1449 32.616 31.1371 32.7175C31.1293 32.8152 31.1254 32.9148 31.1254 33.0164V34.4343ZM40.6652 35.325C40.6652 35.4929 40.6555 35.657 40.6359 35.8171C40.6164 35.9773 40.5734 36.1199 40.507 36.2449C40.4445 36.3699 40.3527 36.4714 40.2316 36.5496C40.1145 36.6238 39.9543 36.6609 39.7512 36.6609C39.552 36.6609 39.3937 36.6238 39.2766 36.5496C39.1594 36.4714 39.0695 36.3699 39.007 36.2449C38.9445 36.1199 38.9035 35.9773 38.884 35.8171C38.8684 35.657 38.8605 35.4929 38.8605 35.325V33.0398C38.8605 32.9304 38.8547 32.823 38.843 32.7175C38.8352 32.6121 38.8137 32.5203 38.7785 32.4421C38.7434 32.3601 38.6906 32.2957 38.6203 32.2488C38.5539 32.198 38.4621 32.1726 38.3449 32.1726C38.1848 32.1726 38.0559 32.2253 37.9582 32.3308C37.8605 32.4363 37.7824 32.5808 37.7238 32.7644C37.6691 32.948 37.632 33.1648 37.6125 33.4148C37.593 33.6609 37.5832 33.9265 37.5832 34.2117V35.325C37.5832 35.4929 37.5734 35.657 37.5539 35.8171C37.5344 35.9773 37.4914 36.1199 37.425 36.2449C37.3625 36.3699 37.2707 36.4714 37.1496 36.5496C37.0324 36.6238 36.8723 36.6609 36.6691 36.6609C36.4699 36.6609 36.3117 36.6238 36.1945 36.5496C36.0773 36.4714 35.9875 36.3699 35.925 36.2449C35.8625 36.1199 35.8215 35.9773 35.802 35.8171C35.7863 35.657 35.7785 35.4929 35.7785 35.325V32.1257C35.7785 31.9578 35.7844 31.7957 35.7961 31.6394C35.8078 31.4792 35.843 31.3386 35.9016 31.2175C35.9602 31.0925 36.048 30.9929 36.1652 30.9187C36.2863 30.8406 36.4543 30.8015 36.6691 30.8015C36.884 30.8015 37.052 30.8386 37.173 30.9128C37.2941 30.9832 37.384 31.0691 37.4426 31.1707C37.5051 31.2722 37.5441 31.3796 37.5598 31.4929C37.5754 31.6062 37.5832 31.7039 37.5832 31.7859C37.6145 31.6726 37.6633 31.5574 37.7297 31.4402C37.7961 31.323 37.8801 31.2175 37.9816 31.1238C38.0871 31.03 38.2121 30.9539 38.3566 30.8953C38.5012 30.8328 38.6691 30.8015 38.8605 30.8015C39.0754 30.8015 39.2902 30.8367 39.5051 30.907C39.7199 30.9773 39.9133 31.0945 40.0852 31.2585C40.257 31.4226 40.3957 31.6375 40.5012 31.9031C40.6105 32.1687 40.6652 32.4968 40.6652 32.8875V35.325Z" fill="white"/>
</g>
<defs>
<clipPath id="clip0">
<rect width="60" height="60" fill="white"/>
</clipPath>
</defs>
</svg>
