<svg width="61" height="60" viewBox="0 0 61 60" fill="none" xmlns="http://www.w3.org/2000/svg">
<path d="M26.1148 60.0001C22.7064 60.0001 19.9333 57.2279 19.9333 53.8203V41.8491C19.9333 41.202 20.458 40.6773 21.1052 40.6773C21.7525 40.6773 22.2771 41.202 22.2771 41.8491V53.8202C22.2771 55.9354 23.9986 57.6562 26.1148 57.6562C28.2309 57.6562 29.9524 55.9353 29.9524 53.8202V40.2053C29.9524 37.8517 31.8676 35.937 34.2218 35.937C36.576 35.937 38.4912 37.8517 38.4912 40.2053V47.1967C38.4912 50.0142 40.7842 52.3064 43.6028 52.3064C46.4214 52.3064 48.7144 50.0142 48.7144 47.1967V27.2449C48.7144 26.5978 49.239 26.073 49.8862 26.073C50.5335 26.073 51.0581 26.5978 51.0581 27.2449V47.1967C51.0581 51.3065 47.7136 54.6501 43.6028 54.6501C39.4919 54.6501 36.1474 51.3066 36.1474 47.1967V40.2053C36.1474 39.1441 35.2836 38.2808 34.2218 38.2808C33.16 38.2808 32.2962 39.1441 32.2962 40.2053V53.8203C32.2962 57.2279 29.5232 60.0001 26.1148 60.0001Z" fill="#E31E22"/>
<path d="M21.1052 43.027C23.0646 43.027 24.6531 41.4391 24.6531 39.4803C24.6531 37.5215 23.0646 35.9336 21.1052 35.9336C19.1458 35.9336 17.5574 37.5215 17.5574 39.4803C17.5574 41.4391 19.1458 43.027 21.1052 43.027Z" fill="#193982"/>
<path d="M37.7357 12.1545H36.5498V2.89793C36.5498 2.25082 36.0251 1.72605 35.3779 1.72605H28.8455V1.17187C28.8455 0.524766 28.3209 0 27.6736 0C27.0264 0 26.5017 0.524766 26.5017 1.17187V4.62375C26.5017 5.27086 27.0264 5.79562 27.6736 5.79562C28.3209 5.79562 28.8455 5.27086 28.8455 4.62375V4.06969H34.206V12.1543H33.0202C32.373 12.1543 31.8483 12.6791 31.8483 13.3262V18.8962C31.8483 24.818 27.0289 29.6358 21.1049 29.6358C15.1811 29.6358 10.3616 24.8181 10.3616 18.8962V13.3262C10.3616 12.6791 9.83698 12.1543 9.18976 12.1543H8.00393V4.0698H13.3644V4.62387C13.3644 5.27098 13.8891 5.79574 14.5363 5.79574C15.1835 5.79574 15.7082 5.27098 15.7082 4.62387V1.17187C15.7082 0.524766 15.1835 0 14.5363 0C13.8891 0 13.3644 0.524766 13.3644 1.17187V1.72605H6.83206C6.18483 1.72605 5.66019 2.25082 5.66019 2.89793V12.1545H4.47437C3.82714 12.1545 3.30249 12.6792 3.30249 13.3263V18.8964C3.30249 28.7098 11.2887 36.6935 21.105 36.6935C30.9214 36.6935 38.9076 28.7098 38.9076 18.8964V13.3263C38.9076 12.6791 38.3829 12.1545 37.7357 12.1545ZM36.5638 18.8964C36.5638 27.4174 29.629 34.3498 21.105 34.3498C12.581 34.3498 5.64624 27.4174 5.64624 18.8964V14.4982H8.01788V18.8964C8.01788 26.1105 13.8887 31.9796 21.1049 31.9796C28.3211 31.9796 34.1921 26.1105 34.1921 18.8964V14.4982H36.5638V18.8964Z" fill="#193982"/>
<path d="M49.8858 27.7941C54.2 27.7941 57.6974 24.2979 57.6974 19.985C57.6974 15.6722 54.2 12.176 49.8858 12.176C45.5716 12.176 42.0742 15.6722 42.0742 19.985C42.0742 24.2979 45.5716 27.7941 49.8858 27.7941Z" fill="#E31E22"/>
<path d="M49.8859 23.7343C47.818 23.7343 46.1357 22.0523 46.1357 19.9849C46.1357 17.9175 47.8181 16.2356 49.8859 16.2356C51.9536 16.2356 53.636 17.9176 53.636 19.9849C53.636 22.0524 51.9536 23.7343 49.8859 23.7343ZM49.8859 18.5793C49.1103 18.5793 48.4795 19.2099 48.4795 19.9849C48.4795 20.76 49.1104 21.3906 49.8859 21.3906C50.6613 21.3906 51.2922 20.76 51.2922 19.9849C51.2922 19.2099 50.6613 18.5793 49.8859 18.5793Z" fill="white"/>
</svg>
