<svg width="40" height="41" viewBox="0 0 40 41" fill="none" xmlns="http://www.w3.org/2000/svg">
<circle cx="20" cy="20.8218" r="20" fill="#ECF3FF"/>
<path fill-rule="evenodd" clip-rule="evenodd" d="M27.9428 24.7627C27.9008 25.7164 27.7406 26.2315 27.6071 26.5748C27.2791 27.4256 26.604 28.1008 25.7534 28.429C25.4102 28.5625 24.8915 28.7227 23.9417 28.7646C22.9119 28.8105 22.6031 28.8218 19.9981 28.8218C17.393 28.8218 17.0803 28.8105 16.0542 28.7646C15.1007 28.7227 14.5858 28.5625 14.2426 28.429C13.8193 28.2725 13.434 28.0245 13.1213 27.7002C12.7971 27.3836 12.5492 27.0021 12.3927 26.5787C12.2592 26.2353 12.0991 25.7164 12.0572 24.7666C12.0113 23.7365 12 23.4274 12 20.8218C12 18.2161 12.0113 17.9033 12.0572 16.8771C12.0991 15.9234 12.2592 15.4084 12.3927 15.065C12.5492 14.6415 12.7971 14.2563 13.1251 13.9433C13.4416 13.6191 13.823 13.3711 14.2464 13.2148C14.5897 13.0812 15.1085 12.921 16.0581 12.879C17.0879 12.8333 17.3969 12.8218 20.0018 12.8218C22.6107 12.8218 22.9195 12.8333 23.9456 12.879C24.8991 12.921 25.414 13.0812 25.7573 13.2148C26.1806 13.3711 26.5659 13.6191 26.8786 13.9433C27.2028 14.26 27.4507 14.6415 27.6071 15.065C27.7406 15.4084 27.9008 15.9271 27.9428 16.8771C27.9885 17.9072 28 18.2161 28 20.8218C28 23.4274 27.9885 23.7326 27.9428 24.7627ZM14.9787 20.8142C14.9787 18.0444 17.2253 15.7975 19.9942 15.7975C22.7633 15.7975 25.0097 18.0444 25.0097 20.8142C25.0097 23.5839 22.7633 25.8309 19.9942 25.8309C17.2253 25.8309 14.9787 23.5839 14.9787 20.8142ZM25.208 16.7703C25.8548 16.7703 26.379 16.2459 26.379 15.5991C26.379 14.9522 25.8548 14.4279 25.208 14.4279C24.5614 14.4279 24.0371 14.9522 24.0371 15.5991C24.0371 16.2459 24.5614 16.7703 25.208 16.7703Z" fill="#1A3A82"/>
<path d="M19.9942 24.0684C18.1979 24.0684 16.7408 22.6111 16.7408 20.8142C16.7408 19.0173 18.1979 17.56 19.9942 17.56C21.7907 17.56 23.2476 19.0173 23.2476 20.8142C23.2476 22.6111 21.7907 24.0684 19.9942 24.0684Z" fill="#1A3A82"/>
</svg>
