<svg width="60" height="60" viewBox="0 0 60 60" fill="none" xmlns="http://www.w3.org/2000/svg">
<path d="M20.3882 12.164H39.612V22.6596H20.3882V12.164Z" fill="#E31E22"/>
<path d="M36.9413 41.4869H33.7448V38.2904C33.7448 37.6432 33.22 37.1185 32.5729 37.1185H27.4267C26.7796 37.1185 26.2549 37.6432 26.2549 38.2904V41.4869H23.0583C22.4112 41.4869 21.8865 42.0116 21.8865 42.6588V47.8051C21.8865 48.4523 22.4112 48.977 23.0583 48.977H26.2549V52.1735C26.2549 52.8207 26.7796 53.3454 27.4267 53.3454H32.5729C33.22 53.3454 33.7448 52.8207 33.7448 52.1735V48.977H36.9413C37.5884 48.977 38.1132 48.4523 38.1132 47.8051V42.6588C38.1132 42.0117 37.5885 41.4869 36.9413 41.4869ZM35.7694 46.6332H32.5729C31.9258 46.6332 31.401 47.1579 31.401 47.8051V51.0016H28.5986V47.8051C28.5986 47.1579 28.0739 46.6332 27.4267 46.6332H24.2302V43.8307H27.4267C28.0739 43.8307 28.5986 43.306 28.5986 42.6588V39.4623H31.401V42.6588C31.401 43.306 31.9258 43.8307 32.5729 43.8307H35.7694V46.6332Z" fill="#193982"/>
<path d="M50.4511 29.7232H49.4881C49.4881 29.7232 49.4877 8.2302 49.4877 8.2227C49.4877 7.73684 49.1516 7.42605 49.1449 7.41926L42.0687 0.343242C41.7586 0.0298828 41.2359 0 41.2353 0H11.6839C11.0368 0 10.512 0.524648 10.512 1.17188V26.2276H7.39282C6.74571 26.2276 6.22095 26.7523 6.22095 27.3995V56.672C6.22095 58.507 7.71392 60 9.54896 60H50.451C52.2861 60 53.779 58.507 53.779 56.672V33.0512C53.7792 31.2162 52.2862 29.7232 50.4511 29.7232ZM45.487 7.07613H42.412V4.00113L45.487 7.07613ZM12.8558 2.34375H40.0682V8.24801C40.0682 8.89524 40.593 9.41988 41.2401 9.41988H47.1443V29.7232H22.7038L20.7083 26.7469C20.4908 26.4223 20.1256 26.2276 19.7349 26.2276H12.8558V2.34375ZM51.4354 56.672C51.4354 57.2147 50.9938 57.6562 50.4511 57.6562H9.54896C9.00614 57.6562 8.5647 57.2147 8.5647 56.672V28.5714H19.1097L21.1053 31.5477C21.3228 31.8723 21.6879 32.067 22.0786 32.067H50.451C50.9938 32.067 51.4353 32.5085 51.4353 33.0512V56.672H51.4354Z" fill="#193982"/>
</svg>
