<svg width="40" height="41" viewBox="0 0 40 41" fill="none" xmlns="http://www.w3.org/2000/svg">
<g clip-path="url(#clip0)">
<path d="M19.9999 0.821777C31.0462 0.821777 40 9.77677 40 20.8218C40 31.8669 31.0462 40.8218 19.9999 40.8218C8.95362 40.8218 0 31.8668 0 20.8218C0 9.77691 8.95376 0.821777 19.9999 0.821777Z" fill="#ECF3FF"/>
<path d="M12.0161 26.8217H15.0155V16.8243H12.0161V26.8217ZM23.7014 16.478C22.2457 16.478 20.9432 17.0096 20.0193 18.1829V16.7914H17.0088V26.8218H20.0193V21.3976C20.0193 20.2513 21.0695 19.133 22.3849 19.133C23.7004 19.133 24.0248 20.2513 24.0248 21.3696V26.8208H27.0243V21.1463C27.0242 17.2048 25.1581 16.478 23.7014 16.478ZM13.5018 15.8252C14.3307 15.8252 15.0035 15.1524 15.0035 14.3234C15.0035 13.4945 14.3307 12.8218 13.5018 12.8218C12.6728 12.8218 12 13.4946 12 14.3235C12 15.1525 12.6728 15.8252 13.5018 15.8252Z" fill="#1A3A82"/>
</g>
<defs>
<clipPath id="clip0">
<rect width="40" height="40" fill="white" transform="translate(0 0.821777)"/>
</clipPath>
</defs>
</svg>
