<svg width="326" height="70" viewBox="0 0 326 70" fill="none" xmlns="http://www.w3.org/2000/svg">
<g clip-path="url(#clip0)">
<path d="M36.8873 23.597C36.8873 23.597 35.7942 23.3537 35.9089 23.5497C36.0236 23.7457 36.6174 23.6308 36.2868 24.2255C35.9562 24.8201 35.2746 26.0838 34.9373 26.0567C34.5999 26.0297 33.6889 24.3809 32.9467 24.7052C32.2045 25.0296 31.9008 25.6648 31.6444 25.5364C31.388 25.408 29.9373 25.0972 29.9373 25.0972C30.7645 24.5148 31.6327 23.9931 32.5351 23.5362C34.5391 22.4685 35.774 22.928 36.8873 23.597Z" fill="url(#paint0_linear)"/>
<path d="M20.0386 55.5197C20.0791 57.1617 23.7836 49.9988 24.0062 49.7758C26.1047 47.6674 25.6661 51.2489 26.1722 51.6071C26.6783 51.9652 27.9536 49.1068 28.7228 48.7352C35.2073 45.6199 49.1278 50.5461 53.9253 52.4112L46.26 38.8962L40.2883 42.275C39.9577 41.7276 38.0144 39.3287 38.0144 39.3287C38.0144 39.3287 39.8295 37.3014 39.9914 36.7338C40.1534 36.1662 40.7674 34.2876 40.7674 34.2876V31.9089C40.8225 31.5257 40.8225 31.1366 40.7674 30.7534C40.6594 30.4291 40.4907 30.2331 40.5717 29.8682C40.6527 29.5033 41.368 28.564 41.4894 27.9355L54.1683 27.7666L41.4894 25.6177C41.5385 24.689 41.3742 23.7614 41.0092 22.9062C40.6443 22.051 40.0883 21.291 39.3841 20.6847C39.3841 20.6847 39.8093 21.9484 39.3437 22.3133C38.8781 22.6782 37.1844 20.6645 37.0562 20.4753C36.928 20.286 36.9347 19.2184 36.2262 18.5696C36.1705 18.783 36.065 18.98 35.9183 19.1444C35.7717 19.3089 35.5881 19.4362 35.3828 19.5157C34.708 19.7049 31.766 19.4278 29.3774 21.1172C27.9188 22.1445 26.3093 22.9379 24.6068 23.4688C24.6068 23.4688 26.7525 23.4283 26.8065 23.9689C26.8605 24.5095 24.4651 27.8071 23.8983 27.6652C23.4352 27.5987 22.9628 27.6505 22.5251 27.8159C22.0874 27.9813 21.6986 28.2549 21.3949 28.6113C21.0048 29.1016 20.7261 29.6712 20.5784 30.2804C20.8761 28.8299 21.2913 27.4061 21.82 26.0232C21.3072 26.8611 20.8955 27.6247 20.5582 28.3207L20.6594 28.0369C20.6594 28.0369 19.9846 27.5774 19.8969 27.6652C19.8092 27.7531 19.627 28.1923 19.8632 28.3951C20.0163 28.5276 20.1865 28.6389 20.3692 28.7262C20.0155 29.4942 19.7179 30.2869 19.4786 31.0981C19.1817 31.2129 18.7565 31.4224 18.5743 30.794C18.2977 29.8479 20.5987 18.4277 26.0508 15.4679C31.5029 12.5082 34.8632 14.6097 36.8133 16.4748C37.9262 17.4904 38.7918 18.748 39.3437 20.1509L49.6541 11.9405L38.6284 17.7182C37.6645 16.4362 36.4811 15.3356 35.1331 14.4678L39.1817 1.02715L32.7512 13.3934C31.5461 13.1937 30.3179 13.1755 29.1075 13.3393L24.573 0L26.6581 14.5151C25.5708 15.04 24.5806 15.7461 23.7296 16.6032L13.0278 8.66989C13.0278 8.66989 21.7997 18.5696 21.6175 18.9548C21.4354 19.34 20.2343 21.847 20.2343 21.847L5.89551 21.4889L18.8038 24.6514C18.594 24.8634 18.4228 25.1103 18.2977 25.3812C17.8094 27.6521 17.5405 29.9648 17.4947 32.2874C17.5886 33.4148 17.8431 34.523 18.2505 35.5783C17.8744 36.2477 17.6078 36.9732 17.461 37.7272C17.194 39.5991 17.624 41.504 18.6688 43.0791C19.0797 43.5874 19.4244 44.146 19.6945 44.7415C18.7966 45.0967 17.952 45.5742 17.1843 46.1605C12.0898 50.6137 11.1114 54.7155 11.1114 54.7155C12.5015 52.3234 21.3544 45.9984 21.6445 47.1269C21.9347 48.2554 19.9981 53.8776 20.0386 55.5197ZM20.8888 36.3419C20.8888 36.3419 21.0845 36.7271 21.2734 37.1933C21.2937 37.2752 21.3231 37.3546 21.3611 37.4298C21.4151 37.5785 21.4691 37.7272 21.5096 37.8758C21.6664 39.1679 21.6437 40.4756 21.4421 41.7614C21.1452 42.6687 20.8006 43.5597 20.4097 44.4306L20.0454 44.5793C20.2613 44.0319 20.5514 43.2683 20.6796 42.8696L20.7673 42.8156C21.2194 42.3966 20.1735 41.5519 19.9104 42.0182C19.9104 42.0182 20.5109 42.0925 20.4435 42.525C20.376 42.9575 19.4448 42.4236 19.627 41.7479C19.8092 41.0721 20.5649 41.0383 21.2194 41.6262C21.2194 41.6262 20.1263 40.3288 19.4381 41.2951C19.4154 41.3274 19.3951 41.3613 19.3773 41.3965C19.3961 41.1693 19.43 40.9435 19.4786 40.7207C19.6945 39.6666 20.8888 36.3419 20.8888 36.3419ZM20.376 42.9034C20.3121 42.9149 20.2464 42.9111 20.1842 42.8923C20.1221 42.8735 20.0652 42.8403 20.0184 42.7953C20.1308 42.8495 20.2518 42.8838 20.376 42.8967V42.9034ZM21.3342 29.5641C21.2819 30.075 21.3597 30.5908 21.5602 31.0635C21.7608 31.5361 22.0777 31.9502 22.4812 32.2671C22.8394 32.5866 23.2604 32.8274 23.7171 32.9741C24.1739 33.1207 24.6562 33.1699 25.1331 33.1185C24.9873 33.2292 24.8207 33.309 24.6432 33.3531C24.4658 33.3972 24.2812 33.4048 24.1007 33.3753C23.6148 33.2469 25.9428 39.5382 24.3504 43.1534C23.2521 43.4231 22.1706 43.757 21.1115 44.1535C22.4003 42.1668 23.3449 37.9637 23.4529 37.4704C23.5144 37.352 23.5555 37.2241 23.5744 37.092C23.6146 36.9357 23.6035 36.7706 23.5427 36.6212C23.4818 36.4718 23.3745 36.3461 23.2366 36.2626C23.0987 36.1791 22.9376 36.1424 22.7772 36.1579C22.6168 36.1734 22.4657 36.2403 22.3463 36.3486C21.928 36.7338 22.2518 37.2339 22.488 37.1866C22.488 37.1866 22.38 36.8081 22.6972 36.673C23.0143 36.5378 23.4462 37.0447 22.8321 37.5582C22.2181 38.0718 21.5771 37.5177 21.4826 36.8825C21.4995 36.647 21.5693 36.4184 21.6867 36.2138C21.8041 36.0091 21.9662 35.8336 22.1608 35.7004C22.3554 35.5673 22.5776 35.4798 22.8106 35.4446C23.0437 35.4094 23.2817 35.4274 23.5069 35.4972C23.3029 35.3255 23.0494 35.2238 22.7835 35.2068C22.5177 35.1897 22.2533 35.2584 22.0292 35.4026C21.8237 35.5015 21.644 35.647 21.5046 35.8277C21.3652 36.0084 21.2699 36.2192 21.2262 36.4432C21.0305 35.558 20.7808 34.3079 20.6526 33.6389C20.5485 32.7418 20.5057 31.8387 20.5244 30.9359L21.3342 29.5641ZM31.4219 44.9239C31.4219 44.9239 30.3962 43.0994 37.2789 43.5184C40.9631 43.7414 44.3774 47.0458 44.3774 47.0458C36.6109 42.6872 31.4219 44.9239 31.4219 44.9239ZM28.6486 45.4983C28.1965 44.6469 27.8052 44.7415 27.8052 44.7415C27.8052 44.7415 28.1088 43.9711 28.6486 44.2549C29.1884 44.5387 29.5663 46.4376 29.3774 47.0458C29.2424 47.4377 29.1075 46.316 28.6216 45.4713L28.6486 45.4983ZM26.1317 43.0453C25.9957 40.9089 25.7275 38.7829 25.3288 36.6797L25.7809 37.5447C26.6097 35.7794 26.9522 33.8243 26.7728 31.8819C26.7728 31.8819 25.0454 32.7469 23.8848 32.5982C22.7242 32.4496 23.7161 31.6319 24.1074 31.4832C24.4648 31.365 24.8301 31.2724 25.2006 31.2062C25.4697 30.808 25.7946 30.4507 26.1655 30.1452C26.6715 29.7871 27.2923 29.1384 26.7053 28.7937C26.1182 28.4491 27.1574 26.4421 27.9401 25.8069C28.7228 25.1717 29.0265 25.3069 29.5123 24.5906C29.8079 23.9857 30.2209 23.4459 30.7272 23.0026C31.2335 22.5594 31.8229 22.2217 32.461 22.0092C33.8828 21.6017 35.368 21.4642 36.8403 21.6037C36.8403 21.6037 39.2492 24.104 39.9442 25.6583C39.9442 25.6583 38.5947 24.2121 38.4192 24.3068C38.2438 24.4014 38.2303 24.9825 38.2303 24.9825C38.2303 24.9825 39.9644 27.2598 40.0994 27.6247C40.2344 27.9896 39.3909 27.2733 38.7161 27.2665C37.9723 27.3633 37.2865 27.7199 36.7795 28.2734C36.4759 28.6451 36.9955 28.8275 37.4138 28.7937C37.6382 28.7712 37.8642 28.7712 38.0886 28.7937C38.0886 28.7937 38.3652 29.1586 38.4732 29.287C38.5997 29.4174 38.7512 29.5208 38.9186 29.5911C38.962 29.6111 39.0007 29.6401 39.0321 29.6763C39.0636 29.7124 39.0869 29.7548 39.1007 29.8006C39.1007 29.8006 38.8376 29.8614 38.7364 29.8006C38.6351 29.7398 38.5677 29.4492 38.1628 29.3681C37.3066 29.3927 36.4829 29.7017 35.8214 30.2466C35.8214 30.2466 35.8214 30.4088 36.3342 30.2466C36.847 30.0844 36.9752 29.8547 37.5015 29.956C37.6979 29.9782 37.8878 30.0391 38.0604 30.1354C38.233 30.2317 38.3848 30.3614 38.5069 30.5169C38.7651 30.5446 39.0047 30.6646 39.1817 30.8548C39.4584 31.1724 39.5191 31.3548 39.4516 31.4224C39.3841 31.49 38.0076 30.7467 37.5285 30.8007C37.0495 30.8548 36.9955 31.1724 36.9955 31.1724C37.7185 31.2773 38.4096 31.5404 39.0198 31.9427C39.789 32.5374 40.2006 33.2537 39.8025 33.7064C39.4044 34.1592 37.7782 33.3821 37.6905 33.3145C37.6028 33.2469 34.8025 33.6659 33.7094 33.6456C32.4343 33.4954 31.1462 33.7863 30.0589 34.47C28.8241 35.3485 29.4786 36.1932 31.5636 37.173C33.7066 38.3684 35.5754 40.0006 37.0494 41.9641C35.3466 41.6792 33.6047 41.7297 31.9212 42.1128C29.4381 42.7885 28.8915 43.2413 28.7228 43.1602C28.5189 43.0432 28.2827 42.9951 28.0494 43.0231C27.816 43.0511 27.5979 43.1537 27.4273 43.3156C27.2989 43.1775 27.1455 43.0652 26.9752 42.9845C26.6964 42.9172 26.4043 42.9288 26.1317 43.0183V43.0453ZM26.1857 45.4983C26.0575 44.3901 25.5987 44.3225 25.5987 44.3225C25.5987 44.3225 26.2734 43.6467 26.712 44.1535C27.1506 44.6604 26.7728 46.9039 26.3072 47.4715C25.9833 47.8431 26.3139 46.5795 26.1857 45.4713V45.4983ZM22.7647 48.3635C22.7647 47.2485 23.824 45.8497 22.3396 45.4713C20.1601 44.9104 16.5366 47.8229 16.5366 47.8229C18.6553 44.9577 23.4799 43.7684 24.2559 44.6063C25.0319 45.4442 22.7579 49.4447 22.7647 48.3364V48.3635ZM24.3099 18.8264C24.8329 19.5185 25.4667 20.119 26.1857 20.6037C26.3544 20.6577 27.2991 19.6981 27.2991 19.6981C26.5797 19.1641 25.9151 18.5597 25.3153 17.8939C24.8497 17.5425 23.9927 18.2318 24.3099 18.7994V18.8264ZM33.5609 17.2181C33.274 16.6398 33.1174 16.0054 33.1021 15.3598C33.1021 15.3598 31.8065 14.4475 31.793 15.1638C31.8847 15.9828 32.1492 16.7729 32.569 17.4817C32.8052 17.8466 33.959 17.7317 33.5609 17.2181ZM33.9523 15.4409C33.9523 15.4409 33.8241 17.137 34.4111 17.779L34.8227 17.8263C34.8779 17.349 34.9796 16.8782 35.1264 16.4208C35.3693 15.7923 33.9523 15.4477 33.9523 15.4477V15.4409ZM20.7808 25.5096C21.2802 25.7934 21.8267 26.0637 21.8267 26.0637L22.353 25.1447C21.9353 24.9424 21.5074 24.762 21.071 24.6041C20.8348 24.5771 20.2748 25.2258 20.7808 25.5163V25.5096ZM21.4556 26.53C21.4556 26.53 20.5447 25.8948 20.3827 26.0705C20.2713 26.1762 20.1992 26.3169 20.1783 26.4692C20.1574 26.6216 20.1891 26.7765 20.268 26.9084C20.481 27.0997 20.7283 27.2487 20.9968 27.3476L21.4556 26.53ZM22.2991 22.043C22.7455 22.513 23.3022 22.8637 23.9185 23.0634C24.1892 22.8298 24.4356 22.5695 24.654 22.2863C24.654 22.2863 23.4934 21.4551 22.9468 20.9956C22.5487 20.6712 21.766 21.5362 22.2788 22.0497L22.2991 22.043ZM28.6891 18.5629C27.9564 18.0005 27.3457 17.2947 26.8942 16.4883C26.7355 16.425 26.5611 16.4127 26.3951 16.4531C26.2291 16.4935 26.0798 16.5847 25.9678 16.7139C25.8559 16.8431 25.7868 17.004 25.7702 17.1742C25.7537 17.3445 25.7904 17.5157 25.8753 17.6641C26.321 18.3219 26.8947 18.8828 27.5622 19.313C27.9469 19.5495 28.6689 18.5696 28.6689 18.5696L28.6891 18.5629ZM30.2613 17.8871C29.5831 17.2425 29.1131 16.4094 28.9118 15.495C28.3315 15.3328 27.4003 15.5963 27.5622 16.3667C27.8566 17.1494 28.3413 17.8462 28.9725 18.3939C29.2964 18.5696 30.2411 17.8939 30.2411 17.8939L30.2613 17.8871ZM35.8484 16.637C35.8484 16.637 35.5717 17.6912 35.8484 18.0899C35.9202 18.2025 36.014 18.2994 36.1242 18.3749C36.2343 18.4504 36.3585 18.5028 36.4894 18.5291C36.4894 18.5291 36.9212 17.7925 36.6716 17.333C36.4659 17.022 36.1722 16.7797 35.8281 16.637H35.8484ZM23.4732 23.6243C22.8992 23.2925 22.2905 23.025 21.658 22.8269C21.4354 22.8877 20.8956 23.5432 21.3881 23.9283C21.8035 24.2069 22.2585 24.421 22.7377 24.5635L23.4732 23.6243ZM23.0885 20.1306C23.237 20.8064 24.8564 21.7862 25.1938 21.7186C25.5312 21.6511 25.8686 20.9483 25.8686 20.9483C25.1938 20.7118 23.9185 19.2589 23.9185 19.2589C23.7431 19.117 22.9198 19.4481 23.0683 20.1306H23.0885ZM37.3396 19.0089C37.4948 19.2454 37.9199 19.6846 38.0683 19.563C38.1971 19.4459 38.2821 19.2882 38.3091 19.1162C38.3361 18.9441 38.3035 18.7679 38.2168 18.6169C38.0401 18.3506 37.7856 18.1453 37.4881 18.029C37.4881 18.029 37.1574 18.7791 37.3194 19.0089H37.3396ZM31.9955 17.5492C31.6301 17.1858 31.3511 16.7446 31.179 16.2586C30.9833 15.5828 31.179 15.0422 30.9563 14.9071C30.9563 14.9071 29.8902 14.8665 29.708 15.2112C29.5258 15.5558 30.2343 16.9411 30.7876 17.7182L31.9955 17.5492Z" fill="url(#paint1_linear)"/>
<path d="M27.7785 53.7629C37.1038 48.965 50.6732 54.1683 56.4222 56.824L60.0997 63.3045C57.232 61.8719 52.178 59.0405 45.4371 57.2903C35.1672 54.6278 31.1456 53.5331 17.9742 62.9666C12.5761 66.8387 8.25085 68.7578 4.93776 69.643L4.22925 68.3861C11.8743 65.5885 18.4938 58.5539 27.7785 53.7629Z" fill="url(#paint2_linear)"/>
<path d="M19.1572 49.6136C19.6228 50.188 16.4582 55.6954 8.44196 61.0541C5.97907 62.6962 3.9278 63.7571 1.84953 64.1896L0.5 61.838C12.8482 57.4929 19.1572 49.6136 19.1572 49.6136Z" fill="url(#paint3_linear)"/>
<path d="M5.084 68.6969L5.2257 68.9469C8.97064 67.8725 13.1407 65.6966 17.6279 62.48C27.8978 55.1278 32.7831 54.0872 39.1596 55.2089C38.8725 54.2434 38.4811 53.3121 37.9922 52.4316C34.5722 52.1797 31.1455 52.82 28.0462 54.2899C24.083 56.4346 20.2888 58.8789 16.6967 61.6015C12.7763 64.4329 9.04487 67.1089 5.084 68.6969ZM1.3728 62.1556L2.14202 63.5071C4.28562 62.8696 6.30508 61.871 8.11369 60.5541C9.37968 59.7155 10.6026 58.8133 11.7776 57.8511C11.1029 57.9322 10.4956 57.993 9.88832 58.0403C7.19137 59.6883 4.33915 61.0667 1.3728 62.1556Z" fill="url(#paint4_linear)"/>
<path d="M37.801 33.7474C37.801 33.7474 34.5215 34.1123 33.6781 34.0448C32.8346 33.9772 30.547 34.1799 30.3041 34.9705C30.0612 35.7612 30.709 36.1801 32.3285 36.8964C33.948 37.6127 37.6458 41.0253 38.442 42.8836L39.8861 42.6403C39.8861 42.6403 37.2207 39.3629 37.1127 39.167C37.0047 38.971 38.2396 38.2074 38.9819 37.0316C39.7241 35.8558 39.6567 34.8287 39.5015 34.5448C39.3463 34.261 38.1586 34.1799 37.801 33.7474Z" fill="url(#paint5_linear)"/>
<path d="M41.363 42.6062L45.8575 40.0519L51.9783 50.8301C51.9783 50.8301 45.9385 43.755 41.363 42.6062Z" fill="url(#paint6_linear)"/>
<path d="M17.865 30.9491C17.865 30.9491 17.5951 33.9291 18.6746 35.4766C17.9016 36.9243 17.6287 38.5876 17.8988 40.2069C18.4048 42.7207 19.5315 43.8965 19.6799 44.0113C18.9245 42.799 18.5573 41.3842 18.6274 39.9568C18.5808 38.3438 18.9976 36.7512 19.8284 35.3685C19.8284 35.3685 19.0187 32.9763 19.464 31.6789C19.3165 31.7716 19.1483 31.8261 18.9745 31.8377C18.8008 31.8492 18.6269 31.8174 18.4684 31.7451C18.3099 31.6728 18.1719 31.5622 18.0665 31.4233C17.9612 31.2843 17.892 31.1214 17.865 30.9491Z" fill="url(#paint7_linear)"/>
<path d="M41.4424 26.9759L52.6974 27.6516L41.4829 25.9149C41.5144 26.2688 41.5007 26.6254 41.4424 26.9759Z" fill="url(#paint8_linear)"/>
<path d="M39.2828 18.9751L48.5001 12.7244L38.824 18.0358C39.0118 18.3305 39.1657 18.6457 39.2828 18.9751Z" fill="url(#paint9_linear)"/>
<path d="M34.1653 13.5822L38.6255 2.55396L33.0317 13.42C33.0317 13.42 33.9224 13.2579 34.1653 13.5822Z" fill="url(#paint10_linear)"/>
<path d="M25.3352 2.8175L28.2299 13.6971C27.8232 13.8549 27.4285 14.0423 27.0491 14.258C26.9411 14.3728 25.3352 2.8175 25.3352 2.8175Z" fill="url(#paint11_linear)"/>
<path d="M22.6579 17.3875L16.3691 11.7247L22.1249 18.6174L22.6579 17.3875Z" fill="url(#paint12_linear)"/>
<path d="M19.5505 22.5906L9.62476 21.8676L18.8825 24.1583L19.5505 22.5906Z" fill="url(#paint13_linear)"/>
<path d="M91.1468 27.3546C90.658 29.0766 90.0699 30.7688 89.3856 32.4227C87.4933 32.9043 85.5544 33.1784 83.6029 33.2404C75.1549 33.2404 71.6731 27.8344 71.6731 22.7933C71.6731 16.2858 76.6326 11.8799 84.1697 11.8799C86.1678 11.9524 88.1552 12.2057 90.1076 12.6367C90.2628 14.1166 90.4855 16.4412 90.7014 17.8265L89.4464 18.0495C88.7716 15.5898 87.8472 14.4275 86.1805 13.772C85.3032 13.4623 84.3779 13.3113 83.4477 13.326C78.8931 13.326 76.5989 17.1372 76.5989 22.0702C76.5989 27.8276 79.5543 31.7267 83.8593 31.7267C86.4977 31.7267 88.252 30.3752 89.9322 26.8883L91.1468 27.3546Z" fill="url(#paint14_linear)"/>
<path d="M106.31 11.8799C112.12 11.8799 116.863 16.1303 116.863 22.327C116.863 29.0237 112.093 33.2404 106.155 33.2404C99.8728 33.2404 95.3181 28.6452 95.3181 22.577C95.3181 17.2183 99.1508 11.8799 106.31 11.8799ZM105.838 13.2314C102.639 13.2314 100.284 16.3804 100.284 21.9418C100.284 27.26 102.383 31.8213 106.627 31.8213C109.61 31.8213 111.938 28.9291 111.938 23.1717C111.938 16.975 109.481 13.2652 105.838 13.2652V13.2314Z" fill="url(#paint15_linear)"/>
<path d="M142.765 13.4881C140.741 13.6774 140.221 14.272 140.066 15.4073C139.937 16.8067 139.883 18.212 139.904 19.6172V23.7393C139.904 26.4423 139.466 29.1791 137.677 31.0712C136.233 32.5781 134 33.2403 131.773 33.2403C129.702 33.2403 127.623 32.8011 126.152 31.605C124.331 30.2197 123.453 28.3006 123.453 24.7799V16.8196C123.453 13.9274 123.17 13.7044 120.788 13.4881V12.3191H130.491V13.4881C128.136 13.7044 127.853 13.9274 127.853 16.8196V25.1854C127.853 28.7128 129.58 31.0374 132.941 31.0374C136.679 31.0374 138.339 28.2668 138.339 23.5501V19.6172C138.339 17.448 138.244 16.3195 138.183 15.3735C138.055 13.9274 137.178 13.6098 134.978 13.4881V12.3191H142.765V13.4881Z" fill="url(#paint16_linear)"/>
<path d="M167.917 13.4881C166.002 13.7382 165.401 14.1639 165.307 15.5627C165.212 16.7858 165.118 17.8602 165.118 20.597V33.1119H163.364L150.27 17.3872V24.4961C150.239 26.1218 150.29 27.7479 150.425 29.3683C150.546 30.7198 151.207 31.4766 153.535 31.605V32.7605H145.743V31.5983C147.537 31.4361 148.32 30.9698 148.509 29.4899C148.668 27.8281 148.731 26.1585 148.698 24.4894V17.0561C148.786 16.1533 148.547 15.2488 148.023 14.5085C147.456 13.7179 146.707 13.6233 145.385 13.5017V12.3326H151.511L163.472 26.2733V20.597C163.472 17.8602 163.472 16.8196 163.35 15.6573C163.256 14.3058 162.75 13.6301 160.146 13.4881V12.3191H167.904L167.917 13.4881Z" fill="url(#paint17_linear)"/>
<path d="M189.203 17.7659C188.935 16.6682 188.479 15.6255 187.854 14.6845C187.287 14.0088 187.038 13.7723 185.156 13.7723H183.132V28.5509C183.132 31.1931 183.449 31.3823 186.242 31.6053V32.7609H175.873V31.5986C178.572 31.3756 178.821 31.1864 178.821 28.5442V13.7723H176.905C175.151 13.7723 174.645 14.0493 174.052 14.8062C173.489 15.7383 173.055 16.7432 172.763 17.793H171.569C171.792 15.5022 172.008 13.0627 172.069 11.5355H173.013C173.485 12.2586 173.863 12.3194 174.801 12.3194H187.361C187.706 12.3523 188.054 12.2978 188.372 12.1608C188.691 12.0238 188.969 11.8088 189.183 11.5355H190.094C190.094 12.887 190.255 15.6238 190.411 17.6714L189.203 17.7659Z" fill="url(#paint18_linear)"/>
<path d="M213.933 32.9561C213.744 32.9561 213.373 32.9561 212.995 32.9223C209.007 32.7331 207.84 31.8884 206.922 30.5639C205.739 28.7817 204.658 26.934 203.684 25.0295C203.526 24.6665 203.252 24.3668 202.905 24.1782C202.557 23.9895 202.157 23.9229 201.767 23.9888H201.14V28.5772C201.14 31.1248 201.457 31.3478 203.839 31.6316V32.7601H194.183V31.5978C196.565 31.3478 196.882 31.091 196.882 28.5434V16.5421C196.882 14.0553 196.572 13.7107 194.183 13.5215V12.3524H203.285C206.086 12.3524 207.685 12.67 208.974 13.5485C209.651 14.0084 210.2 14.634 210.569 15.3661C210.937 16.0981 211.113 16.9123 211.079 17.7314C211.079 20.5358 209.223 22.0089 207.152 22.8266C207.624 23.7726 208.845 25.8201 209.79 27.2662C210.496 28.4197 211.295 29.5135 212.179 30.5369C212.677 31.1869 213.37 31.6604 214.156 31.8884L213.933 32.9561ZM201.97 22.6711C203.319 22.6711 204.358 22.4481 205.047 21.8535C205.56 21.3955 205.961 20.8247 206.217 20.1857C206.473 19.5468 206.579 18.8571 206.524 18.1706C206.524 14.8392 204.608 13.6431 202.847 13.6431C202.003 13.6431 201.592 13.7715 201.403 13.954C201.214 14.1364 201.119 14.5216 201.119 15.15V22.6711H201.97Z" fill="url(#paint19_linear)"/>
<path d="M234.588 13.488C232.564 13.7042 231.855 14.1637 230.722 16.0626C229.588 17.9614 228.623 19.7454 227.078 22.8876C226.817 23.4034 226.698 23.9796 226.734 24.5567V28.4558C226.734 31.1926 226.99 31.2872 229.561 31.6048V32.7604H219.635V31.5981C222.119 31.2805 222.334 31.1859 222.334 28.4491V24.8338C222.355 24.3284 222.233 23.8274 221.984 23.3877C221.073 21.5294 219.912 19.421 218.029 16.1234C216.869 14.0961 216.397 13.6704 214.575 13.4812V12.3121H223.778V13.4812C221.673 13.765 221.754 14.1569 222.267 15.2719C223.306 17.2992 224.656 19.8332 225.85 22.1308C226.795 20.3671 228.299 17.3465 229.177 15.4274C229.777 14.1705 229.527 13.765 227.26 13.4812V12.3121H234.581L234.588 13.488Z" fill="url(#paint20_linear)"/>
<path d="M266.183 13.4881C263.923 13.772 263.484 14.2382 262.634 16.8196C261.818 19.2388 259.463 26.6991 257.479 33.1119H255.725C254.119 28.5844 252.351 23.9285 250.542 19.2118C248.91 23.942 247.337 28.5506 245.86 33.1119H244.038C242.783 28.679 240.772 22.1648 239.011 16.5966C238.228 14.2112 237.756 13.6774 235.839 13.4881V12.3191H245.327V13.4881C242.972 13.7044 242.911 14.1639 243.349 15.8127C244.382 19.428 245.482 23.1108 246.521 26.5369C248.12 22.104 249.632 17.3534 251.076 12.4813H252.742C254.47 17.2926 256.258 21.9756 257.985 26.5707C259.146 23.1919 260.684 17.9211 261.096 16.1303C261.507 14.3396 261.217 13.7044 258.518 13.4881V12.3191H266.183V13.4881Z" fill="url(#paint21_linear)"/>
<path d="M268.53 32.7607V31.5984C270.912 31.3754 271.195 31.1862 271.195 28.5441V16.5427C271.195 13.9005 270.885 13.6505 268.53 13.4613V12.2922H278.24V13.4613C275.885 13.6775 275.541 13.9005 275.541 16.5427V28.5238C275.541 31.1389 275.824 31.3281 278.24 31.5782V32.7607H268.53Z" fill="url(#paint22_linear)"/>
<path d="M292.137 12.3193C296.152 12.3193 299.107 13.1707 301.118 15.0561C302.056 15.9343 302.794 17.0045 303.282 18.1939C303.77 19.3832 303.996 20.6639 303.945 21.9487C303.996 23.5322 303.665 25.1047 302.982 26.5335C302.298 27.9624 301.282 29.2058 300.018 30.1591C297.69 31.9228 294.708 32.8013 291.132 32.8013H282.495V31.639C284.877 31.4498 285.194 31.166 285.194 28.5576V16.5427C285.194 13.9005 284.85 13.6505 282.495 13.4613V12.2922L292.137 12.3193ZM289.526 28.3008C289.526 30.5375 290.092 31.2876 292.387 31.2876C296.624 31.2876 299.074 28.3346 299.074 22.388C299.074 19.4011 298.257 16.786 296.813 15.4345C295.464 14.1168 293.864 13.6775 291.759 13.6775C290.592 13.6775 290.059 13.9276 289.87 14.1168C289.681 14.306 289.526 14.9344 289.526 15.8467V28.3008Z" fill="url(#paint23_linear)"/>
<path d="M325.493 27.4217C325.338 28.2664 324.455 31.8884 324.145 32.7669H307.885V31.6316C310.738 31.3546 310.927 31.1924 310.927 28.5502V16.5421C310.927 13.8729 310.549 13.6837 308.418 13.4945V12.3255H318.621C321.912 12.3255 323.012 12.3255 323.45 12.2646C323.45 12.8323 323.639 15.4136 323.767 17.3598L322.54 17.5152C322.295 16.4595 321.836 15.4657 321.191 14.596C320.624 13.9608 320.22 13.7783 318.621 13.7783H316.598C315.405 13.7783 315.283 13.8391 315.283 14.9068V21.4819H318.358C320.112 21.4819 320.429 21.0089 320.901 18.7789H322.122V25.7932H320.901C320.395 23.4618 320.146 23.0902 318.325 23.0902H315.283V28.4962C315.283 30.6653 315.344 31.3276 317.306 31.3613H319.539C321.299 31.3613 321.764 31.1383 322.459 30.2869C323.23 29.3266 323.873 28.2704 324.374 27.1447L325.493 27.4217Z" fill="url(#paint24_linear)"/>
<path d="M97.9945 41.4504C95.9297 41.6599 95.7408 41.8221 95.7408 44.025V54.1613C95.7408 56.3642 95.9567 56.5264 97.9945 56.7088V57.6954H89.8096V56.7088C91.9014 56.4453 92.0566 56.3642 92.0566 54.1613V49.1742H84.9041V54.1613C84.9041 56.3642 85.147 56.4994 87.1308 56.7088V57.6954H78.9729V56.7088C80.9365 56.4994 81.2266 56.3642 81.2266 54.1613V44.025C81.2266 41.8221 80.9837 41.6126 78.9729 41.4504V40.4706H87.1308V41.4504C85.1065 41.6329 84.9041 41.8221 84.9041 44.025V47.816H92.0633V44.025C92.0633 41.8221 91.8002 41.6599 89.8164 41.4504V40.4706H98.0012L97.9945 41.4504Z" fill="url(#paint25_linear)"/>
<path d="M120.141 40.0992C125.047 40.0992 129.041 43.6807 129.041 48.884C129.041 54.5333 124.993 58.0878 120.013 58.0878C114.709 58.0878 110.87 54.2157 110.87 49.1003C110.87 44.5795 114.102 40.0992 120.141 40.0992ZM119.743 41.2615C117.044 41.2615 115.06 43.9172 115.06 48.6137C115.06 53.0939 116.828 56.9457 120.404 56.9457C122.921 56.9457 124.885 54.5063 124.885 49.6476C124.885 44.397 122.82 41.2615 119.743 41.2615Z" fill="url(#paint26_linear)"/>
<path d="M155.77 57.7158V56.7292C157.794 56.5197 157.916 56.3305 157.916 53.9451V43.5994C156.013 48.1607 153.915 53.2018 152.013 57.7158H151.136C149.415 53.391 147.533 48.4513 145.631 43.8089C145.287 52.1409 145.287 53.7897 145.287 54.7425C145.287 56.1751 145.84 56.5467 147.823 56.7292V57.7158H141.259V56.7292C142.77 56.6008 143.459 56.3102 143.668 54.702C143.776 53.9046 143.884 52.3909 144.491 43.6399C144.572 42.3628 144.383 41.6465 142.103 41.437V40.4572H147.823L152.937 52.1544L158.077 40.4572H163.663V41.437C161.545 41.6465 161.309 41.8627 161.363 43.9845L161.572 53.9316C161.572 56.317 161.707 56.4251 163.852 56.7157V57.7023L155.77 57.7158Z" fill="url(#paint27_linear)"/>
<path d="M190.957 53.2019C190.822 53.9182 190.08 56.9726 189.844 57.7159H176.092V56.7564C178.501 56.5199 178.663 56.3847 178.663 54.1615V44.0253C178.663 41.7683 178.346 41.6128 176.544 41.4506V40.4708H185.168C187.948 40.4708 188.872 40.4708 189.216 40.4167C189.216 40.8965 189.378 43.0657 189.486 44.7145L188.447 44.8429C188.24 43.9524 187.854 43.1133 187.313 42.3764C186.834 41.8494 186.49 41.7007 185.141 41.7007H183.413C182.408 41.7007 182.307 41.7547 182.307 42.6602V48.2014H184.898C186.382 48.2014 186.645 47.8027 187.043 45.9174H188.076V51.8369H187.057C186.639 49.8773 186.423 49.5529 184.884 49.5529H182.32V54.121C182.32 55.9522 182.367 56.5064 184.014 56.5334H185.896C187.374 56.5334 187.772 56.3442 188.359 55.6279C189.011 54.8196 189.553 53.929 189.972 52.979L190.957 53.2019Z" fill="url(#paint28_linear)"/>
<path d="M235.997 53.1477C235.59 54.6004 235.094 56.0266 234.513 57.4184C232.918 57.821 231.285 58.0476 229.641 58.0942C222.509 58.0942 219.573 53.5058 219.573 49.3094C219.573 43.8156 223.757 40.1057 230.113 40.1057C231.798 40.1655 233.474 40.3781 235.12 40.7409C235.255 41.9843 235.437 43.9507 235.626 45.1198L234.567 45.3022C234.007 43.2344 233.217 42.2546 231.807 41.6937C231.068 41.4359 230.289 41.3101 229.506 41.3221C225.667 41.3221 223.73 44.5319 223.73 48.7013C223.73 53.5532 226.22 56.8441 229.85 56.8441C232.077 56.8441 233.561 55.675 234.992 52.7558L235.997 53.1477Z" fill="url(#paint29_linear)"/>
<path d="M258.215 57.7156V56.729C259.889 56.4925 259.889 56.2019 259.518 55.0599C259.248 54.2625 258.843 53.0732 258.431 52.0055H253.276C252.986 52.8299 252.601 53.8368 252.352 54.6612C251.792 56.3303 252.433 56.5466 254.524 56.729V57.7156H247.979V56.729C249.646 56.5195 250.071 56.283 250.975 54.026L256.481 40.3083L257.757 40.0718C259.45 44.6871 261.252 49.4106 262.972 53.8368C263.951 56.3033 264.194 56.4925 265.914 56.702V57.6886L258.215 57.7156ZM255.887 45.0318C255.118 46.9442 254.376 48.7214 253.715 50.654H257.925L255.887 45.0318Z" fill="url(#paint30_linear)"/>
<path d="M294.129 57.8715C293.967 57.8715 293.65 57.8715 293.333 57.8715C289.959 57.7161 288.987 56.9998 288.191 55.8848C287.204 54.3806 286.303 52.8216 285.492 51.2153C285.358 50.9092 285.126 50.6566 284.833 50.4974C284.539 50.3383 284.201 50.2818 283.872 50.3369H283.346V54.2157C283.346 56.3646 283.609 56.547 285.593 56.7835V57.7701H277.496V56.7835C279.52 56.574 279.75 56.3646 279.75 54.2157V44.0794C279.75 41.9846 279.48 41.694 277.496 41.5318V40.552H285.181C287.536 40.552 288.886 40.8155 289.972 41.5589C290.544 41.9465 291.007 42.4741 291.317 43.0915C291.628 43.7089 291.776 44.3956 291.747 45.0863C291.747 47.4446 290.188 48.6948 288.441 49.3841C288.832 50.1814 289.871 51.9046 290.661 53.1277C291.26 54.0999 291.937 55.0219 292.685 55.8848C293.101 56.4433 293.685 56.8531 294.351 57.0538L294.129 57.8715ZM284.007 49.1948C284.924 49.2864 285.843 49.0468 286.598 48.5191C287.031 48.1334 287.369 47.6527 287.585 47.1147C287.802 46.5767 287.891 45.9958 287.847 45.4174C287.847 42.6063 286.234 41.5994 284.75 41.5994C284.034 41.5994 283.69 41.7008 283.528 41.863C283.366 42.0251 283.292 42.336 283.292 42.8698V49.2084L284.007 49.1948Z" fill="url(#paint31_linear)"/>
<path d="M320.37 53.2019C320.235 53.9182 319.493 56.9726 319.257 57.7159H305.505V56.7564C307.921 56.5199 308.076 56.3847 308.076 54.1615V44.0253C308.076 41.7683 307.759 41.6128 305.957 41.4506V40.4708H314.567C317.347 40.4708 318.278 40.4708 318.616 40.4167C318.616 40.8965 318.771 43.0657 318.879 44.7145L317.846 44.8429C317.637 43.9519 317.249 43.1128 316.706 42.3764C316.227 41.8494 315.883 41.7007 314.533 41.7007H312.813C311.807 41.7007 311.699 41.7547 311.699 42.6602V48.2014H314.297C315.782 48.2014 316.045 47.8027 316.443 45.9174H317.475V51.8369H316.443C316.018 49.8773 315.809 49.5529 314.27 49.5529H311.699V54.121C311.699 55.9522 311.753 56.5064 313.393 56.5334H315.275C316.76 56.5334 317.158 56.3442 317.738 55.6279C318.392 54.8198 318.936 53.9292 319.358 52.979L320.37 53.2019Z" fill="url(#paint32_linear)"/>
</g>
<defs>
<linearGradient id="paint0_linear" x1="12.0217" y1="19.9738" x2="43.7003" y2="23.7245" gradientUnits="userSpaceOnUse">
<stop offset="0.13" stop-color="#1A3981"/>
<stop offset="0.52" stop-color="#0067AD"/>
<stop offset="0.98" stop-color="#1A3981"/>
</linearGradient>
<linearGradient id="paint1_linear" x1="34535.4" y1="11266.6" x2="32513.6" y2="12545.2" gradientUnits="userSpaceOnUse">
<stop offset="0.13" stop-color="#1A3981"/>
<stop offset="0.52" stop-color="#0067AD"/>
<stop offset="0.98" stop-color="#1A3981"/>
</linearGradient>
<linearGradient id="paint2_linear" x1="-4.63034" y1="71.5171" x2="60.3462" y2="51.0392" gradientUnits="userSpaceOnUse">
<stop stop-color="#700000"/>
<stop offset="0.61" stop-color="#EC1E24"/>
<stop offset="1" stop-color="#700000"/>
</linearGradient>
<linearGradient id="paint3_linear" x1="14342.1" y1="3463.59" x2="12540.8" y2="3949.41" gradientUnits="userSpaceOnUse">
<stop stop-color="#700000"/>
<stop offset="0.61" stop-color="#EC1E24"/>
<stop offset="1" stop-color="#700000"/>
</linearGradient>
<linearGradient id="paint4_linear" x1="48.1126" y1="44.322" x2="-30.0316" y2="76.9456" gradientUnits="userSpaceOnUse">
<stop stop-color="white"/>
<stop offset="0.32" stop-color="#EC1E24"/>
<stop offset="1" stop-color="#700000"/>
</linearGradient>
<linearGradient id="paint5_linear" x1="38.6126" y1="37.0798" x2="18.8626" y2="27.6055" gradientUnits="userSpaceOnUse">
<stop stop-color="#008ECD"/>
<stop offset="0.44" stop-color="#0067AD" stop-opacity="0"/>
</linearGradient>
<linearGradient id="paint6_linear" x1="7183.1" y1="2612.27" x2="7627.83" y2="3092.38" gradientUnits="userSpaceOnUse">
<stop stop-color="#008ECD"/>
<stop offset="0.44" stop-color="#0067AD" stop-opacity="0"/>
</linearGradient>
<linearGradient id="paint7_linear" x1="1477" y1="2873.95" x2="1382.67" y2="2888.43" gradientUnits="userSpaceOnUse">
<stop stop-color="#008ECD"/>
<stop offset="0.44" stop-color="#0067AD" stop-opacity="0"/>
</linearGradient>
<linearGradient id="paint8_linear" x1="7617.9" y1="412.032" x2="7616.53" y2="441.362" gradientUnits="userSpaceOnUse">
<stop stop-color="#008ECD"/>
<stop offset="0.44" stop-color="#0067AD" stop-opacity="0"/>
</linearGradient>
<linearGradient id="paint9_linear" x1="6576.78" y1="1334.06" x2="6177.51" y2="1318.49" gradientUnits="userSpaceOnUse">
<stop stop-color="#008ECD"/>
<stop offset="0.44" stop-color="#0067AD" stop-opacity="0"/>
</linearGradient>
<linearGradient id="paint10_linear" x1="3835.42" y1="2166.41" x2="3619.28" y2="2163.65" gradientUnits="userSpaceOnUse">
<stop stop-color="#008ECD"/>
<stop offset="0.44" stop-color="#0067AD" stop-opacity="0"/>
</linearGradient>
<linearGradient id="paint11_linear" x1="2005.4" y1="2258.47" x2="2120.45" y2="1758.83" gradientUnits="userSpaceOnUse">
<stop stop-color="#008ECD"/>
<stop offset="0.44" stop-color="#0067AD" stop-opacity="0"/>
</linearGradient>
<linearGradient id="paint12_linear" x1="-2785.29" y1="3031.96" x2="-2928.76" y2="2811.77" gradientUnits="userSpaceOnUse">
<stop stop-color="#008ECD"/>
<stop offset="0.44" stop-color="#0067AD" stop-opacity="0"/>
</linearGradient>
<linearGradient id="paint13_linear" x1="-5451.88" y1="3514.96" x2="-5541.21" y2="3430.84" gradientUnits="userSpaceOnUse">
<stop stop-color="#008ECD"/>
<stop offset="0.44" stop-color="#0067AD" stop-opacity="0"/>
</linearGradient>
<linearGradient id="paint14_linear" x1="1.48413" y1="22.5635" x2="1.53811" y2="22.5635" gradientUnits="userSpaceOnUse">
<stop stop-color="#00579E"/>
<stop offset="1" stop-color="#00559B"/>
</linearGradient>
<linearGradient id="paint15_linear" x1="1.41797" y1="22.5635" x2="1.47195" y2="22.5635" gradientUnits="userSpaceOnUse">
<stop stop-color="#00579E"/>
<stop offset="1" stop-color="#00559B"/>
</linearGradient>
<linearGradient id="paint16_linear" x1="7015.43" y1="6251.66" x2="7017.19" y2="6251.66" gradientUnits="userSpaceOnUse">
<stop stop-color="#00579E"/>
<stop offset="1" stop-color="#00559B"/>
</linearGradient>
<linearGradient id="paint17_linear" x1="7214.18" y1="6211.5" x2="7215.98" y2="6211.5" gradientUnits="userSpaceOnUse">
<stop stop-color="#00579E"/>
<stop offset="1" stop-color="#00559B"/>
</linearGradient>
<linearGradient id="paint18_linear" x1="6082.43" y1="6321.83" x2="6083.94" y2="6321.83" gradientUnits="userSpaceOnUse">
<stop stop-color="#00579E"/>
<stop offset="1" stop-color="#00559B"/>
</linearGradient>
<linearGradient id="paint19_linear" x1="6460.11" y1="6152.65" x2="6461.71" y2="6152.65" gradientUnits="userSpaceOnUse">
<stop stop-color="#00579E"/>
<stop offset="1" stop-color="#00559B"/>
</linearGradient>
<linearGradient id="paint20_linear" x1="6493.22" y1="6103.43" x2="6494.82" y2="6103.43" gradientUnits="userSpaceOnUse">
<stop stop-color="#00579E"/>
<stop offset="1" stop-color="#00559B"/>
</linearGradient>
<linearGradient id="paint21_linear" x1="9755.4" y1="6211.5" x2="9757.83" y2="6211.5" gradientUnits="userSpaceOnUse">
<stop stop-color="#00579E"/>
<stop offset="1" stop-color="#00559B"/>
</linearGradient>
<linearGradient id="paint22_linear" x1="3314.7" y1="6109.45" x2="3315.48" y2="6109.45" gradientUnits="userSpaceOnUse">
<stop stop-color="#00579E"/>
<stop offset="1" stop-color="#00559B"/>
</linearGradient>
<linearGradient id="paint23_linear" x1="7014.19" y1="6121.52" x2="7015.9" y2="6121.52" gradientUnits="userSpaceOnUse">
<stop stop-color="#00579E"/>
<stop offset="1" stop-color="#00559B"/>
</linearGradient>
<linearGradient id="paint24_linear" x1="5831.92" y1="6118.66" x2="5833.33" y2="6118.66" gradientUnits="userSpaceOnUse">
<stop stop-color="#00579E"/>
<stop offset="1" stop-color="#00559B"/>
</linearGradient>
<linearGradient id="paint25_linear" x1="78.9729" y1="49.0931" x2="97.9945" y2="49.0931" gradientUnits="userSpaceOnUse">
<stop stop-color="#EC1E24"/>
</linearGradient>
<linearGradient id="paint26_linear" x1="8758.64" y1="6105.65" x2="9247.99" y2="6105.65" gradientUnits="userSpaceOnUse">
<stop stop-color="#EC1E24"/>
</linearGradient>
<linearGradient id="paint27_linear" x1="11910.6" y1="5859.55" x2="12667.2" y2="5859.55" gradientUnits="userSpaceOnUse">
<stop stop-color="#EC1E24"/>
</linearGradient>
<linearGradient id="paint28_linear" x1="8687.08" y1="5872.5" x2="9014.55" y2="5872.5" gradientUnits="userSpaceOnUse">
<stop stop-color="#EC1E24"/>
</linearGradient>
<linearGradient id="paint29_linear" x1="10682.3" y1="6105.64" x2="11082.1" y2="6105.64" gradientUnits="userSpaceOnUse">
<stop stop-color="#EC1E24"/>
</linearGradient>
<linearGradient id="paint30_linear" x1="12428.3" y1="5984.1" x2="12905" y2="5984.1" gradientUnits="userSpaceOnUse">
<stop stop-color="#EC1E24"/>
</linearGradient>
<linearGradient id="paint31_linear" x1="12461.1" y1="5882.06" x2="12881.9" y2="5882.06" gradientUnits="userSpaceOnUse">
<stop stop-color="#EC1E24"/>
</linearGradient>
<linearGradient id="paint32_linear" x1="11668.2" y1="5872.5" x2="11995.7" y2="5872.5" gradientUnits="userSpaceOnUse">
<stop stop-color="#EC1E24"/>
</linearGradient>
<clipPath id="clip0">
<rect width="325" height="69.6429" fill="white" transform="translate(0.5)"/>
</clipPath>
</defs>
</svg>
