<svg width="325" height="70" viewBox="0 0 325 70" fill="none" xmlns="http://www.w3.org/2000/svg">
<g clip-path="url(#clip0)">
<path d="M36.3873 23.7758C36.3873 23.7758 35.2942 23.5326 35.4089 23.7285C35.5236 23.9245 36.1174 23.8096 35.7868 24.4043C35.4562 24.999 34.7746 26.2626 34.4373 26.2356C34.0999 26.2085 33.1889 24.5597 32.4467 24.8841C31.7045 25.2084 31.4008 25.8436 31.1444 25.7152C30.888 25.5869 29.4373 25.276 29.4373 25.276C30.2645 24.6936 31.1327 24.172 32.0351 23.715C34.0391 22.6473 35.274 23.1069 36.3873 23.7758Z" fill="white"/>
<path d="M19.5386 55.6984C19.5791 57.3405 23.2836 50.1775 23.5062 49.9545C25.6047 47.8462 25.1661 51.4277 25.6722 51.7858C26.1783 52.144 27.4536 49.2855 28.2228 48.9139C34.7073 45.7987 48.6278 50.7249 53.4253 52.5899L45.76 39.0749L39.7883 42.4537C39.4577 41.9063 37.5144 39.5074 37.5144 39.5074C37.5144 39.5074 39.3295 37.4802 39.4914 36.9125C39.6534 36.3449 40.2674 34.4663 40.2674 34.4663V32.0877C40.3225 31.7045 40.3225 31.3153 40.2674 30.9321C40.1594 30.6078 39.9907 30.4118 40.0717 30.0469C40.1527 29.682 40.868 28.7427 40.9894 28.1142L53.6683 27.9453L40.9894 25.7964C41.0385 24.8677 40.8742 23.9401 40.5092 23.0849C40.1443 22.2297 39.5883 21.4698 38.8841 20.8634C38.8841 20.8634 39.3093 22.1271 38.8437 22.492C38.3781 22.8569 36.6844 20.8432 36.5562 20.654C36.428 20.4648 36.4347 19.3971 35.7262 18.7483C35.6705 18.9617 35.565 19.1587 35.4183 19.3232C35.2717 19.4876 35.0881 19.6149 34.8828 19.6944C34.208 19.8836 31.266 19.6065 28.8774 21.2959C27.4188 22.3232 25.8093 23.1166 24.1068 23.6475C24.1068 23.6475 26.2525 23.607 26.3065 24.1476C26.3605 24.6882 23.9651 27.9858 23.3983 27.8439C22.9352 27.7774 22.4628 27.8292 22.0251 27.9946C21.5874 28.16 21.1986 28.4336 20.8949 28.79C20.5048 29.2803 20.2261 29.8499 20.0784 30.4591C20.3761 29.0086 20.7913 27.5848 21.32 26.2019C20.8072 27.0398 20.3955 27.8034 20.0582 28.4994L20.1594 28.2156C20.1594 28.2156 19.4846 27.7561 19.3969 27.8439C19.3092 27.9318 19.127 28.371 19.3632 28.5738C19.5163 28.7063 19.6865 28.8176 19.8692 28.9049C19.5155 29.6729 19.2179 30.4656 18.9786 31.2768C18.6817 31.3916 18.2565 31.6011 18.0743 30.9727C17.7977 30.0266 20.0987 18.6064 25.5508 15.6467C31.0029 12.6869 34.3632 14.7884 36.3133 16.6535C37.4262 17.6691 38.2918 18.9267 38.8437 20.3296L49.1541 12.1192L38.1284 17.8969C37.1645 16.6149 35.9811 15.5144 34.6331 14.6465L38.6817 1.20587L32.2512 13.5721C31.0461 13.3724 29.8179 13.3542 28.6075 13.518L24.073 0.178711L26.1581 14.6938C25.0708 15.2187 24.0806 15.9248 23.2296 16.7819L12.5278 8.8486C12.5278 8.8486 21.2997 18.7484 21.1175 19.1335C20.9354 19.5187 19.7343 22.0257 19.7343 22.0257L5.39551 21.6676L18.3038 24.8301C18.094 25.0421 17.9228 25.289 17.7977 25.5599C17.3094 27.8308 17.0405 30.1435 16.9947 32.4661C17.0886 33.5935 17.3431 34.7017 17.7505 35.757C17.3744 36.4265 17.1078 37.152 16.961 37.9059C16.694 39.7779 17.124 41.6828 18.1688 43.2578C18.5797 43.7661 18.9244 44.3247 19.1945 44.9202C18.2966 45.2755 17.452 45.753 16.6843 46.3392C11.5898 50.7924 10.6114 54.8942 10.6114 54.8942C12.0015 52.5021 20.8544 46.1771 21.1445 47.3056C21.4347 48.4341 19.4981 54.0563 19.5386 55.6984ZM20.3888 36.5206C20.3888 36.5206 20.5845 36.9058 20.7734 37.372C20.7937 37.4539 20.8231 37.5333 20.8611 37.6085C20.9151 37.7572 20.9691 37.9059 21.0096 38.0545C21.1664 39.3466 21.1437 40.6543 20.9421 41.9401C20.6452 42.8474 20.3006 43.7384 19.9097 44.6093L19.5454 44.758C19.7613 44.2106 20.0514 43.447 20.1796 43.0483L20.2673 42.9943C20.7194 42.5753 19.6735 41.7306 19.4104 42.1969C19.4104 42.1969 20.0109 42.2712 19.9435 42.7037C19.876 43.1362 18.9448 42.6023 19.127 41.9266C19.3092 41.2508 20.0649 41.217 20.7194 41.805C20.7194 41.805 19.6263 40.5075 18.9381 41.4738C18.9154 41.5061 18.8951 41.54 18.8773 41.5752C18.8961 41.348 18.93 41.1222 18.9786 40.8994C19.1945 39.8453 20.3888 36.5206 20.3888 36.5206ZM19.876 43.0821C19.8121 43.0936 19.7464 43.0898 19.6842 43.071C19.6221 43.0522 19.5652 43.019 19.5184 42.974C19.6308 43.0282 19.7518 43.0625 19.876 43.0754V43.0821ZM20.8342 29.7428C20.7819 30.2537 20.8597 30.7695 21.0602 31.2422C21.2608 31.7148 21.5777 32.1289 21.9812 32.4458C22.3394 32.7653 22.7604 33.0061 23.2171 33.1528C23.6739 33.2994 24.1562 33.3486 24.6331 33.2973C24.4873 33.4079 24.3207 33.4877 24.1432 33.5318C23.9658 33.576 23.7812 33.5835 23.6007 33.554C23.1148 33.4257 25.4428 39.7169 23.8504 43.3322C22.7521 43.6018 21.6706 43.9357 20.6115 44.3323C21.9003 42.3455 22.8449 38.1424 22.9529 37.6491C23.0144 37.5307 23.0555 37.4028 23.0744 37.2707C23.1146 37.1144 23.1035 36.9494 23.0427 36.7999C22.9818 36.6505 22.8745 36.5248 22.7366 36.4413C22.5987 36.3578 22.4376 36.3212 22.2772 36.3366C22.1168 36.3521 21.9657 36.419 21.8463 36.5273C21.428 36.9125 21.7518 37.4126 21.988 37.3653C21.988 37.3653 21.88 36.9869 22.1972 36.8517C22.5143 36.7166 22.9462 37.2234 22.3321 37.7369C21.7181 38.2505 21.0771 37.6964 20.9826 37.0612C20.9995 36.8257 21.0693 36.5971 21.1867 36.3925C21.3041 36.1878 21.4662 36.0123 21.6608 35.8791C21.8554 35.746 22.0776 35.6585 22.3106 35.6233C22.5437 35.5881 22.7817 35.6061 23.0069 35.6759C22.8029 35.5043 22.5494 35.4025 22.2835 35.3855C22.0177 35.3684 21.7533 35.4371 21.5292 35.5813C21.3237 35.6802 21.144 35.8258 21.0046 36.0064C20.8652 36.1871 20.7699 36.3979 20.7262 36.622C20.5305 35.7367 20.2808 34.4866 20.1526 33.8176C20.0485 32.9205 20.0057 32.0174 20.0244 31.1146L20.8342 29.7428ZM30.9219 45.1026C30.9219 45.1026 29.8962 43.2781 36.7789 43.6971C40.4631 43.9201 43.8774 47.2245 43.8774 47.2245C36.1109 42.8659 30.9219 45.1026 30.9219 45.1026ZM28.1486 45.677C27.6965 44.8256 27.3052 44.9202 27.3052 44.9202C27.3052 44.9202 27.6088 44.1498 28.1486 44.4336C28.6884 44.7174 29.0663 46.6163 28.8774 47.2245C28.7424 47.6164 28.6075 46.4947 28.1216 45.65L28.1486 45.677ZM25.6317 43.224C25.4957 41.0876 25.2275 38.9617 24.8288 36.8585L25.2809 37.7234C26.1097 35.9581 26.4522 34.003 26.2728 32.0606C26.2728 32.0606 24.5454 32.9256 23.3848 32.7769C22.2242 32.6283 23.2161 31.8106 23.6074 31.6619C23.9648 31.5437 24.3301 31.4511 24.7006 31.3849C24.9697 30.9867 25.2946 30.6294 25.6655 30.324C26.1715 29.9658 26.7923 29.3171 26.2053 28.9725C25.6182 28.6278 26.6574 26.6208 27.4401 25.9856C28.2228 25.3504 28.5265 25.4856 29.0123 24.7693C29.3079 24.1644 29.7209 23.6246 30.2272 23.1814C30.7335 22.7381 31.3229 22.4004 31.961 22.1879C33.3828 21.7804 34.868 21.6429 36.3403 21.7825C36.3403 21.7825 38.7492 24.2827 39.4442 25.837C39.4442 25.837 38.0947 24.3909 37.9192 24.4855C37.7438 24.5801 37.7303 25.1612 37.7303 25.1612C37.7303 25.1612 39.4644 27.4385 39.5994 27.8034C39.7344 28.1683 38.8909 27.452 38.2161 27.4453C37.4723 27.542 36.7865 27.8986 36.2795 28.4521C35.9759 28.8238 36.4955 29.0062 36.9138 28.9725C37.1382 28.9499 37.3642 28.9499 37.5886 28.9725C37.5886 28.9725 37.8652 29.3373 37.9732 29.4657C38.0997 29.5961 38.2512 29.6995 38.4186 29.7698C38.462 29.7898 38.5007 29.8188 38.5321 29.855C38.5636 29.8911 38.5869 29.9335 38.6007 29.9793C38.6007 29.9793 38.3376 30.0401 38.2364 29.9793C38.1351 29.9185 38.0677 29.6279 37.6628 29.5468C36.8066 29.5714 35.9829 29.8804 35.3214 30.4253C35.3214 30.4253 35.3214 30.5875 35.8342 30.4253C36.347 30.2631 36.4752 30.0334 37.0015 30.1347C37.1979 30.1569 37.3878 30.2179 37.5604 30.3141C37.733 30.4104 37.8848 30.5401 38.0069 30.6956C38.2651 30.7233 38.5047 30.8433 38.6817 31.0335C38.9584 31.3511 39.0191 31.5335 38.9516 31.6011C38.8841 31.6687 37.5076 30.9254 37.0285 30.9794C36.5495 31.0335 36.4955 31.3511 36.4955 31.3511C37.2185 31.4561 37.9096 31.7191 38.5198 32.1215C39.289 32.7161 39.7006 33.4324 39.3025 33.8852C38.9044 34.3379 37.2782 33.5608 37.1905 33.4932C37.1028 33.4257 34.3025 33.8446 33.2094 33.8243C31.9343 33.6741 30.6462 33.965 29.5589 34.6488C28.3241 35.5272 28.9786 36.3719 31.0636 37.3518C33.2066 38.5471 35.0754 40.1793 36.5494 42.1428C34.8466 41.8579 33.1047 41.9084 31.4212 42.2915C28.9381 42.9672 28.3915 43.42 28.2228 43.3389C28.0189 43.2219 27.7827 43.1738 27.5494 43.2018C27.316 43.2298 27.0979 43.3324 26.9273 43.4943C26.7989 43.3562 26.6455 43.2439 26.4752 43.1632C26.1964 43.0959 25.9043 43.1076 25.6317 43.197V43.224ZM25.6857 45.677C25.5575 44.5688 25.0987 44.5012 25.0987 44.5012C25.0987 44.5012 25.7734 43.8254 26.212 44.3323C26.6506 44.8391 26.2728 47.0826 25.8072 47.6502C25.4833 48.0219 25.8139 46.7582 25.6857 45.65V45.677ZM22.2647 48.5422C22.2647 47.4272 23.324 46.0284 21.8396 45.65C19.6601 45.0891 16.0366 48.0016 16.0366 48.0016C18.1553 45.1364 22.9799 43.9471 23.7559 44.785C24.5319 45.6229 22.2579 49.6234 22.2647 48.5152V48.5422ZM23.8099 19.0051C24.3329 19.6972 24.9667 20.2978 25.6857 20.7824C25.8544 20.8364 26.7991 19.8769 26.7991 19.8769C26.0797 19.3428 25.4151 18.7384 24.8153 18.0726C24.3497 17.7212 23.4927 18.4105 23.8099 18.9781V19.0051ZM33.0609 17.3968C32.774 16.8185 32.6174 16.1841 32.6021 15.5385C32.6021 15.5385 31.3065 14.6263 31.293 15.3426C31.3847 16.1615 31.6492 16.9516 32.069 17.6604C32.3052 18.0253 33.459 17.9104 33.0609 17.3968ZM33.4523 15.6196C33.4523 15.6196 33.3241 17.3157 33.9111 17.9577L34.3227 18.005C34.3779 17.5277 34.4796 17.0569 34.6264 16.5995C34.8693 15.971 33.4523 15.6264 33.4523 15.6264V15.6196ZM20.2808 25.6883C20.7802 25.9721 21.3267 26.2424 21.3267 26.2424L21.853 25.3234C21.4353 25.1211 21.0074 24.9407 20.571 24.7828C20.3348 24.7558 19.7748 25.4045 20.2808 25.6951V25.6883ZM20.9556 26.7087C20.9556 26.7087 20.0447 26.0735 19.8827 26.2492C19.7713 26.3549 19.6992 26.4956 19.6783 26.648C19.6574 26.8003 19.6891 26.9552 19.768 27.0871C19.981 27.2784 20.2283 27.4274 20.4968 27.5263L20.9556 26.7087ZM21.7991 22.2217C22.2455 22.6917 22.8022 23.0424 23.4185 23.2421C23.6892 23.0085 23.9356 22.7482 24.154 22.465C24.154 22.465 22.9934 21.6338 22.4468 21.1743C22.0487 20.8499 21.266 21.7149 21.7788 22.2285L21.7991 22.2217ZM28.1891 18.7416C27.4564 18.1792 26.8457 17.4734 26.3942 16.667C26.2355 16.6037 26.0611 16.5914 25.8951 16.6318C25.7291 16.6722 25.5798 16.7634 25.4678 16.8926C25.3559 17.0218 25.2868 17.1827 25.2702 17.3529C25.2537 17.5232 25.2904 17.6944 25.3753 17.8428C25.821 18.5007 26.3947 19.0615 27.0622 19.4917C27.4469 19.7282 28.1689 18.7483 28.1689 18.7483L28.1891 18.7416ZM29.7613 18.0658C29.0831 17.4213 28.6131 16.5881 28.4118 15.6737C27.8315 15.5115 26.9003 15.775 27.0622 16.5454C27.3566 17.3281 27.8413 18.0249 28.4725 18.5726C28.7964 18.7483 29.7411 18.0726 29.7411 18.0726L29.7613 18.0658ZM35.3484 16.8157C35.3484 16.8157 35.0717 17.8699 35.3484 18.2686C35.4202 18.3812 35.514 18.4782 35.6242 18.5536C35.7343 18.6291 35.8585 18.6815 35.9894 18.7078C35.9894 18.7078 36.4212 17.9712 36.1716 17.5117C35.9659 17.2007 35.6722 16.9584 35.3281 16.8157H35.3484ZM22.9732 23.803C22.3992 23.4712 21.7905 23.2037 21.158 23.0056C20.9354 23.0664 20.3956 23.7219 20.8881 24.107C21.3035 24.3856 21.7585 24.5997 22.2377 24.7423L22.9732 23.803ZM22.5885 20.3093C22.737 20.9851 24.3564 21.9649 24.6938 21.8973C25.0312 21.8298 25.3686 21.127 25.3686 21.127C24.6938 20.8905 23.4185 19.4376 23.4185 19.4376C23.2431 19.2957 22.4198 19.6268 22.5683 20.3093H22.5885ZM36.8396 19.1876C36.9948 19.4241 37.4199 19.8633 37.5683 19.7417C37.6971 19.6246 37.7821 19.467 37.8091 19.2949C37.8361 19.1228 37.8035 18.9467 37.7168 18.7957C37.5401 18.5293 37.2856 18.324 36.9881 18.2078C36.9881 18.2078 36.6574 18.9578 36.8194 19.1876H36.8396ZM31.4955 17.728C31.1301 17.3645 30.8511 16.9234 30.679 16.4373C30.4833 15.7615 30.679 15.2209 30.4563 15.0858C30.4563 15.0858 29.3902 15.0452 29.208 15.3899C29.0258 15.7345 29.7343 17.1198 30.2876 17.8969L31.4955 17.728Z" fill="white"/>
<path d="M27.2785 53.9416C36.6038 49.1438 50.1732 54.347 55.9222 57.0027L59.5997 63.4832C56.732 62.0506 51.678 59.2192 44.9371 57.469C34.6672 54.8065 30.6456 53.7118 17.4742 63.1453C12.0761 67.0174 7.75085 68.9365 4.43776 69.8217L3.72925 68.5648C11.3743 65.7672 17.9938 58.7327 27.2785 53.9416Z" fill="white"/>
<path d="M18.6572 49.7925C19.1228 50.3669 15.9582 55.8742 7.94196 61.2329C5.47907 62.875 3.4278 63.9359 1.34953 64.3684L0 62.0168C12.3482 57.6717 18.6572 49.7925 18.6572 49.7925Z" fill="white"/>
<path d="M4.584 68.8755L4.7257 69.1255C8.47064 68.0511 12.6407 65.8752 17.1279 62.6586C27.3978 55.3064 32.2831 54.2658 38.6596 55.3875C38.3725 54.4219 37.9811 53.4906 37.4922 52.6101C34.0722 52.3583 30.6455 52.9985 27.5462 54.4685C23.583 56.6132 19.7888 59.0575 16.1967 61.7801C12.2763 64.6115 8.54487 67.2875 4.584 68.8755ZM0.872803 62.3342L1.64202 63.6857C3.78562 63.0482 5.80508 62.0496 7.61369 60.7327C8.87968 59.8941 10.1026 58.9919 11.2776 58.0297C10.6029 58.1108 9.99561 58.1716 9.38832 58.2189C6.69137 59.8669 3.83915 61.2453 0.872803 62.3342Z" fill="white"/>
<path d="M37.301 33.9263C37.301 33.9263 34.0215 34.2912 33.1781 34.2236C32.3346 34.156 30.047 34.3587 29.8041 35.1494C29.5612 35.94 30.209 36.359 31.8285 37.0753C33.448 37.7916 37.1458 41.2041 37.942 43.0624L39.3861 42.8191C39.3861 42.8191 36.7207 39.5418 36.6127 39.3458C36.5047 39.1498 37.7396 38.3862 38.4819 37.2104C39.2241 36.0346 39.1567 35.0075 39.0015 34.7237C38.8463 34.4399 37.6586 34.3587 37.301 33.9263Z" fill="white"/>
<path d="M40.863 42.7848L45.3575 40.2305L51.4783 51.0087C51.4783 51.0087 45.4385 43.9336 40.863 42.7848Z" fill="white"/>
<path d="M17.365 31.1279C17.365 31.1279 17.0951 34.108 18.1746 35.6554C17.4016 37.1031 17.1287 38.7664 17.3988 40.3857C17.9048 42.8995 19.0315 44.0753 19.1799 44.1902C18.4245 42.9778 18.0573 41.5631 18.1274 40.1357C18.0808 38.5226 18.4976 36.93 19.3284 35.5473C19.3284 35.5473 18.5187 33.1552 18.964 31.8577C18.8165 31.9504 18.6483 32.005 18.4745 32.0165C18.3008 32.0281 18.1269 31.9963 17.9684 31.9239C17.8099 31.8516 17.6719 31.741 17.5665 31.6021C17.4612 31.4632 17.392 31.3002 17.365 31.1279Z" fill="white"/>
<path d="M40.9424 27.1547L52.1974 27.8304L40.9829 26.0938C41.0144 26.4477 41.0007 26.8042 40.9424 27.1547Z" fill="white"/>
<path d="M38.7828 19.154L48.0001 12.9033L38.324 18.2147C38.5118 18.5095 38.6657 18.8246 38.7828 19.154Z" fill="white"/>
<path d="M33.6653 13.7612L38.1255 2.73291L32.5317 13.599C32.5317 13.599 33.4224 13.4368 33.6653 13.7612Z" fill="white"/>
<path d="M24.8352 2.99609L27.7299 13.8757C27.3232 14.0335 26.9285 14.2209 26.5491 14.4365C26.4411 14.5514 24.8352 2.99609 24.8352 2.99609Z" fill="white"/>
<path d="M22.1579 17.5661L15.8691 11.9033L21.6249 18.796L22.1579 17.5661Z" fill="white"/>
<path d="M19.0505 22.7694L9.12476 22.0464L18.3825 24.3372L19.0505 22.7694Z" fill="white"/>
<path d="M90.6468 27.5333C90.158 29.2553 89.5699 30.9475 88.8856 32.6014C86.9933 33.083 85.0544 33.3571 83.1029 33.4191C74.6549 33.4191 71.1731 28.0131 71.1731 22.972C71.1731 16.4645 76.1326 12.0586 83.6697 12.0586C85.6678 12.1311 87.6552 12.3845 89.6076 12.8154C89.7628 14.2953 89.9855 16.6199 90.2014 18.0052L88.9464 18.2282C88.2716 15.7685 87.3472 14.6062 85.6805 13.9507C84.8032 13.641 83.8779 13.49 82.9477 13.5047C78.3931 13.5047 76.0989 17.3159 76.0989 22.2489C76.0989 28.0063 79.0543 31.9054 83.3593 31.9054C85.9977 31.9054 87.752 30.5539 89.4322 27.067L90.6468 27.5333Z" fill="white"/>
<path d="M105.81 12.0586C111.62 12.0586 116.363 16.3091 116.363 22.5057C116.363 29.2024 111.593 33.4191 105.655 33.4191C99.3728 33.4191 94.8181 28.824 94.8181 22.7557C94.8181 17.397 98.6508 12.0586 105.81 12.0586ZM105.338 13.4101C102.139 13.4101 99.7844 16.5591 99.7844 22.1205C99.7844 27.4387 101.883 32 106.127 32C109.11 32 111.438 29.1078 111.438 23.3504C111.438 17.1537 108.981 13.4439 105.338 13.4439V13.4101Z" fill="white"/>
<path d="M142.265 13.6671C140.241 13.8563 139.721 14.451 139.566 15.5862C139.437 16.9856 139.383 18.3909 139.404 19.7961V23.9182C139.404 26.6212 138.966 29.358 137.177 31.2501C135.733 32.7571 133.5 33.4193 131.273 33.4193C129.202 33.4193 127.123 32.9801 125.652 31.784C123.831 30.3987 122.953 28.4796 122.953 24.9589V16.9985C122.953 14.1063 122.67 13.8833 120.288 13.6671V12.498H129.991V13.6671C127.636 13.8833 127.353 14.1063 127.353 16.9985V25.3643C127.353 28.8918 129.08 31.2164 132.441 31.2164C136.179 31.2164 137.839 28.4458 137.839 23.729V19.7961C137.839 17.627 137.744 16.4985 137.683 15.5524C137.555 14.1063 136.678 13.7887 134.478 13.6671V12.498H142.265V13.6671Z" fill="white"/>
<path d="M167.417 13.6671C165.502 13.9171 164.901 14.3428 164.807 15.7416C164.712 16.9648 164.618 18.0392 164.618 20.776V33.2909H162.864L149.77 17.5662V24.6751C149.739 26.3007 149.79 27.9269 149.925 29.5472C150.046 30.8987 150.707 31.6556 153.035 31.784V32.9395H145.243V31.7772C147.037 31.615 147.82 31.1488 148.009 29.6689C148.168 28.0071 148.231 26.3374 148.198 24.6683V17.2351C148.286 16.3322 148.047 15.4277 147.523 14.6875C146.956 13.8968 146.207 13.8022 144.885 13.6806V12.5116H151.011L162.972 26.4523V20.776C162.972 18.0392 162.972 16.9985 162.85 15.8363C162.756 14.4848 162.25 13.809 159.646 13.6671V12.498H167.404L167.417 13.6671Z" fill="white"/>
<path d="M188.703 17.9448C188.435 16.847 187.979 15.8044 187.354 14.8634C186.787 14.1876 186.538 13.9511 184.656 13.9511H182.632V28.7298C182.632 31.3719 182.949 31.5612 185.742 31.7842V32.9397H175.373V31.7774C178.072 31.5544 178.321 31.3652 178.321 28.723V13.9511H176.405C174.651 13.9511 174.145 14.2281 173.552 14.985C172.989 15.9172 172.555 16.9221 172.263 17.9718H171.069C171.292 15.681 171.508 13.2416 171.569 11.7144H172.513C172.985 12.4374 173.363 12.4982 174.301 12.4982H186.861C187.206 12.5312 187.554 12.4766 187.872 12.3396C188.191 12.2027 188.469 11.9876 188.683 11.7144H189.594C189.594 13.0659 189.755 15.8027 189.911 17.8502L188.703 17.9448Z" fill="white"/>
<path d="M213.433 33.1349C213.244 33.1349 212.873 33.1349 212.495 33.1011C208.507 32.9119 207.34 32.0672 206.422 30.7427C205.239 28.9606 204.158 27.1128 203.184 25.2083C203.026 24.8454 202.752 24.5456 202.405 24.357C202.057 24.1684 201.657 24.1017 201.267 24.1677H200.64V28.756C200.64 31.3036 200.957 31.5266 203.339 31.8104V32.9389H193.683V31.7766C196.065 31.5266 196.382 31.2698 196.382 28.7222V16.7209C196.382 14.2341 196.072 13.8895 193.683 13.7003V12.5312H202.785C205.586 12.5312 207.185 12.8489 208.474 13.7273C209.151 14.1872 209.7 14.8128 210.069 15.5449C210.437 16.2769 210.613 17.0912 210.579 17.9102C210.579 20.7146 208.723 22.1877 206.652 23.0054C207.124 23.9514 208.345 25.999 209.29 27.4451C209.996 28.5985 210.795 29.6924 211.679 30.7157C212.177 31.3657 212.87 31.8392 213.656 32.0672L213.433 33.1349ZM201.47 22.85C202.819 22.85 203.858 22.627 204.547 22.0323C205.06 21.5743 205.461 21.0035 205.717 20.3646C205.973 19.7256 206.079 19.0359 206.024 18.3495C206.024 15.018 204.108 13.8219 202.347 13.8219C201.503 13.8219 201.092 13.9503 200.903 14.1328C200.714 14.3152 200.619 14.7004 200.619 15.3289V22.85H201.47Z" fill="white"/>
<path d="M234.088 13.6665C232.064 13.8828 231.355 14.3423 230.222 16.2412C229.088 18.14 228.123 19.924 226.578 23.0662C226.317 23.5819 226.198 24.1582 226.234 24.7353V28.6344C226.234 31.3712 226.49 31.4658 229.061 31.7834V32.9389H219.135V31.7767C221.619 31.4591 221.834 31.3644 221.834 28.6277V25.0124C221.855 24.507 221.733 24.0059 221.484 23.5663C220.573 21.708 219.412 19.5996 217.529 16.302C216.369 14.2747 215.897 13.849 214.075 13.6598V12.4907H223.278V13.6598C221.173 13.9436 221.254 14.3355 221.767 15.4505C222.806 17.4778 224.156 20.0118 225.35 22.3094C226.295 20.5457 227.799 17.5251 228.677 15.6059C229.277 14.349 229.027 13.9436 226.76 13.6598V12.4907H234.081L234.088 13.6665Z" fill="white"/>
<path d="M265.683 13.6671C263.423 13.9509 262.984 14.4172 262.134 16.9985C261.318 19.4177 258.963 26.878 256.979 33.2909H255.225C253.619 28.7634 251.851 24.1075 250.042 19.3907C248.41 24.121 246.837 28.7296 245.36 33.2909H243.538C242.283 28.858 240.272 22.3437 238.511 16.7755C237.728 14.3901 237.256 13.8563 235.339 13.6671V12.498H244.827V13.6671C242.472 13.8833 242.411 14.3429 242.849 15.9917C243.882 19.607 244.982 23.2898 246.021 26.7158C247.62 22.2829 249.132 17.5324 250.576 12.6602H252.242C253.97 17.4716 255.758 22.1545 257.485 26.7496C258.646 23.3709 260.184 18.1 260.596 16.3093C261.007 14.5186 260.717 13.8833 258.018 13.6671V12.498H265.683V13.6671Z" fill="white"/>
<path d="M268.03 32.9392V31.7769C270.412 31.5539 270.695 31.3647 270.695 28.7225V16.7212C270.695 14.079 270.385 13.829 268.03 13.6398V12.4707H277.74V13.6398C275.385 13.856 275.041 14.079 275.041 16.7212V28.7022C275.041 31.3174 275.324 31.5066 277.74 31.7566V32.9392H268.03Z" fill="white"/>
<path d="M291.637 12.4977C295.652 12.4977 298.607 13.3492 300.618 15.2345C301.556 16.1127 302.294 17.1829 302.782 18.3723C303.27 19.5617 303.496 20.8424 303.445 22.1272C303.496 23.7107 303.165 25.2831 302.482 26.712C301.798 28.1408 300.782 29.3843 299.518 30.3375C297.19 32.1013 294.208 32.9797 290.632 32.9797H281.995V31.8174C284.377 31.6282 284.694 31.3444 284.694 28.736V16.7212C284.694 14.079 284.35 13.829 281.995 13.6398V12.4707L291.637 12.4977ZM289.026 28.4792C289.026 30.716 289.592 31.4661 291.887 31.4661C296.124 31.4661 298.574 28.513 298.574 22.5664C298.574 19.5796 297.757 16.9644 296.313 15.6129C294.964 14.2952 293.364 13.856 291.259 13.856C290.092 13.856 289.559 14.106 289.37 14.2952C289.181 14.4844 289.026 15.1129 289.026 16.0252V28.4792Z" fill="white"/>
<path d="M324.993 27.6004C324.838 28.4451 323.955 32.0672 323.645 32.9456H307.385V31.8104C310.238 31.5333 310.427 31.3711 310.427 28.7289V16.7209C310.427 14.0516 310.049 13.8624 307.918 13.6732V12.5042H318.121C321.412 12.5042 322.512 12.5042 322.95 12.4434C322.95 13.011 323.139 15.5923 323.267 17.5385L322.04 17.6939C321.795 16.6382 321.336 15.6444 320.691 14.7747C320.124 14.1395 319.72 13.957 318.121 13.957H316.098C314.905 13.957 314.783 14.0178 314.783 15.0855V21.6606H317.858C319.612 21.6606 319.929 21.1876 320.401 18.9576H321.622V25.9719H320.401C319.895 23.6405 319.646 23.2689 317.825 23.2689H314.783V28.6749C314.783 30.844 314.844 31.5063 316.806 31.5401H319.039C320.799 31.5401 321.264 31.3171 321.959 30.4656C322.73 29.5053 323.373 28.4492 323.874 27.3234L324.993 27.6004Z" fill="white"/>
<path d="M97.4945 41.6292C95.4297 41.8387 95.2408 42.0009 95.2408 44.2039V54.3401C95.2408 56.543 95.4567 56.7052 97.4945 56.8877V57.8743H89.3096V56.8877C91.4014 56.6241 91.5566 56.543 91.5566 54.3401V49.3531H84.4041V54.3401C84.4041 56.543 84.647 56.6782 86.6308 56.8877V57.8743H78.4729V56.8877C80.4365 56.6782 80.7266 56.543 80.7266 54.3401V44.2039C80.7266 42.0009 80.4837 41.7914 78.4729 41.6292V40.6494H86.6308V41.6292C84.6065 41.8117 84.4041 42.0009 84.4041 44.2039V47.9948H91.5633V44.2039C91.5633 42.0009 91.3002 41.8387 89.3164 41.6292V40.6494H97.5012L97.4945 41.6292Z" fill="white"/>
<path d="M119.641 40.2778C124.547 40.2778 128.541 43.8593 128.541 49.0626C128.541 54.7119 124.493 58.2664 119.513 58.2664C114.209 58.2664 110.37 54.3943 110.37 49.2788C110.37 44.7581 113.602 40.2778 119.641 40.2778ZM119.243 41.4401C116.544 41.4401 114.56 44.0958 114.56 48.7923C114.56 53.2725 116.328 57.1243 119.904 57.1243C122.421 57.1243 124.385 54.6849 124.385 49.8262C124.385 44.5756 122.32 41.4401 119.243 41.4401Z" fill="white"/>
<path d="M155.27 57.8944V56.9078C157.294 56.6983 157.416 56.5091 157.416 54.1237V43.778C155.513 48.3393 153.415 53.3804 151.513 57.8944H150.636C148.915 53.5696 147.033 48.6299 145.131 43.9875C144.787 52.3195 144.787 53.9683 144.787 54.9211C144.787 56.3537 145.34 56.7253 147.323 56.9078V57.8944H140.759V56.9078C142.27 56.7794 142.959 56.4888 143.168 54.8805C143.276 54.0832 143.384 52.5695 143.991 43.8185C144.072 42.5414 143.883 41.825 141.603 41.6156V40.6357H147.323L152.437 52.333L157.577 40.6357H163.163V41.6156C161.045 41.825 160.809 42.0413 160.863 44.1631L161.072 54.1102C161.072 56.4956 161.207 56.6037 163.352 56.8943V57.8809L155.27 57.8944Z" fill="white"/>
<path d="M190.457 53.3809C190.322 54.0972 189.58 57.1516 189.344 57.8949H175.592V56.9353C178.001 56.6988 178.163 56.5637 178.163 54.3405V44.2042C178.163 41.9472 177.846 41.7918 176.044 41.6296V40.6498H184.668C187.448 40.6498 188.372 40.6498 188.716 40.5957C188.716 41.0755 188.878 43.2447 188.986 44.8935L187.947 45.0219C187.74 44.1314 187.354 43.2923 186.813 42.5554C186.334 42.0283 185.99 41.8796 184.641 41.8796H182.913C181.908 41.8796 181.807 41.9337 181.807 42.8392V48.3804H184.398C185.882 48.3804 186.145 47.9817 186.543 46.0963H187.576V52.0159H186.557C186.139 50.0562 185.923 49.7319 184.384 49.7319H181.82V54.2999C181.82 56.1312 181.867 56.6853 183.514 56.7123H185.396C186.874 56.7123 187.272 56.5231 187.859 55.8068C188.511 54.9986 189.053 54.1079 189.472 53.1579L190.457 53.3809Z" fill="white"/>
<path d="M235.497 53.3267C235.09 54.7793 234.594 56.2056 234.013 57.5974C232.418 58 230.785 58.2266 229.141 58.2731C222.009 58.2731 219.073 53.6848 219.073 49.4884C219.073 43.9945 223.257 40.2847 229.613 40.2847C231.298 40.3445 232.974 40.5571 234.62 40.9199C234.755 42.1633 234.937 44.1297 235.126 45.2987L234.067 45.4812C233.507 43.4134 232.717 42.4336 231.307 41.8727C230.568 41.6149 229.789 41.4891 229.006 41.501C225.167 41.501 223.23 44.7108 223.23 48.8802C223.23 53.7321 225.72 57.023 229.35 57.023C231.577 57.023 233.061 55.854 234.492 52.9347L235.497 53.3267Z" fill="white"/>
<path d="M257.715 57.8943V56.9077C259.389 56.6712 259.389 56.3806 259.018 55.2386C258.748 54.4412 258.343 53.2519 257.931 52.1842H252.776C252.486 53.0086 252.101 54.0155 251.852 54.8399C251.292 56.509 251.933 56.7253 254.024 56.9077V57.8943H247.479V56.9077C249.146 56.6982 249.571 56.4617 250.475 54.2047L255.981 40.487L257.257 40.2505C258.95 44.8659 260.752 49.5893 262.472 54.0155C263.451 56.482 263.694 56.6712 265.414 56.8807V57.8673L257.715 57.8943ZM255.387 45.2105C254.618 47.1229 253.876 48.9001 253.215 50.8327H257.425L255.387 45.2105Z" fill="white"/>
<path d="M293.629 58.0499C293.467 58.0499 293.15 58.0499 292.833 58.0499C289.459 57.8945 288.487 57.1782 287.691 56.0632C286.704 54.5591 285.803 53.0001 284.992 51.3938C284.858 51.0877 284.626 50.835 284.333 50.6759C284.039 50.5167 283.701 50.4602 283.372 50.5153H282.846V54.3941C282.846 56.543 283.109 56.7255 285.093 56.962V57.9486H276.996V56.962C279.02 56.7525 279.25 56.543 279.25 54.3941V44.2579C279.25 42.1631 278.98 41.8725 276.996 41.7103V40.7305H284.681C287.036 40.7305 288.386 40.994 289.472 41.7373C290.044 42.125 290.507 42.6526 290.817 43.27C291.128 43.8874 291.276 44.574 291.247 45.2647C291.247 47.6231 289.688 48.8733 287.941 49.5625C288.332 50.3599 289.371 52.0831 290.161 53.3062C290.76 54.2783 291.437 55.2004 292.185 56.0632C292.601 56.6218 293.185 57.0316 293.851 57.2323L293.629 58.0499ZM283.507 49.3733C284.424 49.4649 285.343 49.2252 286.098 48.6976C286.531 48.3119 286.869 47.8312 287.085 47.2932C287.302 46.7551 287.391 46.1743 287.347 45.5959C287.347 42.7848 285.734 41.7779 284.25 41.7779C283.534 41.7779 283.19 41.8792 283.028 42.0414C282.866 42.2036 282.792 42.5144 282.792 43.0483V49.3868L283.507 49.3733Z" fill="white"/>
<path d="M319.87 53.3809C319.735 54.0972 318.993 57.1516 318.757 57.8949H305.005V56.9353C307.421 56.6988 307.576 56.5637 307.576 54.3405V44.2042C307.576 41.9472 307.259 41.7918 305.457 41.6296V40.6498H314.067C316.847 40.6498 317.778 40.6498 318.116 40.5957C318.116 41.0755 318.271 43.2447 318.379 44.8935L317.346 45.0219C317.137 44.1309 316.749 43.2917 316.206 42.5554C315.727 42.0283 315.383 41.8796 314.033 41.8796H312.313C311.307 41.8796 311.199 41.9337 311.199 42.8392V48.3804H313.797C315.282 48.3804 315.545 47.9817 315.943 46.0963H316.975V52.0159H315.943C315.518 50.0562 315.309 49.7319 313.77 49.7319H311.199V54.2999C311.199 56.1312 311.253 56.6853 312.893 56.7123H314.775C316.26 56.7123 316.658 56.5231 317.238 55.8068C317.892 54.9988 318.436 54.1082 318.858 53.1579L319.87 53.3809Z" fill="white"/>
</g>
<defs>
<clipPath id="clip0">
<rect width="325" height="69.6429" fill="white" transform="translate(0 0.178711)"/>
</clipPath>
</defs>
</svg>
