<svg width="60" height="60" viewBox="0 0 60 60" fill="none" xmlns="http://www.w3.org/2000/svg">
<g clip-path="url(#clip0)">
<path d="M50.7578 10.2716C47.2788 10.2716 45.718 12.2164 45.1038 13.3589C45.0267 13.5023 44.8173 13.5022 44.7404 13.3586C44.1283 12.2162 42.5761 10.2716 39.0975 10.2716C35.1348 10.2716 31.6489 12.9697 31.6489 17.8967C31.6489 19.8904 32.0563 21.5984 33.1869 23.5046C35.4908 27.3891 43.0808 30.5914 44.6399 31.5836C44.8122 31.6933 45.0306 31.6937 45.2032 31.5843C46.7635 30.5968 54.3549 27.4195 56.6769 23.5046C57.8075 21.5984 58.2121 19.8904 58.2121 17.8967C58.2119 12.9698 54.7205 10.2716 50.7578 10.2716Z" fill="#E31E22"/>
<path d="M55.3768 40.43H43.882C43.7216 39.5262 43.2952 38.6634 42.6095 37.9692C42.5997 37.9593 42.5897 37.9495 42.5795 37.9399L35.1047 30.8931C33.4314 29.3155 31.2471 28.4467 28.9545 28.4467H12.1204V28.4432C12.1204 27.7961 11.5957 27.2713 10.9485 27.2713H1.17188C0.524648 27.2713 0 27.7961 0 28.4432V39.831C0 40.4781 0.524648 41.0028 1.17188 41.0028H10.9485C11.5957 41.0028 12.1204 40.4781 12.1204 39.831V39.8275H20.0065C20.274 40.7605 20.6319 41.7989 21.1065 42.842C23.1567 47.3473 26.3764 49.7287 30.4178 49.7287H55.3768C57.926 49.7287 60 47.643 60 45.0794C60 42.5159 57.926 40.43 55.3768 40.43ZM9.7766 38.6591H2.34375V29.615H9.7766V38.6591ZM55.3768 47.3849H30.4177C22.9046 47.3849 21.6138 36.1461 21.6018 36.0337C21.534 35.39 20.9568 34.9235 20.3137 34.9909C19.67 35.0586 19.2032 35.6353 19.2709 36.2789C19.2761 36.3275 19.325 36.7768 19.4552 37.4837H12.1204V30.7905H28.9546C30.6471 30.7905 32.2603 31.4326 33.4971 32.5986L38.7207 37.5232L37.7961 38.4548C37.3402 38.9142 37.3431 39.6561 37.8025 40.1121C38.031 40.339 38.3295 40.4522 38.6279 40.4522C38.9292 40.4522 39.2306 40.3366 39.4597 40.1058L40.4268 39.1315L40.9552 39.6296C41.7486 40.4466 41.8214 41.7777 41.1236 42.6805C41.0788 42.7315 40.972 42.8529 40.9287 42.9016C40.6034 43.2259 40.1977 43.4346 39.754 43.5057C39.0693 43.6153 38.3925 43.3904 37.8964 42.8882C37.873 42.8645 37.8485 42.8417 37.8232 42.8201L29.9245 36.0821C29.4321 35.662 28.6924 35.7206 28.2724 36.213C27.8524 36.7055 27.911 37.4451 28.4034 37.8651L36.2671 44.5732C37.1157 45.4123 38.257 45.8755 39.4266 45.8754C39.6589 45.8754 39.8926 45.8571 40.125 45.8198C41.074 45.6676 41.9355 45.2209 42.619 44.5256C42.6298 44.5146 42.8623 44.2565 42.9445 44.1559L42.9448 44.1562C43.2816 43.731 43.5333 43.2629 43.7012 42.7739H55.3772C56.6341 42.7739 57.6566 43.8081 57.6566 45.0794C57.6566 46.3508 56.6337 47.3849 55.3768 47.3849Z" fill="#193982"/>
</g>
<defs>
<clipPath id="clip0">
<rect width="60" height="60" fill="white"/>
</clipPath>
</defs>
</svg>
