<svg width="65" height="74" viewBox="0 0 65 74" fill="none" xmlns="http://www.w3.org/2000/svg">
<g clip-path="url(#clip0)">
<path d="M39.5322 25.0583C39.5322 25.0583 38.3702 24.8043 38.4972 25.0075C38.6242 25.2107 39.2528 25.09 38.8972 25.7123C38.5417 26.3347 37.8242 27.6873 37.4876 27.6619C37.1511 27.6365 36.1542 25.8775 35.3669 26.2394C34.5796 26.6014 34.2494 27.2555 33.9827 27.1221C33.716 26.9888 32.1477 26.6585 32.1477 26.6585C33.03 26.0411 33.9552 25.4873 34.9161 25.0011C37.0241 23.8581 38.3385 24.3534 39.5322 25.0583Z" fill="#193982"/>
<path d="M21.5757 58.9816C21.6138 60.7279 25.5568 53.1139 25.7918 52.8789C28.0268 50.6373 27.5633 54.4411 28.0966 54.8221C28.63 55.2031 30.0015 52.1613 30.8142 51.774C37.7162 48.4591 52.5232 53.6791 57.6282 55.6794L49.4755 41.3404L43.1259 44.9538C42.7704 44.3759 40.7068 41.8231 40.7068 41.8231C40.7068 41.8231 42.6116 39.6894 42.8085 39.067C43.0053 38.4447 43.6339 36.4698 43.6339 36.4698V33.9296C43.6929 33.5232 43.6929 33.1104 43.6339 32.704C43.5196 32.3611 43.3355 32.1452 43.4244 31.7578C43.5133 31.3705 44.2689 30.3735 44.4022 29.7067L57.8886 29.5225L44.4085 27.2936C44.4581 26.3064 44.282 25.3209 43.8936 24.412C43.5052 23.5031 42.9148 22.6947 42.1672 22.0482C42.1672 22.0482 42.6116 23.3881 42.1227 23.7755C41.6338 24.1629 39.8242 22.0228 39.6909 21.826C39.5575 21.6291 39.5575 20.4861 38.8083 19.7939C38.7484 20.0205 38.6362 20.2299 38.4807 20.4052C38.3252 20.5806 38.1308 20.717 37.913 20.8036C37.2209 21.0068 34.0588 20.7083 31.519 22.5055C29.9671 23.5985 28.2529 24.4406 26.4394 25.0011C26.4394 25.0011 28.7252 24.9567 28.7887 25.5345C28.8522 26.1124 26.2934 29.6114 25.6902 29.459C25.1967 29.3902 24.6938 29.4466 24.2278 29.6231C23.7618 29.7995 23.3476 30.0903 23.0234 30.4687C22.6095 30.9891 22.3147 31.5938 22.1598 32.2405C22.4759 30.6977 22.9177 29.1834 23.4805 27.7127C22.99 28.5039 22.5407 29.3199 22.1344 30.1576L22.2424 29.8591C22.2424 29.8591 21.5122 29.3765 21.4297 29.4654C21.3471 29.5543 21.1439 30.0242 21.3916 30.2401C21.557 30.3793 21.7381 30.4986 21.9313 30.5957C21.5544 31.4182 21.2382 32.2672 20.9852 33.1359C20.6677 33.2565 20.2169 33.4788 20.0201 32.8183C19.7343 31.7388 22.2043 19.6161 27.976 16.4981C33.7477 13.3801 37.3542 15.59 39.4051 17.5713C40.5909 18.6512 41.5121 19.9897 42.0973 21.4831L53.0883 12.726L41.3608 18.8604C40.3287 17.5003 39.0648 16.3331 37.6273 15.4122L41.983 1.13036L35.1446 14.2691C33.8176 13.8881 31.265 14.2056 31.265 14.2056L26.414 -0.0126953L28.6173 15.3931C27.461 15.9515 26.407 16.7007 25.4997 17.6094L14.1341 9.17618C14.1341 9.17618 23.4805 19.6732 23.252 20.0987C23.0234 20.5242 21.7535 23.1786 21.7535 23.1786L6.51465 22.7976L20.2423 26.1632C20.0188 26.3892 19.838 26.6538 19.7089 26.9443C19.5692 27.3253 18.7311 32.1833 18.8581 34.2789C18.9577 35.4752 19.2271 36.6512 19.6581 37.7716C19.2583 38.4868 18.9734 39.2604 18.8137 40.064C18.6295 41.4865 18.7629 43.9631 20.0836 45.7793C20.5219 46.3184 20.889 46.9117 21.1757 47.5447C20.2208 47.922 19.3232 48.4307 18.5089 49.056C13.08 53.787 12.0641 58.137 12.0641 58.137C13.5436 55.5969 22.9662 48.8782 23.271 50.0784C23.5758 51.2786 21.5376 57.2352 21.5757 58.9816ZM22.4837 38.6035C22.4837 38.6035 22.6869 39.0099 22.8837 39.5052C22.9077 39.5905 22.9396 39.6734 22.9789 39.7529C23.0424 39.9116 23.0932 40.0767 23.144 40.2355C23.3064 41.6084 23.2808 42.9971 23.0678 44.3632C22.7542 45.3268 22.3874 46.2723 21.9694 47.1954L21.582 47.3542C21.8106 46.7763 22.1218 45.9571 22.2551 45.538L22.3503 45.4745C22.8329 45.0363 21.7154 44.1346 21.436 44.6362C21.436 44.6362 22.071 44.7124 22.0011 45.1697C21.9313 45.6269 20.9407 45.0744 21.1185 44.3441C21.2963 43.6138 22.1154 43.5884 22.8138 44.2171C22.8138 44.2171 21.6519 42.8391 20.909 43.8679C20.8843 43.9017 20.8631 43.9378 20.8455 43.9758C20.8663 43.7409 20.9023 43.5075 20.9534 43.2773C21.2074 42.1342 22.4837 38.6035 22.4837 38.6035ZM21.9376 45.5888C21.8686 45.5988 21.7983 45.5938 21.7314 45.5741C21.6646 45.5544 21.6028 45.5204 21.5503 45.4745C21.6736 45.5276 21.8041 45.5618 21.9376 45.5761V45.5888ZM22.9472 31.4149C22.8931 31.957 22.9771 32.5039 23.1913 33.0047C23.4056 33.5055 23.7432 33.9438 24.1726 34.2789C24.554 34.6194 25.0025 34.8761 25.4892 35.0325C25.9758 35.1889 26.4899 35.2415 26.9982 35.187C26.8438 35.3061 26.6667 35.3923 26.4778 35.4403C26.2889 35.4884 26.0922 35.4972 25.8997 35.4664C25.3791 35.3267 27.8554 42.0072 26.16 45.8491C24.9917 46.1398 23.8406 46.496 22.7123 46.916C24.0837 44.8013 25.0933 40.3434 25.2076 39.8164C25.2725 39.689 25.3154 39.5516 25.3346 39.4099C25.3747 39.2444 25.361 39.0703 25.2953 38.9131C25.2297 38.7559 25.1156 38.6238 24.9697 38.5359C24.8237 38.4481 24.6536 38.4091 24.484 38.4247C24.3143 38.4402 24.1541 38.5096 24.0266 38.6225C23.5821 39.0353 23.9314 39.5624 24.179 39.5179C24.179 39.5179 24.0711 39.1115 24.4012 38.9718C24.7314 38.8321 25.2013 39.3655 24.5473 39.9053C23.8933 40.445 23.2139 39.8672 23.125 39.1686C23.1422 38.9176 23.2161 38.6738 23.3412 38.4554C23.4662 38.2371 23.6392 38.05 23.847 37.9082C24.0548 37.7663 24.2921 37.6735 24.541 37.6367C24.7898 37.5998 25.0438 37.6199 25.2838 37.6954C25.0678 37.5126 24.7987 37.4042 24.5164 37.3859C24.2341 37.3676 23.9533 37.4404 23.7155 37.5938C23.4938 37.7016 23.3007 37.8601 23.1518 38.0565C23.0029 38.2529 22.9023 38.4816 22.8583 38.7241C22.6488 37.7779 22.3884 36.4507 22.2233 35.7395C22.1078 34.7746 22.0632 33.8025 22.09 32.831L22.9472 31.4149ZM33.6906 47.6907C33.6906 47.6907 32.5921 45.7539 39.9131 46.1984C43.8371 46.4334 47.4754 49.9514 47.4754 49.9514C39.2019 45.3411 33.6906 47.6907 33.6906 47.6907ZM30.738 48.3258C30.2491 47.424 29.8428 47.5193 29.8428 47.5193C29.8428 47.5193 30.1602 46.7064 30.7317 47.0049C31.3031 47.3034 31.7159 49.3291 31.5063 49.9705C31.3666 50.396 31.227 49.2021 30.738 48.3004V48.3258ZM28.0585 45.7094C27.912 43.4375 27.6257 41.1768 27.2014 38.94L27.6839 39.8608C28.5681 37.9825 28.932 35.9013 28.7379 33.8344C28.7379 33.8344 26.9029 34.7488 25.6648 34.5964C24.4266 34.444 25.4933 33.574 25.8997 33.4089C26.2795 33.2837 26.6678 33.1861 27.0617 33.1168C27.352 32.6932 27.7028 32.3145 28.103 31.9928C28.6364 31.6054 29.2967 30.9196 28.6744 30.5132C28.0522 30.1068 29.157 28.0175 29.9888 27.338C30.8206 26.6586 31.1444 26.811 31.6651 26.068C32.1857 25.325 32.7 24.0359 34.8017 23.3246C36.3077 22.8773 37.8841 22.7157 39.4496 22.8484C39.4496 22.8484 41.9894 25.5028 42.7513 27.1856C42.7513 27.1856 41.3036 25.6425 41.1322 25.7124C40.9608 25.7822 40.929 26.4363 40.929 26.4363C40.929 26.4363 42.7767 28.8494 42.9164 29.2431C43.0561 29.6368 42.1608 28.8685 41.4497 28.8558C40.6576 28.9616 39.9276 29.3413 39.3861 29.929C39.0623 30.329 39.6147 30.5195 40.0591 30.4878C40.2976 30.4625 40.5381 30.4625 40.7766 30.4878C40.7766 30.4878 41.075 30.8751 41.1893 31.0085C41.323 31.1494 41.4854 31.2599 41.6656 31.3324C41.711 31.3541 41.7515 31.3851 41.7843 31.4234C41.8171 31.4617 41.8415 31.5064 41.856 31.5546C41.856 31.5546 41.5767 31.6181 41.4687 31.5546C41.3608 31.4911 41.2846 31.1863 40.8338 31.0974C39.9221 31.1265 39.0453 31.4545 38.3384 32.0309C38.3384 32.0309 38.3384 32.2024 38.8845 32.0309C39.4305 31.8594 39.5702 31.6118 40.1544 31.7197C40.3619 31.7439 40.5625 31.8091 40.7445 31.9116C40.9266 32.0141 41.0864 32.1518 41.2147 32.3167C41.4992 32.3392 41.7646 32.4685 41.9576 32.6786C42.2497 33.0152 42.3195 33.2057 42.2434 33.2756C42.1672 33.3454 40.7131 32.5707 40.1988 32.6405C39.6845 32.7104 39.6337 33.0279 39.6337 33.0279C40.3914 33.1448 41.1149 33.4242 41.7544 33.8471C42.5735 34.4821 43.0243 35.2442 42.5926 35.7522C42.1608 36.2602 40.4401 35.4029 40.3385 35.3331C40.2369 35.2632 37.2653 35.7077 36.1097 35.6823C34.9541 35.6569 33.5699 35.6188 32.2238 36.5587C30.8777 37.4985 31.5889 38.3876 33.8239 39.4608C36.103 40.7271 38.0909 42.4579 39.6591 44.541C37.8484 44.2375 35.9959 44.2893 34.2049 44.6934C31.5635 45.4173 30.9793 45.8936 30.8015 45.811C30.5847 45.6867 30.3335 45.6356 30.0853 45.6653C29.837 45.695 29.605 45.8041 29.4237 45.9762C29.2878 45.8286 29.1237 45.7098 28.9411 45.6269C28.645 45.5707 28.3391 45.5993 28.0585 45.7094ZM28.1157 48.3131C27.976 47.1383 27.4807 47.043 27.4807 47.043C27.4807 47.043 28.1728 46.3064 28.6618 46.8652C29.1507 47.424 28.7252 49.7927 28.23 50.396C27.8935 50.8214 28.2554 49.4815 28.103 48.3004L28.1157 48.3131ZM24.4711 51.3549C24.4711 50.1737 25.6013 48.6877 24.0266 48.2877C21.7027 47.678 17.8485 50.7897 17.8485 50.7897C20.0963 47.7479 25.2394 46.5096 26.0584 47.3732C26.8775 48.2369 24.4711 52.5233 24.4711 51.3422V51.3549ZM26.1156 19.9717C26.6748 20.7108 27.3503 21.3542 28.1157 21.8768C28.2935 21.9339 29.2967 20.9115 29.2967 20.9115C28.5319 20.3489 27.8256 19.7106 27.1887 19.0064C26.6934 18.6254 25.7791 19.3557 26.1156 19.959V19.9717ZM35.9637 18.3016C35.6575 17.6872 35.4906 17.0129 35.4748 16.3266C35.4748 16.3266 34.0906 15.355 34.0779 16.1171C34.1763 16.9883 34.4599 17.8284 34.9097 18.581C35.1573 18.9429 36.3891 18.8286 35.9637 18.2889V18.3016ZM36.3764 16.3965C36.3764 16.3965 36.2431 18.2 36.8717 18.8794L37.3098 18.9302C37.3654 18.4234 37.4718 17.9235 37.6273 17.4379C37.8685 16.7648 36.3574 16.4028 36.3574 16.4028L36.3764 16.3965ZM22.3884 27.0967C22.9218 27.3952 23.5059 27.6809 23.5059 27.6809L24.0584 26.7094C23.6159 26.4947 23.1624 26.3039 22.6996 26.1378C22.4265 26.0997 21.8233 26.7919 22.3884 27.0967ZM23.0869 28.1826C23.0869 28.1826 22.1154 27.5095 21.9376 27.6936C21.8215 27.8075 21.7471 27.9571 21.7263 28.1184C21.7056 28.2796 21.7398 28.4432 21.8233 28.5827C22.0475 28.7896 22.3109 28.9494 22.598 29.0526L23.0869 28.1826ZM23.9885 23.4135C24.5409 23.9597 25.5314 24.5693 25.7092 24.4994C25.9956 24.2498 26.2552 23.971 26.4839 23.6676C26.4839 23.6676 25.2584 22.7912 24.6743 22.2959C24.2361 21.9466 23.4107 22.8484 23.9631 23.4135H23.9885ZM30.7761 19.7177C29.9983 19.1175 29.3503 18.3657 28.8713 17.5078C28.7002 17.4374 28.5111 17.4229 28.3313 17.4666C28.1515 17.5102 27.9901 17.6096 27.8703 17.7507C27.7504 17.8917 27.6783 18.067 27.6642 18.2515C27.6501 18.436 27.6948 18.6203 27.7919 18.7778C28.2636 19.4775 28.8728 20.0739 29.5824 20.5305C29.9571 20.7591 30.7507 19.7177 30.7507 19.7177H30.7761ZM32.4588 18.9937C31.7378 18.3091 31.2381 17.4245 31.0238 16.4536C30.3888 16.2822 29.4173 16.5616 29.6205 17.3744C29.9343 18.2085 30.449 18.9523 31.119 19.5399C31.392 19.7304 32.4334 18.9937 32.4334 18.9937H32.4588ZM38.3956 17.6665C38.3956 17.6665 38.1035 18.7842 38.3956 19.2033C38.472 19.3247 38.5721 19.4295 38.6899 19.5113C38.8077 19.5932 38.9408 19.6504 39.0813 19.6796C39.0813 19.6796 39.5385 18.8858 39.2781 18.4095C39.058 18.0753 38.7413 17.8161 38.3702 17.6665H38.3956ZM25.2076 25.09C24.6051 24.7386 23.9665 24.4533 23.3028 24.2391C23.0234 24.3089 22.4646 25.0011 23.0234 25.3885C23.4573 25.6814 23.9324 25.9083 24.433 26.0616L25.2076 25.09ZM24.7949 21.3751C24.9536 22.1054 26.6997 23.1341 27.0363 23.0643C27.3728 22.9944 27.7728 22.2451 27.7728 22.2451C27.0363 21.9974 25.6965 20.448 25.6965 20.448C25.5124 20.3083 24.6425 20.6512 24.7949 21.3751ZM39.9575 20.1876C40.129 20.4289 40.5925 20.9115 40.7385 20.7718C40.875 20.6475 40.9651 20.4804 40.9939 20.298C41.0228 20.1156 40.9887 19.9289 40.8973 19.7685C40.7098 19.4828 40.4395 19.2612 40.1226 19.1334C40.1226 19.1334 39.7861 19.9399 39.9575 20.1876ZM34.2938 18.6318C33.9068 18.245 33.6117 17.7763 33.4302 17.2601C33.2207 16.5298 33.4302 15.9901 33.189 15.8503C33.189 15.8503 32.0524 15.8059 31.8619 16.1679C31.6714 16.5298 32.4207 18.0031 33.0112 18.8286L34.2938 18.6318Z" fill="#193982"/>
<path d="M29.811 57.1401C39.7353 52.0598 54.1805 57.5719 60.2887 60.3914L64.2 67.2751C61.1522 65.7511 55.7678 62.7474 48.5992 60.8867C37.6717 58.0545 33.3604 56.8987 19.3915 66.9195C13.6388 71.0345 9.04178 73.073 5.52415 74.0128L4.76221 72.6792C12.8642 69.6819 19.8994 62.2203 29.811 57.1401Z" fill="#ED2024"/>
<path d="M20.6359 52.6948C21.1185 53.3299 17.7913 59.1721 9.2449 64.862C6.6162 66.6083 4.43832 67.7196 2.22234 68.1959L0.800049 65.6939C13.9435 61.0772 20.6359 52.6948 20.6359 52.6948Z" fill="#ED2024"/>
<path d="M40.4592 35.8477C40.4592 35.8477 36.967 36.235 36.0654 36.1652C35.1637 36.0953 32.7446 36.3049 32.5096 37.1431C32.2747 37.9814 32.9414 38.4132 34.6875 39.1879C36.4336 39.9626 40.3449 43.576 41.1894 45.5382L42.707 45.2905C42.707 45.2905 39.8751 41.8106 39.7544 41.601C39.6338 41.3915 40.9545 40.585 41.7482 39.334C42.5419 38.083 42.472 36.9907 42.3006 36.6859C42.1292 36.3811 40.8402 36.3049 40.4592 35.8477Z" fill="#193982"/>
<path d="M44.2434 45.2585L49.0182 42.5342L55.5329 53.9647C55.5329 53.9647 49.1071 46.4777 44.2434 45.2585Z" fill="#193982"/>
<path d="M19.2517 32.8691C19.2517 32.8691 18.9724 36.0443 20.1216 37.6827C19.2972 39.2169 19.0047 40.9812 19.2898 42.6994C19.8296 45.3665 21.0296 46.6175 21.1947 46.7382C20.3907 45.4532 19.9986 43.9532 20.0708 42.439C20.0183 40.7273 20.4591 39.0365 21.3407 37.5684C21.3407 37.5684 20.4709 35.0282 20.9471 33.6502C20.9534 33.6439 19.7661 34.3551 19.2517 32.8691Z" fill="#193982"/>
<path d="M44.3894 28.6465L56.3646 29.3831L44.4339 27.5352C44.4661 27.906 44.4512 28.2794 44.3894 28.6465Z" fill="#193982"/>
<path d="M42.1164 20.1429L51.92 13.5068L41.6274 19.1522C41.8292 19.4619 41.9933 19.7944 42.1164 20.1429Z" fill="#193982"/>
<path d="M36.6493 14.415L41.3987 2.69873L35.4429 14.2436C35.4429 14.2436 36.3889 14.0721 36.6493 14.415Z" fill="#193982"/>
<path d="M27.2014 2.97852L30.2809 14.5424C29.8451 14.711 29.4208 14.9083 29.011 15.133C28.9094 15.26 27.2014 2.97852 27.2014 2.97852Z" fill="#193982"/>
<path d="M24.4265 18.46L17.7405 12.4463L23.8614 19.7682L24.4265 18.46Z" fill="#193982"/>
<path d="M21.0487 23.9915L10.4832 23.2231L20.3376 25.6553L21.0487 23.9915Z" fill="#193982"/>
</g>
<defs>
<clipPath id="clip0">
<rect width="65" height="74" fill="white"/>
</clipPath>
</defs>
</svg>
