<svg width="61" height="60" viewBox="0 0 61 60" fill="none" xmlns="http://www.w3.org/2000/svg">
<g clip-path="url(#clip0)">
<path d="M24.4224 23.5164H36.2807C36.9278 23.5164 37.4526 22.9917 37.4526 22.3445C37.4526 21.6973 36.9278 21.1726 36.2807 21.1726H24.4224C23.7751 21.1726 23.2505 21.6973 23.2505 22.3445C23.2505 22.9917 23.7751 23.5164 24.4224 23.5164Z" fill="#E31E22"/>
<path d="M36.9504 32.3037H24.4224C23.7751 32.3037 23.2505 32.8284 23.2505 33.4756C23.2505 34.1228 23.7751 34.6475 24.4224 34.6475H36.9504C37.5975 34.6475 38.1223 34.1228 38.1223 33.4756C38.1223 32.8284 37.5975 32.3037 36.9504 32.3037Z" fill="#193982"/>
<path d="M36.9504 43.4348H24.4224C23.7751 43.4348 23.2505 43.9595 23.2505 44.6067C23.2505 45.2539 23.7751 45.7786 24.4224 45.7786H36.9504C37.5975 45.7786 38.1223 45.2539 38.1223 44.6067C38.1223 43.9595 37.5975 43.4348 36.9504 43.4348Z" fill="#193982"/>
<path d="M46.6789 49.7919C46.2835 49.7919 45.8926 49.7726 45.507 49.7348V56.3878C45.507 57.0872 44.9381 57.6561 44.2387 57.6561H5.98719C5.28781 57.6562 4.71875 57.0873 4.71875 56.3879V9.6157C4.71875 8.91633 5.28781 8.34738 5.98707 8.34738H13.2855V11.2452H8.79336C8.14613 11.2452 7.62148 11.7698 7.62148 12.4171V53.5866C7.62148 54.2338 8.14613 54.7584 8.79336 54.7584H41.4324C42.0795 54.7584 42.6043 54.2338 42.6043 53.5866V49.0761C41.7766 48.7746 40.9914 48.3839 40.2605 47.9156V52.4147H9.96523V13.5889H40.2605V30.0259C40.9914 29.5575 41.7766 29.1668 42.6043 28.8654V12.4171C42.6043 11.7698 42.0795 11.2452 41.4324 11.2452H36.9403V8.34738H44.2386C44.938 8.34738 45.5069 8.91633 45.5069 9.6157V28.2066C45.8925 28.1688 46.2834 28.1495 46.6788 28.1495C47.0742 28.1495 47.4651 28.1688 47.8507 28.2066V9.6157C47.8507 7.62398 46.2303 6.00363 44.2386 6.00363H31.3347C31.2199 2.67363 28.473 0 25.1129 0C21.7528 0 19.0058 2.67363 18.8909 6.00363H5.98719C3.99535 6.00363 2.375 7.62398 2.375 9.6157V56.3879C2.375 58.3797 3.99535 60 5.98719 60H44.2387C46.2304 60 47.8508 58.3797 47.8508 56.3879V49.735C47.4652 49.7726 47.0743 49.7919 46.6789 49.7919ZM15.6293 8.34738H20.1493C20.4987 8.34738 20.8299 8.19141 21.0526 7.92211C21.2752 7.65281 21.3661 7.2982 21.3003 6.95508C21.2544 6.71496 21.2311 6.46793 21.2311 6.22078C21.2311 4.08293 22.9725 2.34375 25.1129 2.34375C27.2533 2.34375 28.9947 4.08293 28.9947 6.22078C28.9947 6.46816 28.9714 6.71508 28.9255 6.95484C28.8596 7.29809 28.9504 7.6527 29.1731 7.92211C29.3957 8.19141 29.7269 8.34738 30.0764 8.34738H34.5965V11.2452H15.6293V8.34738Z" fill="#193982"/>
<path d="M46.6788 50.9637C53.2764 50.9637 58.6249 45.5942 58.6249 38.9706C58.6249 32.347 53.2764 26.9775 46.6788 26.9775C40.0811 26.9775 34.7327 32.347 34.7327 38.9706C34.7327 45.5942 40.0811 50.9637 46.6788 50.9637Z" fill="#E31E22"/>
<path d="M19.8477 23.0491C20.2316 21.425 19.2262 19.7971 17.6021 19.4132C15.9779 19.0293 14.3501 20.0347 13.9661 21.6588C13.5822 23.283 14.5876 24.9108 16.2118 25.2948C17.8359 25.6787 19.4638 24.6733 19.8477 23.0491Z" fill="#E31E22"/>
<path d="M19.0389 46.7403C20.219 45.5602 20.219 43.6468 19.0389 42.4667C17.8588 41.2866 15.9454 41.2866 14.7652 42.4667C13.5851 43.6468 13.5851 45.5602 14.7652 46.7403C15.9454 47.9205 17.8588 47.9205 19.0389 46.7403Z" fill="#E31E22"/>
<path d="M19.8453 34.1829C20.2292 32.5588 19.2238 30.9309 17.5996 30.547C15.9755 30.1631 14.3476 31.1685 13.9637 32.7926C13.5798 34.4168 14.5852 36.0446 16.2093 36.4285C17.8335 36.8125 19.4613 35.8071 19.8453 34.1829Z" fill="#E31E22"/>
<path d="M42.7896 35.0815L50.5677 42.8597" stroke="white" stroke-width="2" stroke-linecap="round"/>
<path d="M50.5679 35.0815L42.7897 42.8597" stroke="white" stroke-width="2" stroke-linecap="round"/>
</g>
<defs>
<clipPath id="clip0">
<rect width="60" height="60" fill="white" transform="translate(0.5)"/>
</clipPath>
</defs>
</svg>
