<svg width="60" height="60" viewBox="0 0 60 60" fill="none" xmlns="http://www.w3.org/2000/svg">
<g clip-path="url(#clip0)">
<path d="M59.9923 12.9852C59.9916 11.0213 58.3931 9.42301 56.4289 9.42219L9.07406 9.4175H9.07242C8.12133 9.4175 7.22719 9.78782 6.55477 10.4602C5.88199 11.133 5.51168 12.0276 5.51203 12.9793L5.51262 15.0185L3.56203 15.0182H3.56039C2.6093 15.0182 1.71504 15.3886 1.04273 16.061C0.369961 16.734 -0.000351312 17.6286 2.50091e-07 18.5803L0.00773462 47.0149C0.00843775 48.9787 1.60676 50.577 3.57105 50.5779L50.9259 50.5824H50.9276C51.8787 50.5824 52.7728 50.2121 53.4452 49.5397C54.118 48.8669 54.4883 47.9723 54.488 47.0206L54.4874 44.9814L56.438 44.9816H56.4396C57.3907 44.9816 58.285 44.6113 58.9573 43.9388C59.63 43.2661 60.0004 42.3714 60 41.4198L59.9923 12.9852ZM51.7879 47.8824C51.558 48.1122 51.2525 48.2387 50.9275 48.2387C50.9271 48.2386 50.9268 48.2386 50.9265 48.2387L3.57164 48.2341C2.8991 48.2337 2.35172 47.6865 2.35148 47.0141L2.34375 18.5795C2.34363 18.2541 2.4702 17.9483 2.7 17.7184C2.92981 17.4886 3.23531 17.3621 3.56086 17.3621H3.56145L50.9162 17.3667C51.5887 17.367 52.1361 17.9144 52.1364 18.5867L52.1441 47.0213C52.1442 47.3466 52.0178 47.6525 51.7879 47.8824ZM57.3 42.2816C57.0702 42.5114 56.7647 42.6378 56.4391 42.6378H56.4386L54.4867 42.6377L54.4801 18.586C54.4794 16.6222 52.881 15.0238 50.9168 15.0231L7.85637 15.0188L7.85578 12.9786C7.85566 12.6533 7.98223 12.3474 8.21203 12.1175C8.44184 11.8877 8.74734 11.7613 9.07289 11.7613H9.07336L56.4282 11.7658C57.1008 11.7662 57.6482 12.3134 57.6484 12.9859L57.6562 41.4205C57.6564 41.7458 57.5298 42.0516 57.3 42.2816Z" fill="#193982"/>
<path d="M45.1453 44.1615C45.1447 42.5472 46.4527 41.2392 48.0669 41.2399L48.0637 24.3636C46.4495 24.363 45.1404 23.0539 45.1398 21.4396H9.34274C9.34333 23.0539 8.03528 24.3619 6.42114 24.3612L6.42431 41.2375C8.03856 41.2381 9.34767 42.5472 9.34825 44.1615H45.1453Z" fill="#E31E22"/>
<path d="M28.7426 31.8438C28.572 31.7835 28.4092 31.7254 28.2543 31.6697V28.2363C28.6336 28.3666 28.8977 28.5663 29.0316 28.7572C29.4034 29.287 30.1342 29.4152 30.664 29.0433C31.1938 28.6715 31.3219 27.9406 30.9501 27.4108C30.4263 26.6644 29.4832 26.0392 28.2543 25.8256V25.6445C28.2543 24.9973 27.7297 24.4726 27.0824 24.4726C26.4352 24.4726 25.9106 24.9973 25.9106 25.6445V25.9127C25.7566 25.9481 25.6005 25.9894 25.4422 26.0371C24.0264 26.4636 22.9578 27.838 22.8435 29.3794C22.7306 30.9034 23.541 32.2272 25.0116 32.9208C25.2108 33.0146 25.5191 33.1432 25.9106 33.2965V37.4351C25.3833 37.2658 24.9042 36.9942 24.588 36.6017C24.1819 36.0978 23.4441 36.0183 22.9402 36.4242C22.4362 36.8303 22.3567 37.5679 22.7627 38.0721C23.569 39.0731 24.7526 39.6151 25.9104 39.8515V39.9565C25.9104 40.6036 26.4351 41.1283 27.0823 41.1283C27.7295 41.1283 28.2542 40.6036 28.2542 39.9565V39.9401C30.7011 39.6086 31.7718 38.0017 31.9541 36.5659C32.2108 34.5446 30.8901 32.603 28.7426 31.8438ZM25.1808 29.5528C25.2174 29.0597 25.5172 28.5887 25.9104 28.3699V30.7503C25.3879 30.4721 25.1425 30.0697 25.1808 29.5528ZM29.6291 36.2704C29.5472 36.9158 29.0547 37.37 28.2543 37.5588V34.1729C29.3165 34.6673 29.7167 35.5803 29.6291 36.2704Z" fill="white"/>
<path d="M41.6875 31.7015H37.8577C37.2104 31.7015 36.6858 32.2263 36.6858 32.8734C36.6858 33.5205 37.2104 34.0453 37.8577 34.0453H41.6875C42.3347 34.0453 42.8593 33.5205 42.8593 32.8734C42.8593 32.2262 42.3347 31.7015 41.6875 31.7015Z" fill="white"/>
<path d="M16.7937 31.7015H12.9639C12.3166 31.7015 11.792 32.2263 11.792 32.8734C11.792 33.5205 12.3166 34.0453 12.9639 34.0453H16.7937C17.4409 34.0453 17.9655 33.5205 17.9655 32.8734C17.9655 32.2262 17.4409 31.7015 16.7937 31.7015Z" fill="white"/>
</g>
<defs>
<clipPath id="clip0">
<rect width="60" height="60" fill="white"/>
</clipPath>
</defs>
</svg>
