<svg width="60" height="60" viewBox="0 0 60 60" fill="none" xmlns="http://www.w3.org/2000/svg">
<g clip-path="url(#clip0)">
<path d="M41.194 14.5887H36.7518V10.1464H31.5185V14.5887H27.0764V19.8219H31.5185V24.2641H36.7518V19.8219H41.194V14.5887Z" fill="#E31E22"/>
<path d="M34.1355 32.744C42.7036 32.744 49.6742 25.7735 49.6742 17.2053C49.6742 8.63714 42.7036 1.66671 34.1355 1.66671C25.5675 1.66671 18.5967 8.63726 18.5967 17.2053C18.5967 25.7733 25.5675 32.744 34.1355 32.744ZM34.1355 4.01046C41.4112 4.01046 47.3305 9.92972 47.3305 17.2054C47.3305 24.4811 41.4112 30.4004 34.1355 30.4004C26.8597 30.4004 20.9404 24.4811 20.9404 17.2054C20.9404 9.92972 26.8597 4.01046 34.1355 4.01046Z" fill="#193982"/>
<path d="M58.8281 31.3753C54.9998 31.3753 51.8854 34.4898 51.8854 38.3181V39.9124H23.7292V37.6802C23.7292 34.9117 21.4767 32.6592 18.7082 32.6592H8.11465V30.5986C8.11465 26.7703 5.00016 23.6558 1.17188 23.6558C0.524766 23.6558 0 24.1806 0 24.8277V57.1613C0 57.8085 0.524766 58.3332 1.17188 58.3332H6.94277C7.58988 58.3332 8.11465 57.8085 8.11465 57.1613V52.5527H51.8854V57.1613C51.8854 57.8085 52.4101 58.3332 53.0572 58.3332H58.8281C59.4752 58.3332 60 57.8085 60 57.1613V32.5472C60 31.9001 59.4752 31.3753 58.8281 31.3753ZM18.7083 35.0031C20.1846 35.0031 21.3855 36.2041 21.3855 37.6803V39.9125H8.11465V35.0031H18.7083ZM5.7709 55.9896H2.34375V26.151C4.31391 26.6706 5.7709 28.4677 5.7709 30.5987V55.9896ZM8.11465 50.2091V42.2563H51.8854V50.2091H8.11465ZM57.6562 55.9896H54.2291V38.3181C54.2291 36.187 55.6862 34.3898 57.6562 33.8703V55.9896Z" fill="#193982"/>
</g>
<defs>
<clipPath id="clip0">
<rect width="60" height="60" fill="white"/>
</clipPath>
</defs>
</svg>
