<svg width="60" height="60" viewBox="0 0 60 60" fill="none" xmlns="http://www.w3.org/2000/svg">
<path d="M30 60C21.9867 60 14.4531 56.8795 8.78684 51.2132C3.12047 45.5469 0 38.0133 0 30C0 21.9867 3.12047 14.4531 8.78684 8.78684C14.4531 3.12047 21.9867 0 30 0C38.0133 0 45.5469 3.12047 51.2133 8.78684C56.8794 14.4531 60 21.9867 60 30C60 38.0133 56.8794 45.5469 51.2133 51.2132C45.5469 56.8795 38.0133 60 30 60ZM30 2.34375C14.7503 2.34375 2.34375 14.7503 2.34375 30C2.34375 45.2497 14.7503 57.6562 30 57.6562C45.2497 57.6562 57.6562 45.2497 57.6562 30C57.6562 14.7503 45.2497 2.34375 30 2.34375Z" fill="#193982"/>
<circle cx="29.5" cy="29.5" r="16.5" fill="#E31E22"/>
<path d="M12.0734 26.2969C12.2297 26.2969 12.3859 26.3027 12.5422 26.3145C12.7023 26.3262 12.8469 26.3594 12.9758 26.4141C13.1047 26.4688 13.2082 26.5527 13.2863 26.666C13.3684 26.7754 13.4094 26.9297 13.4094 27.1289C13.4094 27.3242 13.3684 27.4785 13.2863 27.5918C13.2082 27.7012 13.1047 27.7832 12.9758 27.8379C12.8469 27.8926 12.7023 27.9277 12.5422 27.9434C12.3859 27.9551 12.2297 27.9609 12.0734 27.9609H11.4758V33.1641C11.4758 33.332 11.4699 33.4961 11.4582 33.6562C11.4504 33.8164 11.4191 33.959 11.3645 34.084C11.3098 34.209 11.2219 34.3105 11.1008 34.3887C10.9797 34.4629 10.8078 34.5 10.5852 34.5C10.3625 34.5 10.1906 34.4629 10.0695 34.3887C9.94844 34.3105 9.86055 34.209 9.80586 34.084C9.75117 33.959 9.71797 33.8164 9.70625 33.6562C9.69844 33.4961 9.69453 33.332 9.69453 33.1641V27.9609H9.09687C8.94062 27.9609 8.78242 27.9551 8.62226 27.9434C8.46601 27.9277 8.32344 27.8926 8.19453 27.8379C8.06562 27.7832 7.96016 27.7012 7.87812 27.5918C7.8 27.4785 7.76094 27.3242 7.76094 27.1289C7.76094 26.9297 7.8 26.7754 7.87812 26.666C7.96016 26.5527 8.06562 26.4688 8.19453 26.4141C8.32344 26.3594 8.46601 26.3262 8.62226 26.3145C8.78242 26.3027 8.94062 26.2969 9.09687 26.2969H12.0734ZM48.8516 26.25C49.2812 26.25 49.6504 26.2988 49.959 26.3965C50.2715 26.4941 50.5332 26.6211 50.7441 26.7773C50.959 26.9336 51.1309 27.1113 51.2598 27.3105C51.3887 27.5059 51.4863 27.7051 51.5527 27.9082C51.623 28.1113 51.668 28.3066 51.6875 28.4941C51.7109 28.6816 51.7227 28.8438 51.7227 28.9805C51.7227 29.0391 51.7168 29.1113 51.7051 29.1973C51.6973 29.2793 51.6641 29.3594 51.6055 29.4375C51.5469 29.5156 51.4531 29.582 51.3242 29.6367C51.1992 29.6914 51.0195 29.7188 50.7852 29.7188C50.707 29.7188 50.6094 29.7148 50.4922 29.707C50.375 29.6953 50.2617 29.6699 50.1523 29.6309C50.043 29.5879 49.9492 29.5293 49.8711 29.4551C49.793 29.377 49.7539 29.2695 49.7539 29.1328C49.7539 28.9219 49.7402 28.7324 49.7129 28.5645C49.6895 28.3965 49.6445 28.2539 49.5781 28.1367C49.5117 28.0195 49.4199 27.9297 49.3027 27.8672C49.1855 27.8047 49.0352 27.7734 48.8516 27.7734C48.6602 27.7734 48.5117 27.8145 48.4062 27.8965C48.3047 27.9746 48.2305 28.0605 48.1836 28.1543C48.1289 28.2676 48.0977 28.3945 48.0898 28.5352V32.25C48.0977 32.4219 48.1289 32.5723 48.1836 32.7012C48.2305 32.8145 48.3047 32.918 48.4062 33.0117C48.5117 33.1055 48.6602 33.1523 48.8516 33.1523C49.0352 33.1523 49.1855 33.1152 49.3027 33.041C49.4199 32.9629 49.5117 32.8594 49.5781 32.7305C49.6445 32.6016 49.6895 32.4531 49.7129 32.2852C49.7402 32.1172 49.7539 31.9414 49.7539 31.7578C49.7539 31.6992 49.7637 31.6387 49.7832 31.5762C49.8027 31.5137 49.8477 31.457 49.918 31.4062C49.9883 31.3516 50.0918 31.3066 50.2285 31.2715C50.3652 31.2363 50.5508 31.2188 50.7852 31.2188C51.0195 31.2188 51.1992 31.2461 51.3242 31.3008C51.4531 31.3516 51.5469 31.4121 51.6055 31.4824C51.6641 31.5488 51.6973 31.6152 51.7051 31.6816C51.7168 31.7441 51.7227 31.7852 51.7227 31.8047C51.7227 32.2344 51.6504 32.6191 51.5059 32.959C51.3613 33.2949 51.1562 33.5801 50.8906 33.8145C50.6289 34.0488 50.3145 34.2285 49.9473 34.3535C49.584 34.4746 49.1836 34.5352 48.7461 34.5352C48.6758 34.5352 48.5605 34.5293 48.4004 34.5176C48.2441 34.5059 48.0684 34.4746 47.873 34.4238C47.6777 34.373 47.4766 34.2969 47.2695 34.1953C47.0625 34.0938 46.873 33.9531 46.7012 33.7734C46.5332 33.5898 46.3945 33.3633 46.2852 33.0938C46.1758 32.8203 46.1211 32.4883 46.1211 32.0977V28.8281C46.1211 28.5078 46.1602 28.2246 46.2383 27.9785C46.3164 27.7324 46.418 27.5195 46.543 27.3398C46.6719 27.1562 46.8184 27.0039 46.9824 26.8828C47.1465 26.7578 47.3145 26.6543 47.4863 26.5723C47.8848 26.3848 48.3398 26.2773 48.8516 26.25Z" fill="#193982"/>
<path d="M17.6523 26.2969C17.8086 26.2969 17.9668 26.3027 18.127 26.3145C18.2871 26.3262 18.4316 26.3594 18.5605 26.4141C18.6895 26.4688 18.7949 26.5527 18.877 26.666C18.959 26.7754 19 26.9297 19 27.1289C19 27.3281 18.959 27.4844 18.877 27.5977C18.7949 27.707 18.6895 27.7891 18.5605 27.8438C18.4316 27.8984 18.2871 27.9316 18.127 27.9434C17.9668 27.9551 17.8086 27.9609 17.6523 27.9609H16.2578V29.5547H16.9961C17.1523 29.5547 17.3086 29.5605 17.4648 29.5723C17.625 29.5801 17.7656 29.6113 17.8867 29.666C18.0117 29.7168 18.1133 29.7969 18.1914 29.9062C18.2695 30.0117 18.3086 30.1602 18.3086 30.3516C18.3086 30.5469 18.2695 30.6973 18.1914 30.8027C18.1133 30.9082 18.0117 30.9883 17.8867 31.043C17.7656 31.0938 17.625 31.125 17.4648 31.1367C17.3086 31.1445 17.1523 31.1484 16.9961 31.1484H16.2578V32.8359H17.6523C17.8086 32.8359 17.9668 32.8418 18.127 32.8535C18.2871 32.8652 18.4316 32.8984 18.5605 32.9531C18.6895 33.0039 18.7949 33.0859 18.877 33.1992C18.959 33.3086 19 33.4609 19 33.6562C19 33.8594 18.957 34.0176 18.8711 34.1309C18.7891 34.2441 18.6836 34.3281 18.5547 34.3828C18.4258 34.4375 18.2812 34.4707 18.1211 34.4824C17.9609 34.4941 17.8047 34.5 17.6523 34.5H15.3555C15.1367 34.5 14.9668 34.4609 14.8457 34.3828C14.7285 34.3047 14.6426 34.2031 14.5879 34.0781C14.5332 33.9492 14.5 33.8047 14.4883 33.6445C14.4805 33.4844 14.4766 33.3203 14.4766 33.1523V27.6445C14.4766 27.4766 14.4805 27.3125 14.4883 27.1523C14.5 26.9922 14.5332 26.8496 14.5879 26.7246C14.6426 26.5957 14.7285 26.4922 14.8457 26.4141C14.9668 26.3359 15.1367 26.2969 15.3555 26.2969H17.6523ZM20.6766 27.6445C20.6766 27.4766 20.6844 27.3125 20.7 27.1523C20.7156 26.9922 20.7527 26.8496 20.8113 26.7246C20.8738 26.5957 20.9637 26.4922 21.0809 26.4141C21.198 26.3359 21.3602 26.2969 21.5672 26.2969C21.7898 26.2969 21.9637 26.3359 22.0887 26.4141C22.2137 26.4922 22.3055 26.5957 22.3641 26.7246C22.4227 26.8496 22.4578 26.9922 22.4695 27.1523C22.4852 27.3125 22.493 27.4766 22.493 27.6445V32.7773H23.6414C23.8016 32.7773 23.9598 32.7852 24.116 32.8008C24.2723 32.8164 24.4109 32.8535 24.532 32.9121C24.657 32.9707 24.7566 33.0566 24.8309 33.1699C24.9051 33.2832 24.9422 33.4375 24.9422 33.6328C24.9422 33.832 24.9051 33.9902 24.8309 34.1074C24.7566 34.2207 24.657 34.3066 24.532 34.3652C24.4109 34.4238 24.2723 34.4609 24.116 34.4766C23.9598 34.4922 23.8016 34.5 23.6414 34.5H21.9773C21.7703 34.5 21.5867 34.4922 21.4266 34.4766C21.2664 34.4609 21.1297 34.4238 21.0164 34.3652C20.907 34.3066 20.823 34.2207 20.7645 34.1074C20.7059 33.9902 20.6766 33.832 20.6766 33.6328V27.6445ZM27.8141 30.9609H29.6773L28.8102 27.8203H28.6812L27.8141 30.9609ZM31.4937 31.5352C31.5016 31.8008 31.5113 32.0723 31.523 32.3496C31.5348 32.627 31.5406 32.8945 31.5406 33.1523V33.3281C31.5406 33.4766 31.5348 33.6211 31.523 33.7617C31.5152 33.8984 31.4859 34.0234 31.4352 34.1367C31.3844 34.2461 31.3043 34.334 31.1949 34.4004C31.0855 34.4668 30.9312 34.5 30.732 34.5C30.5289 34.5 30.3727 34.4668 30.2633 34.4004C30.1539 34.334 30.0719 34.2461 30.0172 34.1367C29.9664 34.0273 29.9352 33.9023 29.9234 33.7617C29.9156 33.6211 29.9117 33.4766 29.9117 33.3281V32.5078H27.568V33.3281C27.568 33.4766 27.5621 33.6211 27.5504 33.7617C27.5426 33.9023 27.5113 34.0273 27.4566 34.1367C27.4059 34.2461 27.3258 34.334 27.2164 34.4004C27.107 34.4668 26.9508 34.5 26.7477 34.5C26.5445 34.5 26.3883 34.4668 26.2789 34.4004C26.1695 34.334 26.0895 34.2461 26.0387 34.1367C25.9879 34.0234 25.9586 33.8984 25.9508 33.7617C25.943 33.6211 25.9391 33.4766 25.9391 33.3281V33.1523C25.9391 33.0312 25.9391 32.9023 25.9391 32.7656C25.943 32.6289 25.9469 32.4902 25.9508 32.3496C25.9547 32.209 25.9586 32.0703 25.9625 31.9336C25.9664 31.793 25.9703 31.6602 25.9742 31.5352C26.1695 30.8555 26.3746 30.168 26.5895 29.4727C26.8043 28.7734 27.0094 28.082 27.2047 27.3984C27.2437 27.2539 27.2906 27.1152 27.3453 26.9824C27.4 26.8457 27.4723 26.7285 27.5621 26.6309C27.652 26.5293 27.7672 26.4492 27.9078 26.3906C28.0484 26.3281 28.2281 26.2969 28.4469 26.2969H29.0328C29.2477 26.2969 29.4254 26.3281 29.566 26.3906C29.7105 26.4492 29.8277 26.5293 29.9176 26.6309C30.0074 26.7285 30.0777 26.8457 30.1285 26.9824C30.1832 27.1152 30.232 27.2539 30.275 27.3984L31.4937 31.5352ZM35.5492 26.2969C35.9047 26.2969 36.2348 26.3418 36.5395 26.4316C36.848 26.5215 37.1156 26.6562 37.3422 26.8359C37.5727 27.0117 37.7523 27.2324 37.8812 27.498C38.0141 27.7637 38.0805 28.0742 38.0805 28.4297V32.0625C38.0805 32.3672 38.0473 32.6367 37.9809 32.8711C37.9145 33.1016 37.8266 33.3027 37.7172 33.4746C37.6117 33.6426 37.4906 33.7871 37.3539 33.9082C37.2172 34.0254 37.0785 34.1211 36.9379 34.1953C36.602 34.375 36.2211 34.4766 35.7953 34.5H33.85C33.6273 34.5 33.4555 34.4629 33.3344 34.3887C33.2133 34.3105 33.1254 34.209 33.0707 34.084C33.016 33.9551 32.9828 33.8105 32.9711 33.6504C32.9633 33.4902 32.9594 33.3242 32.9594 33.1523V27.6328C32.9594 27.4648 32.9633 27.3008 32.9711 27.1406C32.9828 26.9805 33.016 26.8379 33.0707 26.7129C33.1254 26.5879 33.2133 26.4883 33.3344 26.4141C33.4555 26.3359 33.6273 26.2969 33.85 26.2969H35.5492ZM34.7406 27.668V33.1055H35.5023C35.6703 33.0977 35.8207 33.0586 35.9535 32.9883C36.0082 32.9609 36.0629 32.9238 36.1176 32.877C36.1723 32.8301 36.2211 32.7754 36.2641 32.7129C36.307 32.6465 36.3402 32.5684 36.3637 32.4785C36.391 32.3887 36.4047 32.2852 36.4047 32.168V28.7109C36.4047 28.582 36.391 28.4688 36.3637 28.3711C36.3402 28.2695 36.307 28.1816 36.2641 28.1074C36.2211 28.0332 36.1723 27.9707 36.1176 27.9199C36.0629 27.8691 36.0082 27.8281 35.9535 27.7969C35.8207 27.7227 35.6703 27.6797 35.5023 27.668H34.7406ZM39.3937 28.6172C39.3937 28.2422 39.4484 27.9238 39.5578 27.6621C39.6672 27.3965 39.8059 27.1758 39.9738 27C40.1457 26.8242 40.3332 26.6875 40.5363 26.5898C40.7434 26.4883 40.9426 26.4121 41.134 26.3613C41.3293 26.3105 41.5051 26.2793 41.6613 26.2676C41.8176 26.2559 41.9328 26.25 42.007 26.25H42.2062C42.2805 26.25 42.3957 26.2559 42.552 26.2676C42.7082 26.2793 42.882 26.3105 43.0734 26.3613C43.2648 26.4121 43.4621 26.4883 43.6652 26.5898C43.8723 26.6875 44.0578 26.8242 44.2219 27C44.3898 27.1758 44.5266 27.3965 44.632 27.6621C44.7414 27.9238 44.7961 28.2422 44.7961 28.6172V32.1211C44.7961 32.5078 44.7414 32.8359 44.632 33.1055C44.5266 33.375 44.3898 33.5996 44.2219 33.7793C44.0578 33.959 43.8723 34.1016 43.6652 34.207C43.4621 34.3086 43.2648 34.3848 43.0734 34.4355C42.882 34.4863 42.7082 34.5176 42.552 34.5293C42.3957 34.541 42.2805 34.5469 42.2062 34.5469H42.007C41.9328 34.5469 41.8176 34.541 41.6613 34.5293C41.5051 34.5176 41.3293 34.4863 41.134 34.4355C40.9426 34.3848 40.7434 34.3086 40.5363 34.207C40.3332 34.1016 40.1457 33.959 39.9738 33.7793C39.8059 33.5996 39.6672 33.375 39.5578 33.1055C39.4484 32.8359 39.3937 32.5078 39.3937 32.1211V28.6172ZM41.3391 32.3438C41.3469 32.4883 41.3801 32.6152 41.4387 32.7246C41.4895 32.8223 41.5656 32.9102 41.6672 32.9883C41.7727 33.0664 41.9211 33.1055 42.1125 33.1055C42.3 33.1055 42.4445 33.0664 42.5461 32.9883C42.6477 32.9102 42.7238 32.8223 42.7746 32.7246C42.8293 32.6152 42.8625 32.4883 42.8742 32.3438V28.5234C42.8625 28.3828 42.8293 28.2559 42.7746 28.1426C42.7238 28.0488 42.6477 27.9629 42.5461 27.8848C42.4445 27.8027 42.3 27.7617 42.1125 27.7617C41.9211 27.7617 41.7727 27.8027 41.6672 27.8848C41.5656 27.9629 41.4895 28.0488 41.4387 28.1426C41.3801 28.2559 41.3469 28.3828 41.3391 28.5234V32.3438Z" fill="white"/>
</svg>
