<svg width="61" height="60" viewBox="0 0 61 60" fill="none" xmlns="http://www.w3.org/2000/svg">
<g clip-path="url(#clip0)">
<path d="M24.0652 31.4753H36.9346V51.8286H24.0652V31.4753Z" fill="#E31E22"/>
<path d="M23.5583 21.1309H26.7549V24.3274C26.7549 24.9746 27.2796 25.4993 27.9267 25.4993H33.0729C33.72 25.4993 34.2448 24.9746 34.2448 24.3274V21.1309H37.4413C38.0884 21.1309 38.6132 20.6062 38.6132 19.959V14.8127C38.6132 14.1655 38.0884 13.6409 37.4413 13.6409H34.2448V10.4443C34.2448 9.79711 33.72 9.27246 33.0729 9.27246H27.9267C27.2796 9.27246 26.7549 9.79711 26.7549 10.4443V13.6409H23.5583C22.9112 13.6409 22.3865 14.1655 22.3865 14.8127V19.959C22.3865 20.6062 22.9111 21.1309 23.5583 21.1309ZM24.7302 15.9846H27.9267C28.5739 15.9846 29.0986 15.46 29.0986 14.8127V11.6162H31.901V14.8127C31.901 15.46 32.4258 15.9846 33.0729 15.9846H36.2694V18.7871H33.0729C32.4258 18.7871 31.901 19.3118 31.901 19.959V23.1555H29.0986V19.959C29.0986 19.3118 28.5739 18.7871 27.9267 18.7871H24.7302V15.9846Z" fill="#193982"/>
<path d="M59.3281 50.6566H58.3084V23.9179C58.3084 23.2707 57.7836 22.746 57.1365 22.746H45.2909V4.46875H45.3543C46.0014 4.46875 46.5262 3.9441 46.5262 3.29687C46.5262 2.64965 46.0014 2.125 45.3543 2.125H15.6457C14.9986 2.125 14.4738 2.64965 14.4738 3.29687C14.4738 3.9441 14.9986 4.46875 15.6457 4.46875H15.7091V22.746H3.86352C3.21641 22.746 2.69164 23.2707 2.69164 23.9179V50.6566H1.67188C1.02477 50.6566 0.5 51.1812 0.5 51.8284V56.7034C0.5 57.3507 1.02477 57.8753 1.67188 57.8753H59.3281C59.9752 57.8753 60.5 57.3507 60.5 56.7034V51.8284C60.5 51.1812 59.9752 50.6566 59.3281 50.6566ZM55.9646 25.0898V31.7993H51.6384C50.9913 31.7993 50.4665 32.324 50.4665 32.9712C50.4665 33.6184 50.9913 34.1431 51.6384 34.1431H55.9646V41.4936H51.6384C50.9913 41.4936 50.4665 42.0182 50.4665 42.6654C50.4665 43.3127 50.9913 43.8373 51.6384 43.8373H55.9646V50.6566H45.2909V25.0898H55.9646ZM42.9472 4.46875V50.6566H18.0528V4.46875H42.9472ZM5.03539 43.8373H9.3616C10.0087 43.8373 10.5335 43.3127 10.5335 42.6654C10.5335 42.0182 10.0087 41.4936 9.3616 41.4936H5.03539V34.1431H9.3616C10.0087 34.1431 10.5335 33.6184 10.5335 32.9712C10.5335 32.324 10.0087 31.7993 9.3616 31.7993H5.03539V25.0898H15.7091V50.6566H5.03539V43.8373ZM58.1562 55.5316H2.84375V53.0003H58.1562V55.5316Z" fill="#193982"/>
</g>
<defs>
<clipPath id="clip0">
<rect width="60" height="60" fill="white" transform="translate(0.5)"/>
</clipPath>
</defs>
</svg>
