<svg width="40" height="41" viewBox="0 0 40 41" fill="none" xmlns="http://www.w3.org/2000/svg">
<circle cx="20" cy="20.8218" r="20" fill="#ECF3FF"/>
<path d="M30.6 15.7218C29.9 16.0218 29.1 16.2218 28.3 16.3218C29.1 15.8218 29.8 15.0218 30.1 14.1218C29.3 14.6218 28.5 14.9218 27.5 15.1218C26.8 14.3218 25.7 13.8218 24.6 13.8218C22.4 13.8218 20.6 15.6218 20.6 17.8218C20.6 18.1218 20.6 18.4218 20.7 18.7218C17.4 18.5218 14.4 16.9218 12.4 14.5218C12.1 15.1218 11.9 15.8218 11.9 16.5218C11.9 17.9218 12.6 19.1218 13.7 19.8218C13 19.8218 12.4 19.6218 11.9 19.3218C11.9 21.2218 13.3 22.9218 15.1 23.2218C14.8 23.3218 14.4 23.3218 14 23.3218C13.7 23.3218 13.5 23.3218 13.2 23.2218C13.7 24.8218 15.2 26.0218 17 26.0218C15.6 27.1218 13.9 27.7218 12 27.7218C11.7 27.7218 11.4 27.7218 11 27.6218C12.8 28.7218 14.9 29.4218 17.2 29.4218C24.6 29.4218 28.6 23.3218 28.6 18.0218V17.5218C29.4 17.2218 30.1 16.5218 30.6 15.7218Z" fill="#1A3A82"/>
</svg>
