<svg width="60" height="60" viewBox="0 0 60 60" fill="none" xmlns="http://www.w3.org/2000/svg">
<g clip-path="url(#clip0)">
<path d="M56.4232 7.20559H52.7578V5.16699C52.7578 4.51977 52.233 3.99512 51.5859 3.99512H44.7493C44.1022 3.99512 43.5775 4.51977 43.5775 5.16699V7.20559H34.5902V5.16699C34.5902 4.51977 34.0656 3.99512 33.4184 3.99512H26.5818C25.9345 3.99512 25.4099 4.51977 25.4099 5.16699V7.20559H17.5945V5.16699C17.5945 4.51977 17.0699 3.99512 16.4227 3.99512H9.58594C8.93871 3.99512 8.41406 4.51977 8.41406 5.16699V7.20559H3.5768C1.60453 7.20559 0 8.81012 0 10.7824V52.0058C0 54.2108 1.7966 56.0048 4.00488 56.0048H55.227C57.8589 56.0048 60 53.8636 60 51.2318V10.7824C60 8.81012 58.3955 7.20559 56.4232 7.20559ZM45.9212 6.33887H50.4141V10.5027H45.9212V6.33887ZM27.7536 6.33887H32.2465V10.5027H27.7536V6.33887ZM10.7578 6.33887H15.2507V10.5027H10.7578V6.33887ZM2.34375 10.7824C2.34375 10.1025 2.89687 9.54934 3.5768 9.54934H8.41406V11.6744C8.41406 12.3216 8.93871 12.8463 9.58594 12.8463H16.4225C17.0698 12.8463 17.5944 12.3216 17.5944 11.6744V9.54934H25.4098V11.6744C25.4098 12.3216 25.9344 12.8463 26.5816 12.8463H33.4182C34.0655 12.8463 34.5901 12.3216 34.5901 11.6744V9.54934H43.5773V11.6744C43.5773 12.3216 44.1021 12.8463 44.7492 12.8463H51.5859C52.233 12.8463 52.7578 12.3216 52.7578 11.6744V9.54934H56.4232C57.1031 9.54934 57.6562 10.1025 57.6562 10.7824V15.7152H2.34375V10.7824ZM57.6562 51.2318C57.6562 52.5713 56.5664 53.661 55.227 53.661H4.00488C3.08895 53.661 2.34375 52.9185 2.34375 52.0058V18.0589H57.6562V51.2318Z" fill="#193982"/>
<path d="M52.4656 35.468H53.6978C54.3449 35.468 54.8697 34.9433 54.8697 34.2961C54.8697 33.6489 54.3449 33.1242 53.6978 33.1242H52.4656C51.8185 33.1242 51.2937 33.6489 51.2937 34.2961C51.2937 34.9433 51.8185 35.468 52.4656 35.468Z" fill="#193982"/>
<path d="M51.2065 25.958C50.7487 25.5004 50.0069 25.5004 49.5491 25.958L48.6777 26.8293C48.2201 27.2869 48.2201 28.029 48.6777 28.4867C48.9066 28.7156 49.2064 28.8299 49.5063 28.8299C49.8063 28.8299 50.1061 28.7156 50.3349 28.4867L51.2064 27.6153C51.6641 27.1578 51.6641 26.4158 51.2065 25.958Z" fill="#193982"/>
<path d="M49.549 42.634C49.7778 42.8629 50.0777 42.9773 50.3776 42.9773C50.6776 42.9773 50.9775 42.8628 51.2062 42.634C51.6638 42.1764 51.6638 41.4344 51.2062 40.9768L50.3348 40.1055C49.8771 39.6479 49.1351 39.6478 48.6774 40.1056C48.2198 40.5632 48.2198 41.3052 48.6774 41.7628L49.549 42.634Z" fill="#193982"/>
<path d="M6.30225 35.468H7.53447C8.1817 35.468 8.70635 34.9433 8.70635 34.2961C8.70635 33.6489 8.1817 33.1242 7.53447 33.1242H6.30225C5.65502 33.1242 5.13037 33.6489 5.13037 34.2961C5.13037 34.9433 5.65502 35.468 6.30225 35.468Z" fill="#193982"/>
<path d="M9.6651 40.1055L8.7937 40.9768C8.33608 41.4344 8.33596 42.1764 8.7937 42.6341C9.02256 42.8629 9.32245 42.9773 9.62233 42.9773C9.92221 42.9773 10.2221 42.8628 10.451 42.6341L11.3224 41.7628C11.78 41.3051 11.7801 40.5631 11.3224 40.1055C10.8649 39.6479 10.1228 39.648 9.6651 40.1055Z" fill="#193982"/>
<path d="M9.66518 28.4867C9.89404 28.7156 10.1939 28.8299 10.4938 28.8299C10.7937 28.8299 11.0937 28.7156 11.3224 28.4867C11.7801 28.0291 11.7801 27.287 11.3224 26.8293L10.451 25.958C9.99342 25.5004 9.25139 25.5004 8.79365 25.958C8.33604 26.4156 8.33604 27.1577 8.79365 27.6154L9.66518 28.4867Z" fill="#193982"/>
<path d="M26.75 31.5L21.625 33.125L24.625 37.25V43.125L31 41.5L35.625 43.125V37.25L38.375 33.125L33.375 31.5L30.125 27.125L26.75 31.5Z" fill="#E31E22"/>
<path d="M38.9355 31.8796L33.9216 30.4015L30.9666 26.0897C30.748 25.771 30.3864 25.5803 29.9999 25.5803C29.6134 25.5803 29.2518 25.7709 29.0332 26.0897L26.0781 30.4015L21.0641 31.8796C20.6934 31.989 20.4004 32.274 20.281 32.6415C20.1616 33.0091 20.2311 33.4119 20.4668 33.7182L23.6545 37.861L23.5108 43.0863C23.5001 43.4726 23.6807 43.8394 23.9934 44.0665C24.1963 44.214 24.438 44.2904 24.6823 44.2904C24.8143 44.2904 24.947 44.2681 25.0749 44.2226L29.9999 42.4713L34.925 44.2226C35.2891 44.352 35.6936 44.2938 36.0065 44.0665C36.3191 43.8393 36.4997 43.4726 36.4891 43.0863L36.3453 37.861L39.5329 33.7182C39.7685 33.4119 39.8379 33.009 39.7186 32.6415C39.5992 32.274 39.3062 31.989 38.9355 31.8796ZM34.2337 36.7621C34.0694 36.9758 33.9836 37.2395 33.9911 37.509L34.0993 41.4415L30.3926 40.1234C30.1387 40.0332 29.8614 40.0331 29.6073 40.1234L25.9007 41.4415L26.0088 37.509C26.0161 37.2395 25.9305 36.9758 25.7661 36.7621L23.3671 33.6442L27.1407 32.5318C27.3992 32.4556 27.6236 32.2926 27.7759 32.0702L29.9999 28.8252L32.2238 32.0703C32.3762 32.2926 32.6005 32.4556 32.8592 32.5319L36.6326 33.6444L34.2337 36.7621Z" fill="#193982"/>
</g>
<defs>
<clipPath id="clip0">
<rect width="60" height="60" fill="white"/>
</clipPath>
</defs>
</svg>
