<svg width="60" height="60" viewBox="0 0 60 60" fill="none" xmlns="http://www.w3.org/2000/svg">
<path d="M43.4164 14.0026C43.4164 6.26918 37.1472 0 29.4137 0C21.6803 0 15.4111 6.26918 15.4111 14.0026C15.4111 18.8062 17.8299 23.0449 21.516 25.5671H37.3116C40.9976 23.0449 43.4164 18.8062 43.4164 14.0026Z" fill="#E31E22"/>
<path d="M28.3324 21.4003V21.5656C28.3324 22.2127 28.8572 22.7375 29.5043 22.7375C30.1514 22.7375 30.6762 22.2127 30.6762 21.5656V21.4897C33.2657 21.1618 34.396 19.4775 34.5871 17.9737C34.8544 15.8691 33.4766 13.8463 31.2368 13.0544C31.04 12.9849 30.8532 12.9181 30.6762 12.8544V9.08903C31.14 9.23024 31.4613 9.46649 31.6189 9.69126C31.9907 10.2211 32.7216 10.3493 33.2514 9.97731C33.7812 9.60559 33.9093 8.8747 33.5374 8.34489C32.9849 7.55751 31.9832 6.9002 30.6762 6.68727V6.43977C30.6762 5.79266 30.1514 5.2679 29.5043 5.2679C28.8572 5.2679 28.3324 5.79266 28.3324 6.43977V6.77645C28.1544 6.81606 27.9736 6.86317 27.7901 6.91848C26.3196 7.36134 25.2096 8.78973 25.0909 10.392C24.9736 11.9742 25.816 13.3489 27.3443 14.0697C27.5611 14.1719 27.9006 14.3131 28.3324 14.4815V18.9908C27.7295 18.8107 27.1759 18.5088 26.8161 18.0621C26.41 17.5582 25.6723 17.4787 25.1682 17.8845C24.6642 18.2906 24.5848 19.0283 24.9907 19.5324C25.8448 20.5924 27.1053 21.1593 28.3324 21.4003ZM32.2621 17.6784C32.1689 18.4125 31.5992 18.9213 30.6763 19.1149V15.3504C31.9003 15.8756 32.3604 16.9049 32.2621 17.6784ZM27.4283 10.5654C27.4716 9.98247 27.8501 9.42723 28.3325 9.21255V11.9443C27.5294 11.5608 27.3973 10.9832 27.4283 10.5654Z" fill="white"/>
<path d="M12.6428 52.5001V31.8954H39.4114C40.0585 31.8954 40.5833 31.3707 40.5833 30.7235C40.5833 30.0764 40.0585 29.5517 39.4114 29.5517H11.4709C10.8238 29.5517 10.2991 30.0764 10.2991 30.7235V53.672C10.2991 54.3191 10.8238 54.8439 11.4709 54.8439H39.4114C40.0585 54.8439 40.5833 54.3191 40.5833 53.672C40.5833 53.0249 40.0585 52.5001 39.4114 52.5001H12.6428Z" fill="#193982"/>
<path d="M53.6849 36.2599H52.3801V25.5673C52.3801 24.9202 51.8553 24.3954 51.2082 24.3954H8.61767C6.70153 24.3954 5.14282 25.9542 5.14282 27.8703V56.5252C5.14282 58.4413 6.70165 60 8.61767 60H51.2082C51.8553 60 52.3801 59.4753 52.3801 58.8281V48.1355H53.6849C54.332 48.1355 54.8568 47.6107 54.8568 46.9636V37.4317C54.8568 36.7847 54.3322 36.2599 53.6849 36.2599ZM50.0364 57.6564H8.61767C7.99399 57.6564 7.48657 57.149 7.48657 56.5253V27.8703C7.48657 27.2466 7.99399 26.7392 8.61767 26.7392H50.0363V36.2599H39.4113C38.7642 36.2599 38.2394 36.7847 38.2394 37.4318V46.9637C38.2394 47.6108 38.7642 48.1356 39.4113 48.1356H50.0363V57.6564H50.0364ZM52.5131 45.7919H40.5833V38.6037H52.5132V45.7919H52.5131Z" fill="#193982"/>
<path d="M44.5337 43.4001H46.4373C47.0844 43.4001 47.6092 42.8753 47.6092 42.2282C47.6092 41.5811 47.0844 41.0564 46.4373 41.0564H44.5337C43.8866 41.0564 43.3618 41.5811 43.3618 42.2282C43.3618 42.8753 43.8866 43.4001 44.5337 43.4001Z" fill="#193982"/>
</svg>
